<svg fill="none" height="25" viewBox="0 0 25 25" width="25" xmlns="http://www.w3.org/2000/svg"><path clip-rule="evenodd" d="m12.5012.00048828c-3.39486 0-3.8209.01484382-5.15425.07552122-1.33074.0609375-2.23908.2716165-3.03388.5807325-.82215.319273-1.51955.746358-2.21435 1.441418-.69532.69479-1.122408 1.39219-1.442724 2.21407-.309899.79506-.520838 1.70366-.5807348 3.03387-.059636 1.33334-.0752612 1.75965-.0752612 5.1545 0 3.3948.0151043 3.8195.0755216 5.1529.0611984 1.3307.2718774 2.239.5807354 3.0338.319534.8222.746623 1.5196 1.441683 2.2144.69454.6953 1.39194 1.1234 2.21356 1.4427.79532.3091 1.70393.5198 3.03441.5807 1.33335.0607 1.75913.0755 5.15369.0755 3.3951 0 3.8198-.0148 5.1532-.0755 1.3307-.0609 2.2401-.2716 3.0354-.5807.8219-.3193 1.5183-.7474 2.2128-1.4427.6953-.6948 1.1224-1.3922 1.4427-2.2141.3073-.7951.5183-1.7037.5808-3.0339.0599-1.3333.0755-1.7583.0755-5.1531 0-3.39485-.0156-3.8209-.0755-5.15424-.0625-1.33073-.2735-2.23907-.5808-3.03387-.3203-.82214-.7474-1.51954-1.4427-2.21433-.6953-.69532-1.3906-1.122406-2.2135-1.441418-.7969-.309116-1.7058-.519795-3.0365-.5807325-1.3334-.0606774-1.7579-.07552122-5.1537-.07552122zm-1.1198 2.25233172c.3329-.00052.7042 0 1.1214 0 3.3375 0 3.7331.01198 5.0511.07188 1.2188.05573 1.8802.25937 2.3209.43047.5833.22656.9992.4974 1.4364.9349.4375.4375.7084.85416.9355 1.4375.1711.4401.375 1.10156.4304 2.32031.0599 1.31771.073 1.71355.073 5.04952 0 3.3359-.0131 3.7317-.073 5.0495-.0557 1.2187-.2593 1.8802-.4304 2.3203-.2266.5833-.498.9987-.9355 1.4359-.4375.4375-.8528.7083-1.4364.9349-.4401.1719-1.1021.375-2.3209.4307-1.3177.0599-1.7136.073-5.0511.073-3.33778 0-3.73336-.0131-5.05108-.073-1.21876-.0562-1.88023-.2599-2.32112-.431-.58334-.2265-1.00001-.4973-1.43751-.9348-.43751-.4375-.70834-.8532-.93543-1.4368-.17109-.4401-.375-1.1015-.43047-2.3203-.0599-1.3177-.07188-1.7135-.07188-5.0516 0-3.33798.01198-3.73173.07188-5.04944.05573-1.21875.25938-1.88021.43047-2.32084.22657-.58333.49792-1 .93543-1.4375.4375-.4375.85417-.70833 1.43751-.93542.44063-.17187 1.10236-.375 2.32112-.43099 1.15314-.05208 1.60002-.06771 3.92968-.07031zm7.794 2.07549c-.8281 0-1.5.67108-1.5 1.49944 0 .8281.6719 1.49995 1.5 1.49995.8282 0 1.5-.67185 1.5-1.49995s-.6718-1.49996-1.5-1.49996zm-6.6755 1.75317c-3.54513 0-6.41938 2.87427-6.41938 6.41942 0 3.5451 2.87425 6.418 6.41938 6.418 3.545 0 6.4183-2.8729 6.4183-6.418 0-3.54515-2.8735-6.41942-6.4186-6.41942zm.0027 2.25179c2.301 0 4.1667 1.86533 4.1667 4.16663 0 2.3011-1.8657 4.1667-4.1667 4.1667-2.3014 0-4.16676-1.8656-4.16676-4.1667 0-2.3013 1.86536-4.16663 4.16676-4.16663z" fill="#fff" fill-rule="evenodd"/></svg>