<svg width="64" height="64" fill="none" xmlns="http://www.w3.org/2000/svg"><path d="M56 32h-9.55a3.783 3.783 0 0 0-3.784 3.784v3.099a3.783 3.783 0 0 0 3.785 3.784H56" stroke="#387FBF" stroke-width="2.5" stroke-linecap="round" stroke-linejoin="round"/><path clip-rule="evenodd" d="M50.667 56H13.333A5.332 5.332 0 0 1 8 50.667V24a5.332 5.332 0 0 1 5.333-5.333h37.334A5.332 5.332 0 0 1 56 24v26.667A5.332 5.332 0 0 1 50.667 56Z" stroke="#387FBF" stroke-width="2.5" stroke-linecap="round" stroke-linejoin="round"/><path d="m37.333 18.667-8.781-8.782a2.664 2.664 0 0 0-3.77 0L16 18.667M32 13.333l3.448-3.448a2.664 2.664 0 0 1 3.77 0L48 18.667" stroke="#387FBF" stroke-width="2.5" stroke-linecap="round" stroke-linejoin="round"/></svg>