<svg height="16" viewBox="0 0 80 16" width="80" xmlns="http://www.w3.org/2000/svg"><g fill="none" fill-rule="evenodd"><path d="m9.97733754 2.51035962s2.55015776-4.26498423 7.64492116-1.54170347c3.4203154 1.8288959 2.1188643 6.59684543-.2601893 9.25022085-2.7056151 3.0170347-7.38473186 5.4278864-7.38473186 5.4278864s-4.67911672-2.4108517-7.38473186-5.4278864c-2.37955836-2.65337542-3.68050473-7.42132495-.26018928-9.25022085 5.09476341-2.72328076 7.64492114 1.54170347 7.64492114 1.54170347" fill="#fa271f" transform="translate(60.063091 .192606)"/><path d="m64.0945363 10.1346877c-.3268139 0-.5935647-.23192429-.5935647-.56706625 0-.33514195.2839117-.58473186.5935647-.58473186.3520505 0 .6102208.27507886.6102208.5933123 0 .22359622-.1809464.55848581-.6102208.55848581" fill="#909090"/><path d="m65.4120631 4.94394953.7886435-.299306v1.22801262l.0600631.069653c.069653-.01968454.08-.02977918.1395584-.09917981.469653-.57968455.5191167-.63949527.768959-.83911672.1690851-.12946372.4391167-.32908518.8482019-.32908518.808328 0 .9183596.65867508.9680757 1.14776026l.0295268.02044164c.010347 0 .0201893-.01059937.0300315-.01059937.0603155-.03003155.1100316-.11987382.1597477-.16958991.7290851-.76870662 1.0982965-.99810725 1.6171608-.99810725.1297161 0 .4890852.02018927.7285805.35911672.1400631.19962145.1902839.36921135.1902839 1.17779179v3.80340698h-.8585489v-3.71305997c0-.42952682 0-.92870663-.5294637-.92870663-.3888959 0-.758612.44921136-1.3476341 1.18763407v3.45413253h-.8580442v-3.87305997c0-.71899054-.2493375-.75886436-.4688959-.75886436-.1897791 0-.3596214.07015773-.7189905.40958991-.1597476.14940063-.219306.21930599-.6887066.84845426v3.37388016h-.8585489z" fill="#fff"/><path d="m75.9631293 6.88080757c0-.89867508-.3396845-1.56719243-1.0478233-1.56719243-.4295268 0-.768959.25943218-.9385489.65867508-.1597476.37930599-.1695899.72883281-.1799369.90851735zm.8986751.60870663h-3.094511c-.010347 1.16820189.3288328 1.94649842 1.257287 1.94649842.6092114 0 .8981704-.28971609 1.0584228-.43886436l.5183596.47873818c-.3389275.29955835-.748265.65867506-1.6964038.65867506-1.2078234 0-2.0560252-.95798106-2.0560252-2.59507885 0-2.65488959 1.577287-2.87470032 2.0461829-2.87470032 1.2572871 0 1.9260568 1.06801262 1.9565931 2.34574133z" fill="#fff"/><g fill="#3f3f40"><path d="m5.67823344 3.99240379c-.12264984-1.08365931-.64176656-2.06056783-1.86271294-2.06056783-1.11444794 0-1.58712933.86990536-1.83167192 1.46548896-.4118612 1.00719243-.4577918 2.56429022-.4577918 2.68618297 0 2.45728706.44315458 4.85400631 2.28946372 4.85400631.88529969 0 1.34309149-.6412618 1.48063092-.8547634.30561514-.51911673.36643533-1.16037856.39697161-1.52630916l1.52630915.27432177c-.06157729.88555205-.38132492 1.84681389-1.05312303 2.51861199-.96176656.9617666-2.06031546.9617666-2.48832808.9617666-.91583596 0-3.67798107-.4734385-3.67798107-5.86145115 0-2.57917981.65564669-5.84605678 3.8155205-5.84605678.71772871 0 1.6482019.21400631 2.33539433.91608833.7629022.77854889.91583596 1.66384858.99230284 2.19810725z"/><path d="m9.38781073 1.06185489 1.37362777-.56454259v4.70082019c0 .10700316.0305363.15268139.1223975.15268139.0762145 0 .2442902-.27457413.3813249-.47293375.5950788-.88555205 1.3279495-1.11444795 2.0146372-1.11444795 1.1295899 0 1.5876341.77854889 1.5876341 1.93892744v6.24227128h-1.3579811v-6.19684541c0-.57993691-.18347-.96176656-.7634069-.96176656-.2899685 0-.5955836.13753943-.8858045.36643533-.3967192.3207571-.808328.93097792-1.0988012 1.35873817v5.43343847h-1.37362777z"/><path d="m17.9973502 8.05244164c0 .61097792.2140063 2.86965296 1.8011356 2.86965296 1.4652366 0 1.7246688-1.8619558 1.7246688-3.00694003 0-.53400631-.0913565-1.37362776-.2750789-1.89249211-.1824606-.51936908-.518612-.85501577-.8847949-1.00719243-.1829653-.07646688-.3815773-.10700315-.5801893-.10700315-1.5106625 0-1.7857413 1.9081388-1.7857413 3.14397476m1.7246687-4.28895899c1.5111672 0 2.2442902.79343849 2.6561514 1.57198738.3664354.70233439.5950789 1.87760253.5950789 2.65615142 0 2.39671925-1.2209464 4.12088325-3.1901577 4.12088325-1.3890221 0-1.9692114-.7174763-2.2743218-1.0988012-.5948265-.7480126-.854511-1.83167195-.854511-3.20529971 0-2.7777918 1.4195583-4.04492114 3.0677602-4.04492114"/><path d="m28.5301703 6.17521767c-.1221451-.35129338-.4272555-1.26687698-1.3584858-1.26687698-.9463722 0-1.6641009.99205048-1.6641009 2.64050474 0 .67154574.0464353 1.5414511.2440379 2.0911041.214511.57993687.6717981 1.29766557 1.5424605 1.29766557.8393691 0 1.2360883-.7177287 1.3582335-1.52656147l1.2209463.54940063c-.2591798 1.31280754-1.2209463 2.15192424-2.5791798 2.15192424-3.053123 0-3.1290852-3.58687692-3.1290852-4.02902203 0-.76340694 0-2.03003155.8088329-3.14422713.7018296-.96176656 1.6025236-1.14498423 2.1521766-1.14498423.3202524 0 1.4195584.09160883 2.0449211.93097792.2902209.38157729.3515458.48858044.5196215.86990536z"/><path d="m32.4078233 8.05244164c0 .61097792.2135016 2.86965296 1.8011357 2.86965296 1.4652366 0 1.7246688-1.8619558 1.7246688-3.00694003 0-.53400631-.0918612-1.37362776-.2745742-1.89249211-.1829653-.51936908-.5191167-.85501577-.8852997-1.00719243-.18347-.07646688-.3815772-.10700315-.5801892-.10700315-1.5111672 0-1.7857414 1.9081388-1.7857414 3.14397476m1.7246688-4.28895899c1.5111672 0 2.2442902.79343849 2.6556467 1.57198738.3669401.70233439.5955836 1.87760253.5955836 2.65615142 0 2.39671925-1.2209464 4.12088325-3.1901577 4.12088325-1.3890221 0-1.9687067-.7174763-2.2743218-1.0988012-.5953312-.7480126-.854511-1.83167195-.854511-3.20529971 0-2.7777918 1.4195583-4.04492114 3.0677602-4.04492114"/><path d="m39.4760379 1.06185489 1.174511-.48858044h.1991167v11.37135645h-1.3736277z"/><path d="m43.7347634 11.94453h1.3736278v-7.98258678h-1.3736278zm-.2135016-9.4632177h1.7705994v-1.44984227h-1.7705994z"/><path d="m47.1544732 4.63341325h1.1139432v-1.75495268c0-.549653 0-1.14473186.5953312-1.74031546.4885805-.48832807 1.1603786-.56479495 1.5724921-.56479495.3051105 0 .7934385.03028391 1.1750158.21375394v1.15987382c-.2135016-.10675079-.5037224-.24403786-.9153312-.24403786-.9920505 0-.9920505.80908518-.9920505 1.22145111v1.67873817h1.4036593v.91558359h-1.4036593v6.42599367h-1.4354574v-6.42599367h-1.1139432z"/><path d="m57.0149905 7.16741956c0-1.37362776-.5191167-2.39646688-1.6030284-2.39646688-.655899 0-1.1750157.39671924-1.4347003 1.00769716-.2440378.57968454-.2591798 1.11419559-.2745741 1.38876972zm1.3736278.93097792h-4.7318612c-.0146372 1.78574132.5037224 2.97615142 1.9232808 2.97615142.9312302 0 1.3743848-.4423975 1.6184227-.6712934l.7934385.732366c-.5191168.4580441-1.1449843 1.0076971-2.5950789 1.0076971-1.8465615 0-3.1442271-1.4657413-3.1442271-3.96870661 0-4.05981073 2.4118612-4.39596215 3.1293375-4.39596215 1.9232808 0 2.9456151 1.63331231 2.9915457 3.58687697z"/></g></g></svg>