<svg height="16" viewBox="0 0 74 16" width="74" xmlns="http://www.w3.org/2000/svg" xmlns:xlink="http://www.w3.org/1999/xlink"><mask id="a" fill="#fff"><path d="m.18.045h70.172v13.259h-70.172z" fill="#fff" fill-rule="evenodd"/></mask><mask id="b" fill="#fff"><path d="m.038.047h19.408v2.476h-19.408z" fill="#fff" fill-rule="evenodd"/></mask><mask id="c" fill="#fff"><path d="m0 15.933h73.926v-15.723h-73.926z" fill="#fff" fill-rule="evenodd"/></mask><g fill="none" fill-rule="evenodd"><path d="m70.352 4.202-5.51 7.611h5.457v1.273h-7.65v-.463l5.51-7.577h-4.99v-1.273h7.183zm-8.019 8.884h-2.092l-4.11-4.473h-.038v4.473h-1.493v-13.041h1.493v7.993h.038l3.908-4.265h1.956l-4.318 4.492zm-11.253.199a1 1 0 0 0 .73-.298.989.989 0 0 0 .297-.72c0-.28-.099-.519-.298-.724a.995.995 0 0 0 -.73-.304.966.966 0 0 0 -.713.304 1.012 1.012 0 0 0 -.295.724c0 .28.1.518.295.72a.97.97 0 0 0 .714.298zm-50.9-.199v-13.041h3.601c4.595 0 6.895 2.117 6.895 6.357 0 2.012-.64 3.63-1.915 4.853-1.276 1.22-2.983 1.831-5.125 1.831h-3.456zm1.528-11.66v10.279h1.946c1.71 0 3.04-.46 3.992-1.376.954-.915 1.429-2.213 1.429-3.892 0-3.34-1.776-5.01-5.33-5.01h-2.038zm26.505 11.232c-.714.431-1.565.646-2.546.646-1.329 0-2.4-.432-3.216-1.295-.814-.863-1.223-1.984-1.223-3.362 0-1.534.44-2.766 1.32-3.697.878-.929 2.051-1.394 3.52-1.394.82 0 1.54.152 2.163.453v1.527c-.692-.484-1.43-.726-2.22-.726-.95 0-1.732.341-2.34 1.024-.608.68-.916 1.577-.916 2.686 0 1.092.289 1.952.86 2.582.574.63 1.341.947 2.307.947.813 0 1.577-.27 2.29-.81v1.419zm6.352.338c-.35.193-.816.289-1.39.289-1.633 0-2.446-.91-2.446-2.726v-5.513h-1.602v-1.273h1.602v-2.272l1.49-.485v2.757h2.346v1.273h-2.345v5.25c0 .623.105 1.067.32 1.334.21.267.561.4 1.052.4.378 0 .701-.102.974-.307v1.273zm5.293.308c-1.375 0-2.474-.435-3.297-1.304-.82-.87-1.233-2.024-1.233-3.462 0-1.564.429-2.784 1.283-3.666.856-.879 2.011-1.316 3.467-1.316 1.388 0 2.471.425 3.25 1.282.78.854 1.168 2.04 1.168 3.554 0 1.487-.42 2.676-1.258 3.57-.84.895-1.968 1.342-3.38 1.342zm.108-8.494c-.956 0-1.713.326-2.272.978s-.838 1.549-.838 2.698c0 1.102.282 1.97.847 2.607s1.32.956 2.263.956c.966 0 1.708-.313 2.226-.937.519-.624.776-1.512.776-2.664 0-1.164-.257-2.061-.776-2.691-.518-.63-1.26-.947-2.226-.947zm10.438.472c-.26-.199-.636-.298-1.126-.298-.64 0-1.17.298-1.6.9-.425.6-.639 1.419-.639 2.456v4.746h-1.493v-9.313h1.493v1.919h.037c.212-.655.534-1.165.972-1.53.438-.37.925-.554 1.465-.554.389 0 .683.044.891.128z" fill="#555" mask="url(#a)" transform="translate(3.574 .166)"/><g fill="#2fc0d7"><path d="m1.5 3.321a1.47 1.47 0 0 1 -1.065-.426c-.29-.28-.435-.638-.435-1.073 0-.436.145-.799.435-1.084a1.46 1.46 0 0 1 1.065-.435c.426 0 .789.145 1.084.435.3.285.45.648.45 1.084 0 .415-.15.769-.45 1.059-.295.295-.658.44-1.084.44m16.171 2.035c-2.893.756-1.526 6.902 1.12 6.902h1.258c2.645 0 4.013-6.146 1.12-6.902a.512.512 0 0 1 -.475.322h-.267c-.28 0-.51-.23-.51-.51v-.988c0-.28.23-.51.51-.51h.267c.246 0 .453.176.5.408 4.647.323 2.803 9.391-.926 9.391h-1.696c-3.73 0-5.574-9.068-.927-9.391a.512.512 0 0 1 .5-.408h.267c.281 0 .51.23.51.51v.988c0 .28-.229.51-.51.51h-.267a.512.512 0 0 1 -.474-.322"/><path d="m.038.047a2.75 2.75 0 0 0 2.728 2.476h13.952a2.75 2.75 0 0 0 2.728-2.476h-1.346a1.413 1.413 0 0 1 -1.382 1.142h-13.952a1.413 1.413 0 0 1 -1.382-1.142z" mask="url(#b)" transform="translate(.84 13.41)"/><path d="m.879 13.456h1.346v-9.518h-1.346z" mask="url(#c)"/></g></g></svg>