<svg height="16" viewBox="0 0 85 16" width="85" xmlns="http://www.w3.org/2000/svg" xmlns:xlink="http://www.w3.org/1999/xlink"><mask id="a" fill="#fff"><path d="m32.5148235 10.8427294v-10.65788234h-31.69468232v10.65788234z" fill="#fff" fill-rule="evenodd"/></mask><mask id="b" fill="#fff"><path d="m14.1912471.87152941h-14.19105886v14.18691769h14.19105886z" fill="#fff" fill-rule="evenodd"/></mask><g fill="none" fill-rule="evenodd"><path d="m50.1692235 9.11395765c0-.79435294-.1807059-1.42305883-.5327059-1.88611765-.357647-.46682353-.8451764-.69458824-1.4569411-.69458824-.6136471 0-1.0955294.22776471-1.4550589.69458824-.3538823.46305882-.5327058 1.09176471-.5327058 1.88611765s.1788235 1.42305885.5327058 1.88988235c.3595295.4630588.8414118.6908235 1.4550589.6908235.6117647 0 1.0992941-.2277647 1.4569411-.6908235.352-.4668235.5327059-1.09552941.5327059-1.88988235zm1.312 0c0 .55905882-.0847059 1.06164705-.2428235 1.51529415-.1618824.4517647-.3934118.837647-.6832941 1.1614117-.2936471.3237647-.6437647.5741177-1.0484706.7491765-.4065882.1769412-.8451765.2691765-1.3270588.2691765-.4781177 0-.9185883-.0922353-1.3270589-.2691765-.4047058-.1750588-.7567058-.4254118-1.0428235-.7491765-.2955294-.3237647-.5232941-.709647-.6851765-1.1614117-.165647-.4536471-.2465882-.95623533-.2465882-1.51529415 0-.55152941.0809412-1.0522353.2465882-1.50776471.1618824-.45552941.3896471-.84517647.6851765-1.17270588.2861177-.32.6381177-.57411765 1.0428235-.74917647.4084706-.17317647.8489412-.26164706 1.3270589-.26164706.4818823 0 .9204706.08847059 1.3270588.26164706.4047059.17505882.7548235.42917647 1.0484706.74917647.2898823.32752941.5214117.71717647.6832941 1.17270588.1581176.45552941.2428235.9562353.2428235 1.50776471zm-8.7943529 3.67999995c-.5684706 0-1.0691765-.0922352-1.4927059-.2710588-.4329412-.1807059-.7887059-.4348235-1.0842353-.7585882-.293647-.3275294-.5101176-.7096471-.6569412-1.1576471-.1449411-.4404706-.2145882-.93741174-.2145882-1.47764703s.0734118-1.04094118.2352941-1.48894118c.1581177-.448.3802353-.83952941.6701177-1.16894117.2898823-.32752941.6437647-.58917647 1.061647-.77552941.4197647-.18070589.8828236-.27294118 1.3967059-.27294118.3162353 0 .6362353.03011765.9487059.08094118.3162353.05458823.6174118.13929411.9054118.25788235l-.2842353 1.06541176c-.1901177-.08847058-.4065883-.16188235-.6531765-.21270588-.250353-.05458823-.512-.08094118-.7905882-.08094118-.7058824 0-1.242353.2202353-1.6169412.66070589-.3764706.44235294-.5628236 1.08611764-.5628236 1.93505882 0 .37835294.0432942.72847059.128 1.04094113.0847059.3162353.224.5835295.4047059.8112942.1844706.224.4216471.3971764.7134118.5232941.2861176.1167059.64.1788235 1.0503529.1788235.3350589 0 .64-.0282353.9091765-.096.2710588-.0621176.4818824-.1317647.6362353-.2014118l.1750588 1.056c-.0734117.0432942-.1750588.0865883-.3124706.1242353-.1355294.0432942-.2861176.0809412-.4630588.1110589-.165647.032-.3482353.0621176-.544.0809411-.1938823.0207059-.3783529.0357647-.5590588.0357647zm-5.6715294-3.67999995c0-.79435294-.1807059-1.42305883-.5364706-1.88611765-.3501177-.46682353-.8357647-.69458824-1.4494118-.69458824-.613647 0-1.0992941.22776471-1.4550588.69458824-.3576471.46305882-.5383529 1.09176471-.5383529 1.88611765s.1807058 1.42305885.5383529 1.88988235c.3557647.4630588.8414118.6908235 1.4550588.6908235.6136471 0 1.0992941-.2277647 1.4494118-.6908235.3557647-.4668235.5364706-1.09552941.5364706-1.88988235zm1.312 0c0 .55905882-.0809412 1.06164705-.2428236 1.51529415-.165647.4517647-.3934117.837647-.6832941 1.1614117-.293647.3237647-.6437647.5741177-1.0522353.7491765-.4009411.1769412-.8451764.2691765-1.3195294.2691765-.4818823 0-.9185882-.0922353-1.3270588-.2691765-.4084706-.1750588-.7529412-.4254118-1.0484706-.7491765-.293647-.3237647-.5214118-.709647-.6795294-1.1614117-.1656471-.4536471-.2503529-.95623533-.2503529-1.51529415 0-.55152941.0847058-1.0522353.2503529-1.50776471.1581176-.45552941.3858824-.84517647.6795294-1.17270588.2955294-.32.64-.57411765 1.0484706-.74917647.4084706-.17317647.8451765-.26164706 1.3270588-.26164706.474353 0 .9185883.08847059 1.3195294.26164706.4084706.17505882.7585883.42917647 1.0522353.74917647.2898824.32752941.5176471.71717647.6832941 1.17270588.1618824.45552941.2428236.9562353.2428236 1.50776471zm-13.4588236 3.51435295v-10.27576472l1.2574118-.21647059v3.59905883c.2315294-.0922353.4837647-.16188236.7454118-.21270588.2729412-.04894118.5364706-.06964706.7943529-.06964706.5552941 0 1.0221177.07717647 1.3929412.23152941.3708235.16188235.6663529.38211765.8865882.66447059.2202353.288.378353.62494117.4668236 1.02211764.0884705.39717647.1317647.83576471.1317647 1.31011765v3.94729413h-1.2536471v-3.67623531c0-.43294117-.0282353-.80188235-.0884706-1.11058823-.0545882-.30494118-.1543529-.55529412-.2898823-.74164706-.1355294-.192-.32-.32752941-.544-.41223529-.224-.08847059-.5044706-.128-.8376471-.128-.1336471 0-.2767059.00564705-.4197647.02447058-.1430588.02258824-.2785882.04141177-.4122353.06211765-.128.02258824-.2465882.04894118-.352.07529412-.0997647.02447059-.1769412.05082353-.2202353.06964706v5.83717648zm-3.8061176.2032941c-.6588235 0-1.2574118-.1072941-1.7976471-.3237647-.5402353-.2183529-1.0070588-.5308235-1.3929411-.9449412-.3896471-.416-.6870589-.9261176-.8978824-1.5341176-.2127059-.60988238-.32-1.30823532-.32-2.09129414s.1185882-1.48141177.3576471-2.08752941c.2390588-.608.5590588-1.12188236.965647-1.53788236.4047059-.41223529.8828236-.72847058 1.4230589-.94494117.5402352-.21647059 1.1181176-.32376471 1.728-.32376471.389647 0 .7397647.02635294 1.0484705.08094118.3087059.05270588.5835295.11858823.8094118.18823529.2315294.07341177.4216471.14305883.5647059.21647059.1449412.07341177.2428235.12988235.2955294.16188235l-.3764706 1.08047059c-.0809412-.05458823-.197647-.10917647-.352-.16752941-.1505882-.07152941-.3275294-.13364706-.517647-.19576471-.1957648-.06588235-.4084706-.11482353-.64-.15435294-.2277648-.04141176-.4574118-.06211764-.6945883-.06211764-.4931765 0-.9411765.08470588-1.3345882.256-.4009412.17317647-.7397647.4197647-1.018353.74352941-.2767058.3237647-.4931764.72094117-.6437647 1.1877647-.1468235.46305883-.2164706.98070589-.2164706 1.55858824 0 .55905882.058353 1.06917647.1901177 1.52847059.1317647.46117647.3275294.85458825.5929412 1.18023525.256.3312942.5872941.5854118.9769411.7661177.3934118.1825882.8489412.2710588 1.3722353.2710588.602353 0 1.1011765-.0658823 1.498353-.1863529.3971765-.1298824.7002353-.2428236.8941176-.3388236l.3388236 1.0804706c-.0621177.0451765-.1769412.0997647-.3388236.1694118-.1581176.0658823-.3632941.1317647-.6098823.192-.2390588.0658823-.5251765.1204706-.8489412.1637647-.3237647.0451765-.6814118.0677647-1.056.0677647z" fill="#ff911b"/><path d="m32.3382588 10.8126118c-.7755294-.0188236-1.3270588-.1844706-1.6545882-.5007059-.32-.31247061-.4856471-.80752943-.4856471-1.47388237v-8.43670588l1.2574118-.21647059v8.4517647c0 .20517648.0188235.37835295.0564706.51388236.0357647.13364706.0941176.24282353.1712941.3237647.0847059.08094118.192.14305883.3275294.18447059.1355294.03952941.3049412.07341177.5044706.09788235zm-4.7642353-4.32376474c.0075294-.57411765-.1392941-1.04094118-.4272941-1.4042353-.293647-.36329411-.6983529-.544-1.2122353-.544-.288 0-.5402353.05458824-.7623529.16564706-.224.11294118-.410353.26164706-.5609412.44047059-.1543529.18070588-.2729412.38588235-.3576471.62117647-.0884705.23905883-.1430588.47435294-.1731764.72094118zm-4.832.68705882c0-.62494117.0922353-1.16517647.2729412-1.62823529.1807059-.46682353.4197647-.85270588.7171765-1.15764706.293647-.30494118.6362353-.53647059 1.0258823-.68705882.3858824-.15435295.7868236-.23152942 1.1896471-.23152942.9449412 0 1.669647.29364706 2.1778823.88094118.5025883.59670588.7567059 1.49270588.7567059 2.70305882v.20517647c0 .08847059-.0037647.16564706-.0150588.23905883h-4.8112941c.0545882.72847059.2672941 1.28752941.6362353 1.66588235.3708235.37835294.9468235.56658824 1.7298823.56658824.442353 0 .8131765-.04141177 1.114353-.11482353.3049411-.07717647.5289411-.15058824.6832941-.224l.1769412 1.05599995c-.1505883.0809412-.4216471.1656471-.8037647.2522353-.384.0922353-.8207059.1411765-1.306353.1411765-.6098823 0-1.1425882-.096-1.5887059-.2804706-.4442353-.1825882-.8112941-.4367059-1.0992941-.76047056-.2898823-.32752942-.5063529-.71341177-.6418823-1.15764706-.1449412-.44611765-.2145883-.93741177-.2145883-1.4682353zm-.2465882-3.52941176c-.352 1.31764706-.7642353 2.57694117-1.2385882 3.78729412-.474353 1.20658823-.9298824 2.29082352-1.370353 3.24329416h-1.1331765c-.4442352-.95247064-.9035294-2.03670593-1.3741176-3.24329416-.4743529-1.21035295-.8865882-2.46964706-1.2367059-3.78729412h1.3496471c.1110588.44235294.2352941.91294117.3821176 1.4117647.1505883.50070589.3068236.99764706.474353 1.48894118.1694117.49317647.3388235.96752941.5044706 1.42682353.1769411.45929412.3425882.86776471.4931764 1.23105882.1505883-.36329411.3162353-.7717647.4837647-1.23105882.1731765-.45929412.3425883-.93364706.512-1.42682353.1618824-.49129412.32-.98823529.4705883-1.48894118.1468235-.49882353.2785882-.96941176.3821176-1.4117647zm-9.6018824-.17505883c.5025883 0 .9261177.06588236 1.2724706.19388236.3482353.1317647.6287059.31623529.8376471.55529411.2127059.23905883.3670588.52141177.4517647.84894118.0922353.33505882.1392941.69458824.1392941 1.09176471v4.39341175c-.1054118.0188235-.2597647.0451765-.4517647.0734118-.1938823.0338823-.4122353.064-.6569412.0884706-.2465882.0301176-.5044706.0564706-.7905882.0771764-.2842353.0225883-.5665882.0338824-.8470588.0338824-.3934118 0-.7604706-.0414118-1.0955294-.1261177-.3294118-.0771764-.6211765-.2051764-.864-.3858823-.2409412-.1712941-.4329412-.40470589-.5684706-.69082354-.1336471-.28988235-.2032941-.6362353-.2032941-1.04470588 0-.38588236.0809411-.71905883.2390588-.99952942.1581176-.27858823.3727059-.50635294.64-.672.2729412-.17317647.5854117-.30117647.9449412-.37835294.3632941-.08470588.7397647-.12611764 1.1407058-.12611764.1242353 0 .2522353.00752941.3896471.01882353.1355294.01505882.2597647.0357647.3858823.05458823.1242353.02258824.2277648.04517647.3162353.0602353.090353.02070588.154353.0357647.1901177.04329411v-.35388235c0-.20517647-.0225882-.41035294-.0696471-.61364706-.0432941-.20141176-.1204706-.38211765-.2390588-.544-.1167059-.15811765-.2748235-.27858823-.4818823-.37458823-.2014118-.096-.4668236-.13929412-.7905883-.13929412-.4141176 0-.7755294.02447059-1.088.08470588-.3124706.05835294-.544.12047059-.6983529.17882353l-.1468236-1.03529412c.1581177-.07341176.4291765-.14494117.8094118-.21458823.378353-.06588236.794353-.09788236 1.2348235-.09788236zm.1035295 6.3002353c.3011764 0 .5609411-.00752941.7905882-.02070588.2315294-.01129412.421647-.03764706.576-.07529412v-2.09505883c-.0922353-.04329411-.2352941-.08470588-.4404706-.11294117-.2032941-.03011765-.448-.04894118-.736-.04894118-.1901176 0-.3896471.01505883-.6023529.04141177-.2089412.02447058-.4009412.08470588-.5778824.16941176s-.3275294.20141177-.4442353.352c-.1148235.14305882-.1769412.34258824-.1769412.58917647 0 .448.1468236.76047059.4385883.94117647.2861176.17505883.6795294.25976471 1.1727059.25976471zm-4.53458828-6.272c.11105882 0 .23152941.0037647.37270588.01882353.14305882.01129412.27858824.03011764.41035294.05082353.14117647.02258823.26164706.04894117.37647059.06964706.10917647.02258823.19388235.04141176.24470588.064l-.21647059 1.0917647c-.096-.03388235-.256-.07717647-.48941176-.12611765-.23152941-.05082352-.52517647-.07341176-.88470588-.07341176-.23152942 0-.46682353.02258824-.69458824.07341176-.23152941.04894118-.38211765.08094118-.45741176.09976471v5.90870593h-1.25741177v-6.73505887c.29929412-.10729412.67011765-.21082353 1.11058824-.30305882.44235294-.09411765.93741176-.13929412 1.48517647-.13929412zm-6.38494118.14682353h2.66164706v1.05223529h-2.66164706v3.24705883c0 .3557647.02635294.64564705.08094118.86964705.05458823.23529412.13552941.4122353.23905882.54588236.11294118.128.25035294.224.40847059.27482353.16376471.05458823.34823529.08094117.56847059.08094117.37835294 0 .68517647-.04141176.91294117-.128.23152942-.08470588.38964706-.14870588.48188236-.18447059l.23717647 1.04470584c-.12047059.0621177-.34447059.1392942-.65694118.2390589-.31247059.0903529-.67952941.1392941-1.08047059.1392941-.48188235 0-.87152941-.0621177-1.184-.1844706-.31247059-.1204706-.56282353-.3049412-.75482353-.5477647-.18635294-.24282354-.32-.54400001-.39341176-.89976471-.08094118-.35388235-.11670588-.76988235-.11670588-1.24047059v-6.26823529l1.25741176-.21647059z" fill="#0c86c3" mask="url(#a)" transform="translate(51.882353 1.952169)"/><path d="m14.1912471 3.23538824c0-1.30447059-1.0578824-2.3642353-2.3717647-2.3642353h-9.45505887c-1.30258824 0-2.36423529 1.05976471-2.36423529 2.3642353v.0037647 9.45129416.0037647c0 1.3063529 1.06164705 2.3642353 2.36423529 2.3642353h9.45505887c1.3138823 0 2.3717647-1.0578824 2.3717647-2.3642353z" fill="#007fbf" mask="url(#b)" transform="translate(0 .069816)"/><path d="m10.4192 7.64346353c-.1148235-.11482353-.3011765-.11482353-.41976471 0l-.08094117.08470588-.1242353-1.12941176c1.45505878-1.45505883 2.15152938-2.44705883 1.67341178-2.92141177-.4668235-.46682353-1.47200001.21270588-2.93082354 1.67152941l-1.13317647-.1317647.08094117-.08470588c.11858824-.11670589.11858824-.30494118 0-.41976471l-.20894117-.21270588c-.11294118-.11294118-.30117647-.11294118-.41976471 0l-.58352941.59294117-3.93788235-.45364705c-.02258824-.00376471-.03952941-.00752942-.06588236-.00752942-.08094117 0-.15435294.03388236-.20517647.08847059l-.21082353.21082353c-.11670588.11294118-.11670588.30494118 0 .41788235.03764706.03764706.08470589.06211765.13552942.07717647l4.66635294 1.80141177c-.03011765.03011765-.05082353.06588235-.06588236.10729412v.0037647c-.11105882.34447059-1.80894117 2.18729412-1.80894117 2.18729412l-.01129412.00752941-1.856-.10352941h-.00752941c-.07717647.00376471-.15058824.03388235-.21082353.08847059l-.21270588.22023529c-.11670589.11858824-.11670589.30117645 0 .41976475.03764706.0357647.08847059.0658823.13552941.0771764v.0037647l1.42305882.4404706-.10164706.1035294h.00752942c-.0602353.0508236-.0922353.128-.0922353.2089412 0 .1618824.13176471.2955294.29741177.2955294.08094117 0 .15811764-.0338823.20141176-.0847059l.10729412-.1035294.44423529 1.4268236v-.0037647c.01505883.0508235.04141177.0997647.08094118.1392941.11482353.1185882.30117647.1185882.416 0l.22023529-.2164706h-.0037647c.05835294-.0658824.08470588-.1430588.07717647-.2202353h.0037647l-.09223529-1.8541177.00752941-.0037647s1.83905882-1.70164702 2.19105882-1.81270585c.04141177-.01694117.08094118-.03952941.10729412-.06964706l1.80141177 4.66635291c.01129411.0508236.03952941.0997647.08094117.1392942.11482353.1148235.30117648.1148235.41599998 0l.2089412-.2089412c.0545882-.0564706.0922353-.1298824.0922353-.2108236 0-.0207058-.0037647-.0432941-.0112941-.0621176l-.4517647-3.95482353.5835294-.58164706c.1148235-.11858823.1185882-.30117647 0-.416z" fill="#f3f3f3"/></g></svg>