<svg height="16" viewBox="0 0 85 16" width="85" xmlns="http://www.w3.org/2000/svg"><g fill="#e64c43" fill-rule="evenodd"><g transform="translate(61.219251)"><path d="m.48132573 7.27600353c-.07960875-.25817087-.40059271-.45598657-.41543116-.6921501-.1642016-2.71272864.04797463-4.83715359.65728429-6.1808984.18249931-.40111615.75077565-.64865887.74335642.06128827-.10238988 2.23548576-.12960888 4.49641537-.07815222 6.78331228.15480239.1382343.13700535.36945927-.00345927.50769357.03855267 2.52403905.16615881 5.00406345.30760204 7.47792025.05343664.9550092-1.55394105.8103571-1.4876687-.1033457.1736008-2.3969791.37241786-4.8238172.3808157-7.36963599-.21611342-.13006404-.23391046-.29451598-.1043471-.48418418" transform="translate(21.779754 .008671)"/><path d="m1.81959032.15515059c-.00989988-.13996393-.04747394-.14886245-.0880521-.1515707-.05093322.00195722-.09396929.02200734-.09396929.18593583l-.06231239 3.31115981c.0009786.20475699-.04451536.26361012-.12314551.25741984-.07762878.00619028-.12364619-.05266285-.1231455-.25741984l-.06281309-3.31115981c-.0024579-.16392849-.04251262-.18397861-.07319089-.18645927-.0311562.00248066-.07419227.02253078-.07371434.18645927l-.06279033 3.31115981c.00097861.20475699-.04549396.26361012-.1231455.25741984-.07812946.00619028-.12414687-.05266285-.12316826-.25741984l-.06279033-3.31115981c-.00345927-.16392849-.04203469-.18397861-.07369158-.18645927-.03117896.00248066-.07369158.02253078-.07319089.18645927l-.06331377 3.31115981c.00097861.20475699-.04499329.26361012-.12266758.25741984-.07863015.00619028-.12412412-.05266285-.12362343-.25741984l-.0623124-3.31115981c-.00295859-.16392849-.04253538-.18397861-.09299067-.18593583-.04153402.00270825-.07913083.01160677-.08850728.1515707l-.04701878 4.29732521c-.00689578.9105166.74237782.73518617.74581433 1.63407325.01436053 3.01639348-.37339647 5.94425695-.6177075 8.90079595-.04599465.5551675.33434312.7789732.80516814.8749225.47082502-.0959493.85066211-.319755.80466745-.8749225-.24333242-2.956539-.63108941-5.88440247-.6177075-8.90079595.00395996-.89888708.75223219-.72355665.74629226-1.63407325z" transform="translate(0 .031429)"/><path d="m18.9733403 1.80163853c-1.2607678-1.42157841-3.0712411-1.46279381-3.3389477-1.46463724-2.3565148-.01609016-3.8084756 1.82107872-3.9492816 2.01386482-.1400777-.1927861-1.5133174-2.0165503-3.85804328-2.00046014-.26634113.00182067-2.06773387.04303607-3.32219762 1.46463723-1.2000485 1.35992601-1.08960216 3.06521018-1.0359607 3.89375115.16251747 2.50963301 1.61149695 4.22606878 2.92925171 5.78706495.97166833 1.151027 2.67929661 2.8844177 5.35841119 4.358181 2.6925874-1.4737633 4.3373799-3.2205587 5.3139413-4.3715629 1.3244002-1.56099619 2.7806623-3.27743196 2.9439991-5.78706496.0539145-.82856374.1649071-2.53384791-1.0411724-3.89377391"/></g><g transform="translate(0 3.850267)"><path d="m34.5860569 1.83467707c0-.08778312.0317241-.19123124.0957634-.31123106-.0721182-.03133001-.151921-.04788171-.2396056-.04788171-.3905413 0-.5861075.18778298-.5861075.5623637v.23930999c0 .15152687.0875861.2272903.2631523.2272903h.3588172c.4623639 0 .6940877.21527061.6940877.64610741 0 .44679737-.2195071.66985122-.6582257.66985122h-.3946792c-.1755662 0-.2631523.10325108-.2631523.30896506v2.38758265c0 .25359568.0040394.3919206.0118227.41546736.0240393.16640369.1078816.24975332.2513296.24975332.0317241 0 .1038422-.0049261.2154677-.01448273.0875861-.0142857.1792115-.02137928.2749749-.02137928.3747778 0 .5624623.21931002.5624623.65783153 0 .2232509-.0679802.4066989-.2036451.55054105-.1355663.14334954-.3070931.21527062-.5144819.21527062-.0158621 0-.2590144-.02403938-.7295556-.07192108-.1596057-.01605909-.3910339-.02384233-.6940876-.02384233-.3347779 0-.6061075.01201969-.8133978.03566497-.3425611.03990142-.5543835.06009844-.6337922.06009844-.223645 0-.4029551-.07369447-.5385214-.22118194-.1356648-.14788155-.2033494-.34098471-.2033494-.58049175 0-.44660032.1951721-.67004826.586206-.67004826.0639408 0 .1352707.01428569.2154677.04197038.0794087.02807878.1356648.04197038.1673889.04197038.1438421 0 .2155662-.2232509.2155662-.67014678v-2.38048907c0-.16758596-.0362562-.26325084-.1079802-.28709317-.0322167-.01615761-.0835467-.02403937-.1555663-.02403937h-.2867976c-.4228565 0-.6342847-.20719181-.6342847-.62206804 0-.46246236.2192115-.69389059.65793-.69389059h.2154677c.1352707 0 .2232509-.02197041.2631523-.06571419.0399014-.0438423.0635467-.14955643.0716255-.31714238.0240394-.55014697.2411819-.98492464.6518217-1.30393895.4109354-.31891578.9592104-.47881702 1.6456133-.47881702.5739893 0 1.0346783.1158619 1.3812787.34729013.3470931.2313297.5205904.53832432.5205904.92118089 0 .23911294-.0879802.43871856-.2631523.59812719-.1755663.15950715-.3946792.23911294-.6582256.23911294-.2150736 0-.3927088-.05763538-.532413-.17330023-.1393102-.11546781-.2089652-.26108336-.2089652-.4366496"/><path d="m38.6366912 3.84373812c-.3511325 0-.6280779.15379287-.8313288.46068897-.2037435.30719166-.3051227.72797921-.3051227 1.26236265 0 .54216668.1013792.96502319.3051227 1.26787988.2032509.30325078.4879796.45477765.8553682.45477765.7417723 0 1.1124121-.57438338 1.1124121-1.72265753 0-1.14866824-.3788171-1.72305162-1.1364515-1.72305162m.0480788 4.91703701c-.9894567 0-1.7528053-.27930993-2.2913267-.83733866-.5380287-.55822576-.8072894-1.3440374-.8072894-2.35664673 0-1.00512166.2671917-1.78866729.8015752-2.35073542.5340878-.56256074 1.2839389-.84364406 2.2489621-.84364406.9490626 0 1.6965492.27921141 2.2428538.83733865.5462061.55842282.8199003 1.32403744.8199003 2.2969424 0 1.0209837-.2655169 1.81832241-.7954668 2.39270579-.5308367.57418634-1.27054.86137803-2.2192085.86137803"/><path d="m45.4150063 3.84373812c-.3511325 0-.6280779.15379287-.8314274.46068897-.203645.30719166-.3050242.72797921-.3050242 1.26236265 0 .54216668.1013792.96502319.3050242 1.26787988.2033495.30325078.4884722.45477765.8554667.45477765.7417723 0 1.1124122-.57438338 1.1124122-1.72265753 0-1.14866824-.3788172-1.72305162-1.1364515-1.72305162m.0480787 4.91703701c-.9890626 0-1.7531994-.27930993-2.2913266-.83733866-.5381273-.55822576-.8072895-1.3440374-.8072895-2.35664673 0-1.00512166.2671917-1.78866729.8015752-2.35073542.5340879-.56256074 1.283939-.84364406 2.2489622-.84364406.9490626 0 1.6965491.27921141 2.2432478.83733865.5462061.55842282.8191121 1.32403744.8191121 2.2969424 0 1.0209837-.2647286 1.81832241-.7950727 2.39270579-.5308366.57418634-1.2701459.86137803-2.2192085.86137803"/><path d="m52.0976564 3.7962505c-.295369 0-.5364524.13970423-.7234472.41871859-.187783.27930993-.2936941.6581271-.3173394 1.13674708v.15536922c0 .48660026.0936944.86925979.2810833 1.1484712s.4407875.41852154.7597033.41852154c.3511325 0 .6358611-.15132982.8553682-.45438356.2196056-.30325078.3291621-.70610732.3291621-1.20856962 0-.48610765-.1075861-.87694451-.3230538-1.17231353-.2154676-.29487641-.5026593-.44256092-.8614765-.44256092m-.4187186-1.50718987c.6061075 0 1.1641362.23507354 1.6749729.70571323v-.86147654c0-.28699465-.0998028-.43054124-.2990143-.43054124-.0480788 0-.1438422.00807881-.2871917.02384233-.1038422.03211818-.2076845.04778318-.3112311.04778318-.1515269 0-.2790144-.0635467-.3828566-.19142828-.1038422-.12729045-.1551722-.28699465-.1551722-.47822589 0-.51054111.2708371-.76581167.8133978-.76581167.1751722 0 .3030538.00413793.3829551.01182264.3185217.03221671.5339894.04788171.6460089.04788171.1034482 0 .2545809-.00995073.4545806-.0299507.1992116-.01990145.346699-.02975365.4423639-.02975365.1992115 0 .3369453.04610831.4127088.13832492.0752708.09231513.1139899.26256118.1139899.51142781v5.4722086c0 .4089649.0757635.61320105.2272903.61320105.0476847 0 .1075861-.01665022.1793101-.05004918.0475861-.02246302.1115269-.03359601.1910342-.03359601.3429552 0 .5147776.20325093.5147776.60994983 0 .24748731-.0598029.44866928-.1796057.60433407-.1197042.15517219-.2790143.23339867-.47862.23339867h-.071724l-.4187186-.07192107c-.0956649-.01605909-.2313297-.02384233-.4065018-.02384233-.207783 0-.3792113.00778324-.514482.02384233-.1996056.02384233-.3070932.03586201-.3230537.03586201-.2471918 0-.371034-.1436451-.371034-.43073827v-.44256092c-.4146791.70994968-1.0366487 1.06472748-1.866007 1.06472748-.7340876 0-1.337732-.30098478-1.8127067-.90324989-.4745806-.60187102-.7116245-1.36157433-.7116245-2.2791099 0-.9328065.2330045-1.68679552.6998019-2.26088334.4667973-.57438338 1.078619-.86118098 1.8363519-.86118098"/><path d="m3.60009316 8.67289349c-.53724058 0-1.02689502-.08837426-1.46886481-.26492572-.44157569-.17684702-.82078695-.43448211-1.1373382-.77320082-.31645273-.33852166-.56167404-.75615651-.73438315-1.2532001-.17310319-.49714212-.259507-1.06581122-.259507-1.70630288 0-.64059018.09773384-1.20916076.29251188-1.70610583.1950736-.49684655.45862001-.91467844.78985104-1.2532001.33113251-.33871871.71773292-.59655084 1.1592101-.77320082.44196978-.17655146.91290504-.26492572 1.41349543-.26492572.31655125 0 .60206807.02197041.85586079.06640385.25369421.04413786.47497466.09546783.66275764.154384.18778297.05881765.3404921.11793086.45822591.17655146.11773382.05931026.19881744.10344812.24315235.13261064l-.30955619.88354548c-.06600975-.04423638-.16167463-.09192104-.2867976-.1436451-.12541853-.05152702-.26719172-.10325108-.42522104-.15458105-.15842341-.05152702-.33123104-.09389149-.51901401-.12689637-.18768445-.03320192-.37753638-.04965509-.56857058-.04965509-.4049255 0-.76945698.06985211-1.09329886.20955633-.32423597.14009832-.60049172.34236403-.8285702.60758531-.22807848.26492571-.40325063.58719124-.52423567.96620545-.12137913.37921126-.18206869.8044323-.18206869 1.27536756 0 .45645252.05290632.87231397.15960567 1.24787992.10679787.3753689.26689615.6975359.48068894.96620546.21310313.26886659.48029485.4769451.80049142.62403847.32009804.14729043.69369355.22059081 1.12058946.22059081.49369385 0 .90177206-.05113293 1.22610655-.15438401.32374336-.10285699.56699423-.19487655.72866886-.27576313l.27615723.88305287c-.05172406.03694576-.14374363.0827585-.27615723.13832492-.13241359.05497528-.29773354.10857126-.49694507.15990124-.19881744.05132997-.43054123.0957634-.69536842.13261064-.26512276.03684723-.55231445.05517233-.86147655.05517233"/><path d="m7.11723078 8.5691498v-8.39240129l1.02728911-.17674851v2.93753257c.19152681-.07379299.39556591-.13083724.61270845-.17113275.21704401-.04049255.43251167-.06088661.64640297-.06088661.45625548 0 .83507269.06433488 1.13684559.19310316.3018715.12906385.5430534.30935915.7234472.54108294.1804924.23201936.3075858.5100485.3808861.83389038.0736945.32384189.1104432.68078717.1104432 1.07103289v3.22452722h-1.0269935v-3.00373937c0-.35310292-.0240394-.65517144-.0716255-.90551589-.0476847-.25004889-.1270934-.45251164-.2375366-.60728974-.1103447-.154384-.2574381-.26679763-.44147719-.33664974-.18413766-.06995064-.41231466-.10492596-.68472805-.10492596-.11044318 0-.22453168.00729063-.3422655.02216746-.1181279.01467978-.23054153.03123148-.33684679.04955658-.10669934.01852214-.20246275.03862063-.28758577.0608866-.08433485.02197042-.14502442.04029551-.18167461.05517234v4.77033772z"/><path d="m17.5355404 5.72600132c0-.6478808-.1454185-1.16108201-.4358614-1.54039179-.2912311-.37921126-.686797-.56876763-1.1873874-.56876763s-.8965504.18955637-1.1873874.56876763c-.290837.37930978-.4358614.89251099-.4358614 1.54039179 0 .64807786.1450244 1.16177167.4358614 1.54078589.290837.37921125.686797.5686691 1.1873874.5686691s.8961563-.18945785 1.1873874-.5686691c.2904429-.37901422.4358614-.89270803.4358614-1.54078589m1.0713284 0c0 .45684661-.0664038.86886571-.1988174 1.23694397-.1324136.3681768-.3185217.68472805-.5576346.94965376-.2395071.26502424-.5246298.46926039-.8558608.61280697-.3315266.14384215-.6920187.21536914-1.0822644.21536914-.3902458 0-.7507378-.07152699-1.0822644-.21536914-.3312311-.14354658-.6163538-.34778273-.8558608-.61280697-.2395071-.26492571-.4253196-.58147696-.5576347-.94965376-.1324136-.36807826-.1988174-.78009736-.1988174-1.23694397 0-.44886632.0664038-.85930906.1988174-1.23113117.1323151-.37152654.3181276-.69044232.5576347-.95526951.239507-.26512276.5246297-.46926039.8558608-.61300401.3315266-.14364511.6920186-.21527062 1.0822644-.21527062.3902457 0 .7507378.07162551 1.0822644.21527062.331231.14374362.6163537.34788125.8558608.61300401.2391129.26482719.425221.58374297.5576346.95526951.1324136.37182211.1988174.78226485.1988174 1.23113117"/><path d="m22.47307 8.72993774c-.4639402 0-.8704421-.07369447-1.2199982-.2209849-.3503443-.14729042-.6444325-.35339848-.883447-.61852124-.2396055-.26502424-.4179304-.57970357-.5356642-.94423505-.1177338-.36413739-.176847-.76748654-.176847-1.2093578 0-.4415757.0644334-.84610712.1931031-1.21428391.1287683-.36827531.3112311-.68659996.5466987-.95546656.2357632-.26866955.5246298-.47842293.8671909-.62935867.3421669-.15064016.7230531-.2264036 1.1425598-.2264036.2578322 0 .5152702.02216746.7731023.06640384.2574381.04394082.5043343.11398998.740196.20975339l-.2322164.87251101c-.154384-.07349743-.3332015-.13261064-.5356643-.17684703-.2024627-.04413786-.4179304-.06630532-.6460088-.06630532-.5739893 0-1.0142842.18059087-1.319801.54127999-.3055168.36049207-.4578319.88699375-.4578319 1.57871686 0 .30975323.0345813.59310256.1047289.85044208.0695566.25812769.1803939.47881702.3311326.66275763.1511327.18394062.3441374.3257138.5799991.42512252.2354676.09960577.5226593.14886678.861181.14886678.2721178 0 .5193095-.02571425.7400974-.07724127.2207878-.05113293.3934969-.10630526.519014-.16551699l.1433495.8612795c-.0591132.03704428-.1433495.07211812-.2537927.10492595-.1107387.03320193-.2358617.06246297-.3755659.08837426-.1400983.02581277-.2887681.0478817-.44729.06640384-.1584234.01812805-.3107385.02768469-.4582259.02768469"/><path d="m29.0586759 5.72600132c0-.6478808-.1454185-1.16108201-.4362555-1.54039179-.290837-.37921126-.6864029-.56876763-1.1869933-.56876763s-.8965504.18955637-1.1873874.56876763c-.290837.37930978-.4362555.89251099-.4362555 1.54039179 0 .64807786.1454185 1.16177167.4362555 1.54078589.290837.37921125.686797.5686691 1.1873874.5686691s.8961563-.18945785 1.1869933-.5686691c.290837-.37901422.4362555-.89270803.4362555-1.54078589m1.0713285 0c0 .45684661-.0664039.86886571-.1988175 1.23694397-.1328076.3681768-.3185216.68472805-.5576346.94965376-.239507.26502424-.5246297.46926039-.8562549.61280697-.3311325.14384215-.6920186.21536914-1.0818703.21536914-.3902457 0-.7511319-.07152699-1.0822644-.21536914-.3316251-.14354658-.6167478-.34778273-.8558608-.61280697-.2391129-.26492571-.425221-.58147696-.5576346-.94965376-.1328077-.36807826-.1988174-.78009736-.1988174-1.23694397 0-.44886632.0660097-.85930906.1988174-1.23113117.1324136-.37152654.3185217-.69044232.5576346-.95526951.239113-.26512276.5242357-.46926039.8558608-.61300401.3311325-.14364511.6920187-.21527062 1.0822644-.21527062.3898517 0 .7507378.07162551 1.0818703.21527062.3316252.14374362.6167479.34788125.8562549.61300401.239113.26482719.424827.58374297.5576346.95526951.1324136.37182211.1988175.78226485.1988175 1.23113117"/></g></g></svg>