<svg width="60" height="20" viewBox="0 0 60 20" fill="none" xmlns="http://www.w3.org/2000/svg">
<path d="M24.0244 0.332764L20.9751 19.7093H25.852L28.9038 0.332764H24.0244Z" fill="white" fill-opacity="0.5"/>
<path d="M16.8859 0.354478L12.1094 13.5687L11.6001 11.5735C10.6581 9.16942 7.98385 5.71679 4.84424 3.54089L9.21184 19.6998L14.3722 19.6903L22.0525 0.350403L16.8859 0.354478Z" fill="white" fill-opacity="0.5"/>
<path d="M9.74872 1.74125C9.46524 0.560942 8.64364 0.209158 7.62387 0.167053H0.0627169L0 0.552792C5.8841 2.09846 9.77756 5.82274 11.3932 10.3008L9.74872 1.74125Z" fill="white" fill-opacity="0.5"/>
<path d="M38.7879 4.04754C40.3834 4.02037 41.5399 4.39796 42.438 4.78913L42.8783 5.01324L43.538 0.813581C42.5722 0.421051 41.0582 0 39.1692 0C34.35 0 30.9533 2.62818 30.9269 6.39457C30.8956 9.17759 33.3466 10.7314 35.198 11.6591C37.0983 12.6098 37.7355 13.2143 37.7267 14.0632C37.7116 15.3603 36.2115 15.9552 34.8104 15.9552C32.8574 15.9552 31.82 15.6632 30.2182 14.9406L29.5898 14.6309L28.9037 18.9677C30.0451 19.5097 32.1512 19.9756 34.3375 20C39.464 20 42.7955 17.4031 42.8306 13.3786C42.8519 11.1769 41.5512 9.49677 38.7327 8.11817C37.0268 7.21901 35.9832 6.62139 35.9932 5.71409C35.9932 4.90866 36.8788 4.04754 38.7879 4.04754Z" fill="white" fill-opacity="0.5"/>
<path d="M56.0538 0.354492H52.2858C51.1155 0.354492 50.2449 0.699484 49.7307 1.96264L42.4894 19.7202H47.6108C47.6108 19.7202 48.4462 17.3324 48.6356 16.8095C49.1963 16.8095 54.1723 16.8177 54.881 16.8177C55.0265 17.4941 55.4755 19.7202 55.4755 19.7202H59.9999L56.0538 0.354492ZM50.0392 12.8435C50.4406 11.7311 51.9822 7.42818 51.9822 7.42818C51.9559 7.48115 52.3798 6.30763 52.632 5.57826L52.9606 7.24889C52.9606 7.24889 53.8951 11.875 54.0908 12.8435H50.0392Z" fill="white" fill-opacity="0.5"/>
</svg>
