<svg xmlns="http://www.w3.org/2000/svg" width="51" height="50">
    <path fill="none" d="M.145-.006h49.974v49.938H.145V-.006z"/>
    <path fill="#FFF" fill-rule="evenodd" d="M50.02 41.824l-1.893 3.962a.869.869 0 0 1-.457.43l-8.934 3.65a.881.881 0 0 1-.776-.054l-3.979-2.322-.339-.2C22.287 40.575 10.573 28.957 3.801 17.693c-.068-.112-.136-.224-.202-.337l-2.338-3.942a.859.859 0 0 1-.055-.769l3.679-8.863a.872.872 0 0 1 .434-.453l3.996-1.876a.878.878 0 0 1 1.1.302l1.011 1.503a.428.428 0 0 1 .026.042l6.952 10.341a.86.86 0 0 1-.015.983l-4.331 6.04c1.728 2.888 4.33 6.111 7.379 9.136 3.05 3.024 6.3 5.605 9.212 7.318l6.091-4.294a.88.88 0 0 1 .99-.015l11.985 7.923a.862.862 0 0 1 .305 1.092zm-35.115-25.33l1.712-2.388L9.972 4.22a.494.494 0 0 1-.027-.042l-.565-.839L6.972 4.47l7.933 12.024zm16.298 22.359a.877.877 0 0 1-.937.047c-3.164-1.78-6.738-4.577-10.064-7.875-3.325-3.299-6.145-6.843-7.941-9.981a.86.86 0 0 1 .048-.929l1.509-2.105L5.869 5.962l-2.883 6.944 2.121 3.575c.065.111.128.217.193.323l.001.002c6.635 11.035 18.111 22.417 29.237 28.998.11.065.218.129.326.191l3.607 2.105 7.002-2.86-12.148-7.883-2.122 1.496zm6.059-4.272l-2.408 1.698 12.123 7.867 1.141-2.387-10.856-7.178zm8.079-14.275a9.46 9.46 0 0 0-2.355 6.24v1.157a.87.87 0 0 1-.873.866.87.87 0 0 1-.873-.866v-1.157c0-2.711.988-5.332 2.783-7.377l1.642-1.871h-4.61a.87.87 0 0 1-.874-.866.87.87 0 0 1 .874-.866h6.528c.342 0 .653.198.795.507a.86.86 0 0 1-.136.927l-2.901 3.306zm-12.301.993a.876.876 0 0 1-1.235 0 .86.86 0 0 1 0-1.225L43.53 8.445a.877.877 0 0 1 1.235 0 .86.86 0 0 1 0 1.225L33.04 21.299zm5.09-12.007h-1.176v2.831a.87.87 0 0 1-.873.867.87.87 0 0 1-.874-.867V9.292H31.52a.874.874 0 0 1-.759-.438.861.861 0 0 1 .01-.872l4.56-7.574a.878.878 0 0 1 .982-.391.867.867 0 0 1 .641.835V7.56h1.176a.87.87 0 0 1 .873.866.87.87 0 0 1-.873.866zm-2.922-5.3L33.059 7.56h2.149V3.992zm-9.36 7.265h3.573a.87.87 0 0 1 .874.867.87.87 0 0 1-.874.866h-5.682a.875.875 0 0 1-.807-.535.863.863 0 0 1 .189-.944l3.674-3.643a5.877 5.877 0 0 0 1.753-4.198 1.963 1.963 0 0 0-1.968-1.952 1.962 1.962 0 0 0-1.967 1.952.87.87 0 0 1-.874.866.87.87 0 0 1-.873-.866c0-2.031 1.666-3.684 3.714-3.684s3.715 1.653 3.715 3.684a7.592 7.592 0 0 1-2.265 5.423l-2.182 2.164z"/>
</svg>
