<svg fill="none" height="21" viewBox="0 0 21 21" width="21" xmlns="http://www.w3.org/2000/svg" xmlns:xlink="http://www.w3.org/1999/xlink"><clipPath id="a"><path d="m.989746.260773h20v20h-20z"/></clipPath><g clip-path="url(#a)"><path clip-rule="evenodd" d="m8.72803.50798h.42953 3.39134.4295v.005593h.3203.0986c.2341 0 .4239.189792.4239.423912 0 .234125-.1898.423915-.4239.423915h-.0986-.3203v1.69567h-.8591v-1.69004h-2.53222v1.69004h-.85905v-1.69567h-.31906-.09862c-.23412 0-.42391-.18979-.42391-.423915 0-.23412.18979-.423912.42391-.423912h.09862.31906zm-3.38526 5.97405c0-1.42331 1.15383-2.57714 2.57715-2.57714h5.86748c1.4233 0 2.5771 1.15383 2.5771 2.57714v9.26997c0 .9489-.7692 1.7181-1.7181 1.7181h-7.58553c-.94888 0-1.7181-.7692-1.7181-1.7181zm3.39108 2.9337c0-.23412.18979-.42391.42391-.42391s.42392.18979.42392.42391v4.23917c0 .2341-.1898.4239-.42392.4239s-.42391-.1898-.42391-.4239zm3.81545-.42391c-.2341 0-.4239.18979-.4239.42391v4.23917c0 .2341.1898.4239.4239.4239s.4239-.1898.4239-.4239v-4.23917c0-.23412-.1898-.42391-.4239-.42391zm-4.66388 10.16268h.00002c.00021 0 .00223.0002.00461.0013.00197.0008.00292.0016.00331.002s.00122.0013.00205.0033c.00101.0024.00121.0044.00123.0046h.00001l-.00001.0001c-.00002.0002-.00022.0022-.00123.0046-.00083.0019-.00166.0029-.00205.0033s-.00134.0012-.00331.002c-.00238.001-.0044.0012-.00461.0013h-.00002c.00004 0-.00209-.0002-.00463-.0013l-.00219-.0011-.00111-.0009c-.00039-.0004-.00122-.0014-.00206-.0033-.00028-.0007-.00051-.0014-.00068-.0019-.00011-.0004-.0002-.0008-.00027-.0011l-.00028-.0016v-.0001c.00002-.0002.00023-.0022.00123-.0046.00084-.002.00167-.0029.00206-.0033s.00134-.0012.0033-.002c.00238-.0011.0044-.0013.00462-.0013zm-.84782.0112c0-.4682.37958-.8478.84782-.8478s.84783.3796.84783.8478c0 .4683-.37959.8479-.84783.8479s-.84782-.3796-.84782-.8479zm6.7835-.0112c.0002 0 .0023.0002.0046.0013l.0021.001.0013.001.0009.0012.0011.0021c.0011.0025.0012.0047.0012.0046v.0001c0 .0002-.0002.0022-.0012.0046-.0008.0019-.0017.0029-.002.0033l-.0015.0011-.0019.0009c-.0023.001-.0044.0012-.0046.0013l-.0012-.0002c-.0009-.0002-.0021-.0005-.0034-.0011-.0011-.0004-.0019-.0009-.0024-.0013l-.0009-.0007-.0009-.0011-.0012-.0022c-.001-.0024-.0012-.0044-.0012-.0046v-.0001c0 .0001.0002-.0021.0012-.0046.0009-.002.0017-.0029.0021-.0033s.0013-.0012.0033-.002c.0024-.0011.0044-.0013.0046-.0013zm-.8478.0112c0-.4682.3796-.8478.8478-.8478.4683 0 .8478.3796.8478.8478 0 .4683-.3795.8479-.8478.8479-.4682 0-.8478-.3796-.8478-.8479zm-4.66295-13.56517c-.23412 0-.42391.18979-.42391.42391s.18979.42392.42391.42392h5.08695c.2341 0 .4239-.1898.4239-.42392s-.1898-.42391-.4239-.42391z" fill="#6099cc" fill-rule="evenodd"/></g></svg>