<svg width="57" height="56" fill="none" xmlns="http://www.w3.org/2000/svg"><path clip-rule="evenodd" d="M7.5 37.429V18.571c0-1.668.889-3.208 2.333-4.041L26.167 5.1a4.67 4.67 0 0 1 4.666 0l16.334 9.43A4.666 4.666 0 0 1 49.5 18.57v18.86a4.663 4.663 0 0 1-2.333 4.042l-16.334 9.429a4.67 4.67 0 0 1-4.666 0l-16.334-9.43A4.67 4.67 0 0 1 7.5 37.43Z" stroke="#fff" stroke-width="3" stroke-linecap="round" stroke-linejoin="round"/><path d="M38.977 30.007v-8.083L18 9.814M21.593 39.667 14.5 35.56M28.5 28v23.52" stroke="#fff" stroke-width="3" stroke-linecap="round" stroke-linejoin="round"/><path d="M8.125 16.238 28.5 28l20.375-11.762" stroke="#fff" stroke-width="3" stroke-linecap="round" stroke-linejoin="round"/></svg>