<svg height="75" viewBox="0 0 75 75" width="75" xmlns="http://www.w3.org/2000/svg"><g fill="#fff"><path d="m43.75 57.813c0-.863-.7-1.563-1.563-1.563h-31.25c-4.306 0-7.812-3.503-7.812-7.812v-32.813h53.125v20.313a1.563 1.563 0 0 0 3.125 0v-21.876c0-6.03-4.906-10.937-10.937-10.937a1.563 1.563 0 0 0 0 3.125c3.771 0 6.928 2.688 7.653 6.25h-52.807c.725-3.562 3.882-6.25 7.653-6.25a1.563 1.563 0 0 0 0-3.125c-6.03 0-10.937 4.906-10.937 10.938v34.375c0 6.03 4.906 10.937 10.938 10.937h31.25c.862 0 1.562-.7 1.562-1.562z"/><path d="m17.187 9.375c.863 0 1.563-.7 1.563-1.563v-6.25a1.563 1.563 0 0 0 -3.125 0v6.25c0 .863.7 1.563 1.562 1.563zm6.251-3.125h12.5a1.563 1.563 0 0 0 0-3.125h-12.5a1.563 1.563 0 0 0 0 3.125zm18.75 3.125c.862 0 1.562-.7 1.562-1.563v-6.25a1.563 1.563 0 0 0 -3.125 0v6.25c0 .863.7 1.563 1.563 1.563zm26.362 55.791-4.69-1.17-.197-.787a10.338 10.338 0 0 0 2.44-4.84 2.94 2.94 0 0 0 1.563-2.235l.34-2.715a2.925 2.925 0 0 0 -1.268-2.782l.08-1.656.288-.29c.804-.854 1.894-2.685.17-5.32-.823-1.252-2.507-2.746-5.888-2.746-.994 0-3.241 0-5.428 1.372-6.432.225-7.188 3.69-7.188 6.306 0 .516.094 1.481.181 2.288a2.93 2.93 0 0 0 -1.338 2.831l.341 2.716c.128 1.021.775 1.862 1.728 2.278a10.411 10.411 0 0 0 2.31 4.665l-.228.919-4.691 1.169a8.51 8.51 0 0 0 -6.45 8.269 1.555 1.555 0 0 0 1.563 1.562l31.25-.003c.862 0 1.562-.7 1.562-1.563a8.515 8.515 0 0 0 -6.45-8.268zm-24.572 6.706a5.404 5.404 0 0 1 3.853-3.672l5.6-1.397c.56-.14 1-.575 1.138-1.137l.665-2.666a1.561 1.561 0 0 0 -.447-1.519c-1.215-1.14-2.022-2.812-2.153-4.475-.065-.809-.76-1.259-1.575-1.259l-.4-2.484c.45 0 .875-.194 1.172-.528.297-.341.434-.785.378-1.232-.119-.943-.31-2.653-.31-3.203 0-1.615 0-3.144 4.566-3.19.32-.004.635-.104.894-.291 1.49-1.069 3.2-1.069 4.022-1.069 2.4 0 3.056 1.003 3.272 1.331.637.975.378 1.25.206 1.435l-.681.678a1.57 1.57 0 0 0 -.46 1.031l-.165 3.403c-.02.425.034.722.325 1.032.293.306.597.368 1.022.371l-.204 2.541c-.815 0-1.493.625-1.559 1.44-.134 1.685-.997 3.435-2.253 4.56a1.557 1.557 0 0 0 -.472 1.54l.64 2.554c.141.56.579.997 1.138 1.137l5.6 1.397a5.396 5.396 0 0 1 3.856 3.675zm-1.79-21.872c.862 0 1.562-.7 1.565-1.563v-25a1.563 1.563 0 0 0 -2.669-1.106l-6.25 6.25a1.564 1.564 0 0 0 2.21 2.21l3.581-3.582v21.229c0 .862.7 1.562 1.563 1.562zm-10.938-20.312c0-4.31-3.506-7.813-7.813-7.813-4.306 0-7.812 3.503-7.812 7.813a1.563 1.563 0 0 0 3.125 0 4.693 4.693 0 0 1 4.688-4.688 4.693 4.693 0 0 1 4.687 4.688 4.693 4.693 0 0 1 -4.688 4.687h-3.124a1.563 1.563 0 0 0 0 3.125h3.125a4.693 4.693 0 0 1 4.687 4.688 4.693 4.693 0 0 1 -4.688 4.687 4.693 4.693 0 0 1 -4.687-4.688 1.563 1.563 0 0 0 -3.125 0c0 4.31 3.506 7.813 7.812 7.813 4.307 0 7.813-3.503 7.813-7.813a7.812 7.812 0 0 0 -3.128-6.25 7.812 7.812 0 0 0 3.128-6.25z"/></g></svg>