<svg height="34" viewBox="0 0 201 34" width="201" xmlns="http://www.w3.org/2000/svg"><path d="m5.601.198h22.56a5.601 5.601 0 0 1 5.602 5.6v22.492a5.601 5.601 0 0 1 -5.601 5.602h-22.56a5.601 5.601 0 0 1 -5.602-5.602v-22.49a5.601 5.601 0 0 1 5.601-5.602zm3.775 24.197c.195.18.407.25.635.21.23-.04.435-.185.616-.438.654 2.225 1.053 3.46 1.197 3.702.094.16.395.286.736.21.34-.075.323-.146.581-.402s.408-.395.45-.621c.02-.101-.034-.826-.102-2.189-.022-.444-.056-1.263-.1-2.457 2.37-2.069 3.681-3.205 3.93-3.41.25-.203.75-.544 1.498-1.022 2.846 7.454 4.346 11.272 4.5 11.453.229.272.784.214 1.097-.07.465-.42.666-.739.603-.954l-1.053-9.554c.382-.388.648-.656.798-.804.415-.41.685-.668.733-.809a.735.735 0 0 0 -.058-.627c-.042-.069-.237-.267-.354-.385a8.915 8.915 0 0 0 -.354-.33.697.697 0 0 0 -.457-.115c-.205.01-.415.138-.628.384l-.174-1.462c-.06-.512-.111-.904-.154-1.176 1.732-1.763 2.834-3.007 3.306-3.73.708-1.087 1.059-1.643 1.059-2.241 0-.397-.117-.732-.351-1.002-.213-.223-.517-.334-.912-.334-.6 0-1.239.285-2.327.992-.726.471-1.971 1.575-3.737 3.312a159.318 159.318 0 0 0 -2.703-.317c.246-.213.374-.422.385-.627a.693.693 0 0 0 -.115-.456 14.852 14.852 0 0 0 -.35-.363c-.12-.117-.317-.312-.386-.354a.74.74 0 0 0 -.629-.057c-.14.047-.399.316-.81.73-.148.15-.417.416-.806.797l-9.573-1.049c-.157-.054-.447.152-.87.616-.283.312-.392.851-.12 1.08.14.119 2.413.985 6.909 2.715.873.336 2.384.928 4.531 1.776-.48.747-.821 1.245-1.025 1.494s-1.343 1.557-3.416 3.923a247.334 247.334 0 0 1 -2.463-.1c-1.365-.068-2.091-.122-2.193-.103-.226.043-.365.192-.622.45s-.328.24-.403.58c-.076.34.05.64.21.735.244.143 1.48.542 3.71 1.194-.253.181-.4.386-.44.615a.625.625 0 0 0 .2.59zm40.796 4.007c-1.565 0-2.99-.257-4.277-.77a9.098 9.098 0 0 1 -3.312-2.247c-.922-.984-1.635-2.198-2.139-3.643-.504-1.444-.756-3.097-.756-4.958 0-1.862.284-3.515.852-4.959.569-1.444 1.335-2.658 2.3-3.643a9.726 9.726 0 0 1 3.377-2.246 11 11 0 0 1 4.116-.77c.922 0 1.753.064 2.493.192s1.382.278 1.93.45c.546.17.99.342 1.334.513.343.171.579.3.707.385l-.9 2.568a4.992 4.992 0 0 0 -.836-.418c-.365-.15-.777-.3-1.238-.45-.461-.149-.965-.272-1.512-.368a9.531 9.531 0 0 0 -1.656-.145c-1.18 0-2.24.204-3.184.61a6.586 6.586 0 0 0 -2.412 1.765c-.665.77-1.174 1.707-1.528 2.809-.353 1.102-.53 2.337-.53 3.707 0 1.326.155 2.535.466 3.626.31 1.092.777 2.028 1.399 2.809a6.281 6.281 0 0 0 2.332 1.813c.932.428 2.02.642 3.264.642 1.436 0 2.626-.15 3.57-.45.943-.299 1.65-.566 2.122-.802l.804 2.568c-.15.107-.418.24-.804.4-.386.161-.868.317-1.447.466-.579.15-1.254.278-2.026.385s-1.608.16-2.509.16zm9.063-.482v-24.39l2.99-.514v8.537c.558-.214 1.153-.38 1.785-.497.633-.118 1.26-.177 1.882-.177 1.329 0 2.433.187 3.312.562.88.374 1.581.899 2.107 1.573.525.674.895 1.481 1.11 2.423.214.941.32 1.979.32 3.113v9.371h-2.99v-8.73c0-1.026-.07-1.904-.21-2.631-.139-.727-.369-1.316-.69-1.765a2.736 2.736 0 0 0 -1.287-.98c-.536-.202-1.2-.304-1.994-.304-.322 0-.654.021-.997.064s-.67.091-.98.145c-.312.053-.59.112-.837.176a4.978 4.978 0 0 0 -.53.16v13.864zm32.024-8.344c0 1.326-.193 2.525-.579 3.594-.386 1.07-.927 1.99-1.624 2.76a7.144 7.144 0 0 1 -2.492 1.782c-.965.417-2.016.626-3.152.626s-2.187-.209-3.152-.626a7.144 7.144 0 0 1 -2.492-1.781c-.697-.77-1.238-1.69-1.624-2.76s-.58-2.269-.58-3.595c0-1.305.194-2.498.58-3.579.386-1.08.927-2.006 1.624-2.776a7.144 7.144 0 0 1 2.492-1.781c.965-.417 2.016-.626 3.152-.626s2.187.209 3.152.626a7.144 7.144 0 0 1 2.492 1.781c.697.77 1.238 1.696 1.624 2.776s.579 2.274.579 3.579zm-3.12 0c0-1.883-.423-3.375-1.27-4.477s-2-1.653-3.457-1.653c-1.458 0-2.61.55-3.457 1.653-.847 1.102-1.27 2.594-1.27 4.477s.423 3.375 1.27 4.477 1.999 1.653 3.457 1.653 2.61-.551 3.457-1.653 1.27-2.594 1.27-4.477zm13.5 8.73c-1.35 0-2.535-.214-3.553-.642a7.149 7.149 0 0 1 -2.573-1.798c-.697-.77-1.217-1.685-1.56-2.744s-.514-2.23-.514-3.514.187-2.46.563-3.53c.375-1.07.905-1.996 1.592-2.777a7.134 7.134 0 0 1 2.524-1.829c.997-.439 2.107-.658 3.329-.658.75 0 1.5.064 2.25.193.751.128 1.47.331 2.156.61l-.676 2.535a7.205 7.205 0 0 0 -1.56-.514 8.828 8.828 0 0 0 -1.88-.192c-1.673 0-2.954.524-3.844 1.572-.89 1.049-1.335 2.579-1.335 4.59 0 .899.102 1.722.306 2.471.204.75.525 1.391.965 1.926s1.002.947 1.688 1.236c.686.288 1.522.433 2.509.433.793 0 1.511-.075 2.154-.225s1.147-.31 1.512-.481l.418 2.503c-.172.107-.418.209-.74.305-.321.096-.686.182-1.093.257-.408.075-.842.139-1.303.192-.46.054-.906.08-1.334.08zm20.93-8.73c0 1.326-.193 2.525-.579 3.594-.386 1.07-.927 1.99-1.624 2.76a7.144 7.144 0 0 1 -2.493 1.782c-.964.417-2.015.626-3.151.626-1.137 0-2.187-.209-3.152-.626a7.144 7.144 0 0 1 -2.492-1.781c-.697-.77-1.238-1.69-1.624-2.76s-.58-2.269-.58-3.595c0-1.305.194-2.498.58-3.579.386-1.08.927-2.006 1.624-2.776a7.144 7.144 0 0 1 2.492-1.781c.965-.417 2.015-.626 3.152-.626 1.136 0 2.187.209 3.151.626a7.144 7.144 0 0 1 2.493 1.781c.697.77 1.238 1.696 1.624 2.776s.579 2.274.579 3.579zm-3.12 0c0-1.883-.423-3.375-1.27-4.477s-2-1.653-3.457-1.653c-1.458 0-2.61.55-3.457 1.653-.847 1.102-1.27 2.594-1.27 4.477s.423 3.375 1.27 4.477c.846 1.102 1.999 1.653 3.457 1.653s2.61-.551 3.457-1.653 1.27-2.594 1.27-4.477zm9.06-8.345h6.335v2.504h-6.335v7.702c0 .835.064 1.525.193 2.07.128.546.321.974.579 1.284.257.31.579.53.965.658.385.129.836.193 1.35.193.9 0 1.624-.102 2.171-.305s.927-.348 1.142-.433l.579 2.47c-.3.15-.826.338-1.576.563-.75.224-1.608.337-2.573.337-1.136 0-2.074-.145-2.814-.434s-1.335-.722-1.785-1.3c-.45-.577-.766-1.289-.949-2.134-.182-.845-.273-1.824-.273-2.937v-14.891l2.99-.514v5.167zm15.205-.353c.257 0 .552.016.884.048s.66.075.98.129c.322.053.617.107.885.16.268.054.467.102.595.145l-.514 2.6c-.236-.086-.627-.188-1.174-.306-.547-.117-1.25-.176-2.107-.176-.557 0-1.11.059-1.656.176-.547.118-.906.198-1.077.241v14.025h-2.991v-15.983c.707-.256 1.586-.497 2.637-.722 1.05-.224 2.23-.337 3.538-.337zm10.798 14.892c.708 0 1.335-.016 1.882-.048a8.228 8.228 0 0 0 1.366-.177v-4.974c-.214-.107-.562-.198-1.045-.273a11.649 11.649 0 0 0 -1.752-.112c-.45 0-.928.032-1.432.096a4.416 4.416 0 0 0 -1.382.401 2.96 2.96 0 0 0 -1.046.835c-.278.353-.418.818-.418 1.396 0 1.07.343 1.813 1.03 2.23.685.418 1.618.626 2.797.626zm-.257-14.956c1.2 0 2.214.155 3.04.465.825.31 1.49.75 1.993 1.316a4.98 4.98 0 0 1 1.077 2.022c.215.781.322 1.642.322 2.584v10.43l-1.077.177c-.461.075-.981.145-1.56.209s-1.206.123-1.881.176a25.45 25.45 0 0 1 -2.01.08c-.944 0-1.812-.096-2.605-.288-.794-.193-1.48-.498-2.059-.915a4.19 4.19 0 0 1 -1.35-1.653c-.322-.685-.483-1.508-.483-2.471 0-.92.188-1.712.563-2.375a4.478 4.478 0 0 1 1.528-1.605c.643-.406 1.393-.706 2.25-.899a12.3 12.3 0 0 1 2.702-.288c.3 0 .611.016.933.048s.627.075.916.128c.29.054.542.102.756.145.215.042.365.074.45.096v-.835c0-.492-.053-.979-.16-1.46-.108-.481-.3-.91-.58-1.284-.278-.374-.658-.674-1.14-.898-.483-.225-1.11-.337-1.882-.337-.986 0-1.85.07-2.59.208-.739.14-1.29.284-1.655.434l-.354-2.472c.386-.171 1.029-.337 1.93-.497a16.7 16.7 0 0 1 2.926-.241zm22.859.417a84.02 84.02 0 0 1 -2.943 8.987 141.318 141.318 0 0 1 -3.264 7.702h-2.702a141.318 141.318 0 0 1 -3.264-7.702 84.02 84.02 0 0 1 -2.941-8.988h3.216c.257 1.049.562 2.167.916 3.354a96.664 96.664 0 0 0 1.126 3.53c.396 1.167.798 2.295 1.206 3.387a69.983 69.983 0 0 0 1.158 2.92c.364-.856.75-1.83 1.157-2.92.408-1.092.81-2.22 1.206-3.386a96.664 96.664 0 0 0 1.126-3.53c.354-1.188.66-2.306.916-3.355h3.088zm.604 8.377c0-1.476.214-2.766.643-3.867.429-1.102.997-2.017 1.705-2.745a6.921 6.921 0 0 1 2.444-1.636 7.649 7.649 0 0 1 2.83-.546c2.251 0 3.977.7 5.178 2.102 1.2 1.402 1.8 3.536 1.8 6.403v.498c0 .203-.01.39-.032.561h-11.449c.129 1.733.633 3.05 1.512 3.948.879.899 2.251 1.348 4.116 1.348 1.051 0 1.935-.091 2.654-.273.718-.182 1.26-.358 1.624-.53l.418 2.504c-.365.192-1.003.396-1.914.61s-1.945.32-3.103.32c-1.458 0-2.718-.219-3.779-.657-1.061-.439-1.935-1.043-2.621-1.814-.686-.77-1.195-1.685-1.528-2.744-.332-1.059-.498-2.22-.498-3.482zm11.481-1.637c.021-1.348-.316-2.455-1.013-3.322-.697-.866-1.656-1.3-2.878-1.3-.686 0-1.292.134-1.817.402-.526.267-.97.615-1.335 1.043s-.649.92-.852 1.476a7.272 7.272 0 0 0 -.402 1.701zm11.345 10.27c-1.843-.042-3.151-.438-3.923-1.187s-1.158-1.915-1.158-3.498v-20.027l2.991-.514v20.06c0 .491.043.898.129 1.219.085.32.225.577.418.77a1.8 1.8 0 0 0 .772.433c.321.097.718.177 1.19.241z" fill="#fff"/></svg>