<svg width="344" height="59" viewBox="0 0 344 59" fill="none" xmlns="http://www.w3.org/2000/svg">
<path d="M86.0004 48.8062C83.3004 48.8062 80.9004 48.4062 78.7004 47.5062C76.5004 46.6062 74.6004 45.3062 73.0004 43.7062C71.4004 42.0062 70.2004 39.9062 69.3004 37.5062C68.4004 35.0062 68.0004 32.2062 68.0004 29.0062C68.0004 25.8062 68.5004 23.0062 69.5004 20.5062C70.5004 18.0062 71.8004 15.9062 73.4004 14.3062C75.0004 12.6062 77.0004 11.3062 79.2004 10.5062C81.4004 9.60623 83.7004 9.20624 86.2004 9.20624C87.8004 9.20624 89.2004 9.30623 90.5004 9.50623C91.8004 9.70623 92.9004 10.0062 93.8004 10.3062C94.7004 10.6062 95.5004 10.9062 96.1004 11.2062C96.7004 11.5062 97.1004 11.7063 97.3004 11.9062L95.8004 16.3062C95.5004 16.1062 95.0004 15.8062 94.4004 15.6062C93.8004 15.3062 93.1004 15.1062 92.3004 14.8062C91.5004 14.5062 90.7004 14.3062 89.7004 14.2062C88.8004 14.0062 87.8004 14.0062 86.9004 14.0062C84.9004 14.0062 83.1004 14.3062 81.5004 15.0062C79.9004 15.7062 78.5004 16.7062 77.4004 18.0062C76.3004 19.3062 75.4004 20.9062 74.8004 22.8062C74.2004 24.7062 73.9004 26.8062 73.9004 29.1062C73.9004 31.4062 74.2004 33.4062 74.7004 35.3062C75.2004 37.2062 76.0004 38.8062 77.1004 40.1062C78.2004 41.4062 79.5004 42.5062 81.1004 43.2062C82.7004 43.9062 84.6004 44.3062 86.7004 44.3062C89.2004 44.3062 91.2004 44.0062 92.8004 43.5062C94.4004 43.0062 95.6004 42.5062 96.4004 42.1062L97.8004 46.5062C97.5004 46.7062 97.1004 46.9062 96.4004 47.2062C95.7004 47.5062 94.9004 47.7062 93.9004 48.0062C92.9004 48.3062 91.8004 48.5062 90.4004 48.7062C89.0004 48.7062 87.5004 48.8062 86.0004 48.8062ZM101.5 47.9062V6.1062L106.6 5.20624V19.8062C107.6 19.4062 108.6 19.1062 109.7 18.9062C110.8 18.7063 111.9 18.6062 112.9 18.6062C115.2 18.6062 117.1 18.9062 118.6 19.6062C120.1 20.2062 121.3 21.1062 122.2 22.3062C123.1 23.5062 123.7 24.8062 124.1 26.5062C124.5 28.1062 124.6 29.9062 124.6 31.8062V47.9062H119.5V32.9062C119.5 31.1063 119.4 29.6063 119.1 28.4062C118.9 27.2062 118.5 26.1063 117.9 25.4062C117.4 24.6063 116.6 24.1062 115.7 23.7062C114.8 23.4062 113.6 23.2062 112.3 23.2062C111.7 23.2062 111.2 23.2062 110.6 23.3062C110 23.4062 109.5 23.5062 108.9 23.5062C108.4 23.6062 107.9 23.7062 107.5 23.8062C107.1 23.9062 106.8 24.0062 106.6 24.1062V47.9062H101.5ZM156.2 33.6062C156.2 35.9062 155.9 37.9062 155.2 39.8062C154.5 41.6062 153.6 43.2062 152.4 44.5062C151.2 45.8062 149.8 46.8062 148.1 47.6062C146.5 48.3062 144.7 48.7062 142.7 48.7062C140.8 48.7062 139 48.3062 137.3 47.6062C135.7 46.9062 134.2 45.9062 133 44.5062C131.8 43.2062 130.9 41.6062 130.2 39.8062C129.5 38.0062 129.2 35.9062 129.2 33.6062C129.2 31.4062 129.5 29.3062 130.2 27.5062C130.9 25.6062 131.8 24.1062 133 22.7062C134.2 21.4062 135.6 20.4062 137.3 19.6062C138.9 18.9062 140.7 18.5062 142.7 18.5062C144.6 18.5062 146.4 18.9062 148.1 19.6062C149.8 20.3062 151.2 21.3062 152.4 22.7062C153.6 24.0062 154.5 25.6062 155.2 27.5062C155.9 29.4062 156.2 31.4062 156.2 33.6062ZM150.9 33.6062C150.9 30.4062 150.2 27.8062 148.7 25.9062C147.3 24.0063 145.3 23.1062 142.8 23.1062C140.3 23.1062 138.3 24.0063 136.9 25.9062C135.5 27.8062 134.7 30.3062 134.7 33.6062C134.7 36.8062 135.4 39.4062 136.9 41.3062C138.3 43.2062 140.3 44.1062 142.8 44.1062C145.3 44.1062 147.3 43.2062 148.7 41.3062C150.1 39.4062 150.9 36.9062 150.9 33.6062ZM173.9 48.6062C171.6 48.6062 169.6 48.2062 167.8 47.5062C166.1 46.8062 164.6 45.7062 163.4 44.4062C162.2 43.1063 161.3 41.5062 160.7 39.7062C160.1 37.9062 159.8 35.9062 159.8 33.7062C159.8 31.5062 160.1 29.5062 160.8 27.7062C161.4 25.9062 162.3 24.3062 163.5 22.9062C164.7 21.6063 166.1 20.5062 167.8 19.8062C169.5 19.0062 171.4 18.7062 173.5 18.7062C174.8 18.7062 176.1 18.8062 177.3 19.0062C178.6 19.2062 179.8 19.6062 181 20.0062L179.8 24.3062C179 23.9062 178.1 23.6063 177.1 23.4062C176.1 23.2062 175 23.1062 173.9 23.1062C171 23.1062 168.9 24.0062 167.3 25.8062C165.8 27.6062 165 30.2062 165 33.7062C165 35.2062 165.2 36.7062 165.5 37.9062C165.8 39.2062 166.4 40.3062 167.2 41.2062C168 42.1062 168.9 42.8062 170.1 43.3062C171.3 43.8062 172.7 44.0062 174.4 44.0062C175.8 44.0062 177 43.9062 178.1 43.6062C179.2 43.3062 180.1 43.1062 180.7 42.8062L181.4 47.1062C181.1 47.3062 180.7 47.5062 180.1 47.6062C179.6 47.8062 178.9 47.9062 178.2 48.0062C177.5 48.1062 176.8 48.2062 176 48.3062C175.4 48.6062 174.7 48.6062 173.9 48.6062ZM209.7 33.6062C209.7 35.9062 209.4 37.9062 208.7 39.8062C208 41.6062 207.1 43.2062 205.9 44.5062C204.7 45.8062 203.3 46.8062 201.6 47.6062C199.9 48.3062 198.2 48.7062 196.2 48.7062C194.3 48.7062 192.5 48.3062 190.8 47.6062C189.1 46.9062 187.7 45.9062 186.5 44.5062C185.3 43.2062 184.4 41.6062 183.7 39.8062C183 38.0062 182.7 35.9062 182.7 33.6062C182.7 31.4062 183 29.3062 183.7 27.5062C184.4 25.6062 185.3 24.1062 186.5 22.7062C187.7 21.4062 189.1 20.4062 190.8 19.6062C192.4 18.9062 194.2 18.5062 196.2 18.5062C198.1 18.5062 199.9 18.9062 201.6 19.6062C203.2 20.3062 204.7 21.3062 205.9 22.7062C207.1 24.0062 208 25.6062 208.7 27.5062C209.4 29.4062 209.7 31.4062 209.7 33.6062ZM204.3 33.6062C204.3 30.4062 203.6 27.8062 202.1 25.9062C200.7 24.0063 198.7 23.1062 196.2 23.1062C193.7 23.1062 191.7 24.0063 190.3 25.9062C188.9 27.8062 188.1 30.3062 188.1 33.6062C188.1 36.8062 188.8 39.4062 190.3 41.3062C191.7 43.2062 193.7 44.1062 196.2 44.1062C198.7 44.1062 200.7 43.2062 202.1 41.3062C203.6 39.4062 204.3 36.9062 204.3 33.6062Z" fill="#F08717"/>
<path d="M219.8 19.4062H230.6V23.7062H219.8V36.9062C219.8 38.3063 219.9 39.5062 220.1 40.4062C220.3 41.3063 220.6 42.1062 221.1 42.6062C221.5 43.1062 222.1 43.5062 222.8 43.7062C223.5 43.9062 224.2 44.0062 225.1 44.0062C226.6 44.0062 227.9 43.8062 228.8 43.5062C229.7 43.2062 230.4 42.9062 230.8 42.8062L231.8 47.0062C231.3 47.3062 230.4 47.6062 229.1 48.0062C227.8 48.4062 226.4 48.6062 224.7 48.6062C222.8 48.6062 221.2 48.4062 219.9 47.9062C218.6 47.4062 217.6 46.7062 216.8 45.7062C216 44.7062 215.5 43.5062 215.2 42.0062C214.9 40.6062 214.7 38.9062 214.7 37.0062V11.5062L219.8 10.6062V19.4062ZM245.7 18.7062C246.1 18.7062 246.6 18.7062 247.2 18.8062C247.8 18.9062 248.3 18.9062 248.9 19.0062C249.4 19.1062 250 19.2062 250.4 19.3062C250.9 19.4062 251.2 19.5062 251.4 19.5062L250.5 24.0062C250.1 23.9062 249.4 23.7062 248.5 23.5062C247.6 23.3062 246.4 23.2062 244.9 23.2062C243.9 23.2062 243 23.3062 242.1 23.5062C241.2 23.7062 240.6 23.8062 240.3 23.9062V47.9062H235.2V20.5062C236.4 20.1062 237.9 19.6062 239.7 19.3062C241.5 18.9062 243.5 18.7062 245.7 18.7062ZM264.2 44.3062C265.4 44.3062 266.5 44.3062 267.4 44.2062C268.3 44.1062 269.1 44.0062 269.7 43.9062V35.4062C269.3 35.2062 268.7 35.1063 267.9 34.9062C267.1 34.8062 266.1 34.7062 264.9 34.7062C264.1 34.7062 263.3 34.8062 262.5 34.9062C261.6 35.0063 260.9 35.2062 260.1 35.6062C259.4 35.9062 258.8 36.4062 258.3 37.0062C257.8 37.6062 257.6 38.4062 257.6 39.4062C257.6 41.2062 258.2 42.5062 259.4 43.2062C260.6 43.9062 262.2 44.3062 264.2 44.3062ZM263.7 18.6062C265.8 18.6062 267.5 18.9062 268.9 19.4062C270.3 19.9062 271.4 20.7062 272.3 21.7062C273.2 22.7062 273.8 23.8062 274.1 25.2062C274.5 26.5062 274.6 28.0062 274.6 29.6062V47.5062C274.2 47.6062 273.5 47.7062 272.8 47.8062C272 47.9062 271.1 48.0062 270.1 48.2062C269.1 48.3062 268 48.4062 266.9 48.5062C265.7 48.6062 264.6 48.6062 263.5 48.6062C261.9 48.6062 260.4 48.4062 259 48.1062C257.6 47.8062 256.5 47.2062 255.5 46.5062C254.5 45.8062 253.7 44.8062 253.2 43.7062C252.7 42.5062 252.4 41.1062 252.4 39.5062C252.4 37.9062 252.7 36.6063 253.4 35.4062C254 34.3062 254.9 33.3062 256 32.6062C257.1 31.9062 258.4 31.4062 259.8 31.1062C261.3 30.8062 262.8 30.6062 264.4 30.6062C264.9 30.6062 265.4 30.6062 266 30.7062C266.6 30.8062 267.1 30.8062 267.6 30.9062C268.1 31.0063 268.5 31.1062 268.9 31.1062C269.3 31.2062 269.5 31.2062 269.7 31.3062V29.9062C269.7 29.1063 269.6 28.2062 269.4 27.4062C269.2 26.6063 268.9 25.8062 268.4 25.2062C267.9 24.6062 267.3 24.0062 266.4 23.7062C265.6 23.3062 264.5 23.1062 263.2 23.1062C261.5 23.1062 260 23.2062 258.8 23.5062C257.5 23.7062 256.6 24.0062 256 24.2062L255.4 20.0062C256.1 19.7062 257.2 19.4062 258.7 19.1062C260.3 18.8062 261.9 18.6062 263.7 18.6062ZM302.8 19.4062C301.4 24.8062 299.7 29.9062 297.8 34.8062C295.9 39.7062 294 44.1062 292.2 48.0062H287.6C285.8 44.1062 283.9 39.7062 282 34.8062C280.1 29.9062 278.4 24.8062 277 19.4062H282.5C282.9 21.2063 283.5 23.1062 284.1 25.1062C284.7 27.1062 285.3 29.1062 286 31.1062C286.7 33.1062 287.4 35.0063 288.1 36.9062C288.8 38.8063 289.5 40.4062 290.1 41.9062C290.7 40.4062 291.4 38.8063 292.1 36.9062C292.8 35.0063 293.5 33.1062 294.2 31.1062C294.9 29.1062 295.5 27.1062 296.1 25.1062C296.7 23.1062 297.2 21.1062 297.7 19.4062H302.8ZM303.8 33.7062C303.8 31.2062 304.2 29.0062 304.9 27.1062C305.6 25.2062 306.6 23.6063 307.8 22.4062C309 21.2063 310.4 20.2062 312 19.6062C313.6 19.0062 315.2 18.7062 316.8 18.7062C320.6 18.7062 323.6 19.9062 325.6 22.3062C327.7 24.7062 328.7 28.4062 328.7 33.3062C328.7 33.5062 328.7 33.8062 328.7 34.2062C328.7 34.5062 328.7 34.9062 328.6 35.2062H309C309.2 38.2062 310.1 40.4062 311.6 42.0062C313.1 43.5062 315.4 44.3062 318.6 44.3062C320.4 44.3062 321.9 44.1062 323.1 43.8062C324.3 43.5062 325.3 43.2062 325.9 42.9062L326.6 47.2062C326 47.5062 324.9 47.9062 323.3 48.2062C321.7 48.6062 320 48.7062 318 48.7062C315.5 48.7062 313.4 48.3062 311.5 47.6062C309.7 46.8062 308.2 45.8062 307 44.5062C305.8 43.2062 305 41.6062 304.4 39.8062C304.1 37.9062 303.8 35.9062 303.8 33.7062ZM323.4 30.9062C323.4 28.6063 322.9 26.7062 321.7 25.2062C320.5 23.7062 318.9 23.0062 316.8 23.0062C315.6 23.0062 314.6 23.2062 313.7 23.7062C312.8 24.2062 312 24.8062 311.4 25.5062C310.8 26.2062 310.3 27.1062 309.9 28.0062C309.6 29.0062 309.3 29.9062 309.2 30.9062H323.4ZM342.8 48.5062C339.6 48.4062 337.4 47.7062 336.1 46.5062C334.8 45.2062 334.1 43.2062 334.1 40.5062V6.20624L339.2 5.30621V39.7062C339.2 40.5062 339.3 41.2062 339.4 41.8062C339.5 42.4062 339.8 42.8062 340.1 43.1062C340.4 43.4062 340.9 43.7062 341.4 43.8062C342 44.0062 342.6 44.1062 343.4 44.2062L342.8 48.5062Z" fill="#3D80BD"/>
<path d="M58.1004 10.0062C58.1004 4.70623 53.8004 0.40625 48.5004 0.40625H10.0004C4.70039 0.40625 0.400391 4.70623 0.400391 10.0062V48.4062C0.400391 53.7062 4.70039 58.0062 10.0004 58.0062H48.4004C53.7004 58.0062 58.0004 53.7062 58.0004 48.4062V10.0062H58.1004Z" fill="#3D80BD"/>
<path d="M42.7004 27.7062C42.2004 27.2062 41.5004 27.2062 41.0004 27.7062L40.7004 28.0062L40.2004 23.4062C46.1004 17.5062 48.9004 13.4062 47.0004 11.5062C45.1004 9.60621 41.0004 12.4062 35.1004 18.3062L30.5004 17.8062L30.8004 17.4062C31.3004 16.9062 31.3004 16.2062 30.8004 15.7062L29.9004 14.8062C29.4004 14.3062 28.7004 14.3062 28.2004 14.8062L25.8004 17.2062L9.80038 15.4062C9.70038 15.4062 9.60037 15.4062 9.50037 15.4062C9.20037 15.4062 8.90038 15.5062 8.60038 15.8062L7.70038 16.7062C7.20038 17.2062 7.20038 17.9062 7.70038 18.4062C7.90038 18.6062 8.10038 18.7062 8.30038 18.7062L27.3004 26.0062C27.2004 26.1062 27.1004 26.3062 27.0004 26.4062C26.6004 27.8062 19.6004 35.3062 19.6004 35.3062L12.0004 34.9062C11.7004 34.9062 11.4004 35.0062 11.2004 35.3062L10.3004 36.2062C9.80038 36.7062 9.80038 37.4062 10.3004 37.9062C10.5004 38.1062 10.7004 38.2062 10.9004 38.2062L16.7004 40.0062L16.3004 40.4062C16.1004 40.6062 15.9004 40.9062 15.9004 41.2062C15.9004 41.9062 16.4004 42.4062 17.1004 42.4062C17.4004 42.4062 17.7004 42.3062 18.0004 42.0062L18.4004 41.6062L20.2004 47.4062C20.2004 47.6062 20.4004 47.8062 20.5004 48.0062C21.0004 48.5062 21.7004 48.5062 22.2004 48.0062L23.1004 47.1062C23.3004 46.9062 23.4004 46.5062 23.4004 46.2062L23.0004 38.7062C23.0004 38.7062 30.5004 31.8062 31.9004 31.3062C32.1004 31.2062 32.2004 31.1062 32.3004 31.0062L39.6004 50.0062C39.7004 50.2062 39.8004 50.4062 39.9004 50.6062C40.4004 51.1062 41.1004 51.1062 41.6004 50.6062L42.4004 49.8062C42.6004 49.6062 42.8004 49.3062 42.8004 48.9062C42.8004 48.8062 42.8004 48.7062 42.8004 48.6062L41.0004 32.5062L43.4004 30.1062C43.9004 29.6062 43.9004 28.9062 43.4004 28.4062L42.7004 27.7062Z" fill="white"/>
</svg>
