<svg height="75" viewBox="0 0 57 75" width="57" xmlns="http://www.w3.org/2000/svg"><g fill="#fff"><path d="m55.273 0h-34.743a1.6 1.6 0 0 0 -1.118.456l-18.95 18.75c-.296.294-.462.69-.462 1.107v53.125c0 .862.708 1.562 1.58 1.562h53.693c.872 0 1.58-.7 1.58-1.563v-71.874c-.002-.863-.71-1.563-1.581-1.563zm-1.58 71.875h-50.534v-50.916l18.025-17.834h32.51v68.75z"/><path d="m20.53 0c-.872 0-1.58.7-1.58 1.563v17.187h-17.37c-.872 0-1.58.7-1.58 1.563 0 .862.708 1.562 1.58 1.562h18.95c.872 0 1.58-.7 1.58-1.562v-18.75c-.002-.863-.709-1.563-1.58-1.563zm3.158 31.25h-15.792c-.872 0-1.58.7-1.58 1.563 0 .862.708 1.562 1.58 1.562h15.792c.872 0 1.58-.7 1.58-1.563 0-.862-.708-1.562-1.58-1.562zm25.268 12.5h-41.06c-.872 0-1.58.7-1.58 1.563 0 .862.708 1.562 1.58 1.562h41.06c.871 0 1.579-.7 1.579-1.563 0-.862-.707-1.562-1.58-1.562zm0 12.5h-41.06c-.872 0-1.58.7-1.58 1.563 0 .862.708 1.562 1.58 1.562h41.06c.871 0 1.579-.7 1.579-1.562 0-.863-.707-1.563-1.58-1.563zm-9.204-35.913c-.01 0-.328-.053-.338-.053-3.86-.584-4.671-1.584-4.671-2.315 0-1.085 2.072-2.344 4.744-2.344 2.656 0 4.63 1.184 4.74 2.25.086.86.879 1.465 1.731 1.397a1.566 1.566 0 0 0 1.41-1.713c-.298-2.884-3.684-5.06-7.881-5.06-4.432 0-7.903 2.4-7.903 5.47 0 4.287 5.534 5.128 7.634 5.446.01 0 .329.054.338.054 3.854.584 4.662 1.58 4.662 2.312 0 1.085-2.072 2.344-4.744 2.344-2.656 0-4.63-1.188-4.74-2.253-.086-.863-.875-1.478-1.731-1.397a1.564 1.564 0 0 0 -1.41 1.712c.298 2.888 3.684 5.063 7.881 5.063 4.432 0 7.903-2.403 7.903-5.469 0-4.287-5.524-5.128-7.625-5.444z"/><path d="m39.48 9.375c-.871 0-1.579.7-1.579 1.563v21.874c0 .863.708 1.563 1.58 1.563.871 0 1.579-.7 1.579-1.563v-21.873c0-.863-.708-1.563-1.58-1.563z"/></g></svg>