<svg xmlns="http://www.w3.org/2000/svg" width="90" height="75" viewBox="0 0 90 75">
    <g fill="#FFF" fill-rule="nonzero">
        <path d="M82.304 63.27l-5.593-1.394-.235-.94a12.366 12.366 0 0 0 2.91-5.773 3.488 3.488 0 0 0 1.864-2.668l.402-3.236a3.483 3.483 0 0 0-.83-2.72 3.58 3.58 0 0 0-.683-.597l.097-1.979.34-.343c.96-1.018 2.261-3.202.204-6.344-.976-1.49-2.985-3.276-7.02-3.276-1.19 0-3.869 0-6.47 1.636-7.67.269-8.571 4.402-8.571 7.522 0 .615.112 1.767.216 2.732-.276.175-.53.391-.75.641a3.452 3.452 0 0 0-.841 2.728l.402 3.243c.153 1.215.924 2.222 2.061 2.717.417 2.035 1.39 4 2.754 5.565l-.272 1.096-5.594 1.394A10.152 10.152 0 0 0 49 73.136 1.855 1.855 0 0 0 50.863 75l37.274-.004A1.864 1.864 0 0 0 90 73.133c0-4.67-3.164-8.726-7.696-9.863zM53 71.27a6.435 6.435 0 0 1 4.606-4.38l6.678-1.666a1.863 1.863 0 0 0 1.356-1.357l.794-3.179a1.856 1.856 0 0 0-.537-1.808c-1.45-1.368-2.407-3.362-2.567-5.337-.079-.97-.906-1.502-1.879-1.502l-.48-2.967c.536 0 1.043-.231 1.397-.63.354-.406.518-.935.451-1.468-.142-1.126-.369-3.165-.369-3.82 0-1.928 0-3.75 5.448-3.806.38-.004.753-.123 1.066-.35 1.774-1.272 3.816-1.272 4.796-1.272 2.862 0 3.641 1.193 3.906 1.588.756 1.163.447 1.491.238 1.715l-.809.808a1.86 1.86 0 0 0-.544 1.227l-.197 4.059c-.023.507.037.86.383 1.23.35.369.708.44 1.215.447l-.238 3.027a1.86 1.86 0 0 0-1.856 1.714c-.164 2.013-1.196 4.1-2.694 5.442a1.865 1.865 0 0 0-.563 1.837l.76 3.046a1.863 1.863 0 0 0 1.357 1.356l6.678 1.666a6.428 6.428 0 0 1 4.598 4.384L53 71.269zM12.875 49h26.25C40.16 49 41 48.104 41 47s-.84-2-1.875-2h-26.25C11.84 45 11 45.896 11 47s.84 2 1.875 2zM12.9 42h15.2c1.049 0 1.9-.896 1.9-2s-.851-2-1.9-2H12.9c-1.049 0-1.9.896-1.9 2s.851 2 1.9 2z"/>
        <path d="M52.182 58.125a1.87 1.87 0 0 0-1.864-1.875h-41c-3.082 0-5.59-2.524-5.59-5.625V26.25h74.545V30a1.87 1.87 0 0 0 1.863 1.875A1.87 1.87 0 0 0 82 30V9.375C82 4.204 77.822 0 72.682 0H9.318C4.178 0 0 4.204 0 9.375v41.25C0 55.796 4.178 60 9.318 60h41a1.87 1.87 0 0 0 1.864-1.875zM3.727 9.375c0-3.101 2.509-5.625 5.591-5.625h63.364c3.082 0 5.59 2.524 5.59 5.625v1.875H3.728V9.375zm0 5.625h74.546v7.5H3.727V15z"/>
    </g>
</svg>
