<svg width="93" height="15" viewBox="0 0 93 15" fill="none" xmlns="http://www.w3.org/2000/svg">
<path fill-rule="evenodd" clip-rule="evenodd" d="M13.7422 3.6913C12.459 1.48696 10.0853 0 7.37791 0C3.31043 0 0 3.36522 0 7.5C0 11.6478 3.31043 15 7.37791 15C9.34107 15 11.1246 14.2174 12.459 12.9391H13.0108C13.9731 12.9391 14.7686 12.1435 14.7686 11.1522V5.32174C14.7686 4.5913 14.3452 3.97826 13.7422 3.6913ZM14.1912 11.1783C14.1912 12.1957 13.7037 12.3652 12.7542 12.3652H4.63204C3.66971 12.3652 3.19495 12.1957 3.19495 11.1783V5.59565C3.19495 4.5913 3.68254 4.12174 4.64487 4.12174H6.37708L6.95448 2.94783L7.53188 2.64783H9.5592L10.1366 2.94783L10.714 4.12174H12.7413C13.6908 4.12174 14.1912 4.57826 14.1912 5.59565V11.1783Z" fill="white" fill-opacity="0.5"/>
<path fill-rule="evenodd" clip-rule="evenodd" d="M12.151 5.89564V6.16955C12.151 6.33912 12.2921 6.46955 12.4461 6.46955H13.0107C13.1775 6.46955 13.3058 6.32608 13.3058 6.16955V5.89564C13.3058 5.72608 13.1647 5.59564 13.0107 5.59564H12.4461C12.2921 5.59564 12.151 5.72608 12.151 5.89564Z" fill="white" fill-opacity="0.5"/>
<path fill-rule="evenodd" clip-rule="evenodd" d="M8.54557 5.00867C6.71072 5.00867 5.20947 6.52171 5.20947 8.38693C5.20947 10.2521 6.69789 11.7782 8.54557 11.7782C10.3804 11.7782 11.8817 10.2652 11.8817 8.38693C11.8688 6.52171 10.3804 5.00867 8.54557 5.00867ZM8.54557 11.1782C7.03149 11.1782 5.79971 9.92606 5.79971 8.38693C5.79971 6.8478 7.03149 5.59562 8.54557 5.59562C10.0596 5.59562 11.2914 6.8478 11.2914 8.38693C11.2914 9.92606 10.0596 11.1782 8.54557 11.1782Z" fill="white" fill-opacity="0.5"/>
<path fill-rule="evenodd" clip-rule="evenodd" d="M8.54566 6.18262C7.33953 6.18262 6.3772 7.17392 6.3772 8.38696C6.3772 9.60001 7.35236 10.5913 8.54566 10.5913C9.73896 10.5913 10.7141 9.60001 10.7141 8.38696C10.7141 7.17392 9.73896 6.18262 8.54566 6.18262ZM9.73896 9.65218C9.41818 10.0435 8.93059 10.2913 8.40452 10.2913C7.44218 10.2913 6.67231 9.5087 6.67231 8.53044C6.67231 7.98262 6.91611 7.50001 7.30104 7.17392L7.3267 7.14783L7.24971 7.25218C7.07008 7.53914 6.9546 7.87827 6.9546 8.23044C6.9546 9.2087 7.72447 9.99131 8.6868 9.99131C9.04607 9.99131 9.37968 9.88697 9.64914 9.69131L9.75179 9.61305L9.73896 9.65218Z" fill="white" fill-opacity="0.5"/>
<path d="M22.2494 5.17829V1.08264H24.0586V6.99134C24.0586 7.83916 24.0458 8.38699 24.033 8.63482C24.0073 8.88264 23.956 9.14351 23.8533 9.40438C23.6224 10.0566 23.2374 10.6174 22.6729 11.1C22.0056 11.6609 21.2358 11.9348 20.3761 11.9348C19.2983 11.9348 18.4129 11.5305 17.6944 10.7087C17.0528 9.99134 16.7449 9.1696 16.7449 8.23047C16.7449 7.59134 16.9117 6.97829 17.2325 6.40438C17.5789 5.79134 18.028 5.32177 18.5926 4.98264C19.1315 4.6696 19.7345 4.50003 20.3761 4.50003C21.1844 4.51308 21.826 4.73482 22.2494 5.17829ZM20.3504 6.31308C19.773 6.31308 19.2983 6.53482 18.9262 6.99134C18.6311 7.33047 18.4899 7.74786 18.4899 8.21742C18.4899 8.64786 18.6311 9.05221 18.9262 9.41742C19.3111 9.91308 19.7987 10.1609 20.3761 10.1609C20.9407 10.1609 21.4154 9.93916 21.8132 9.50873C22.134 9.14351 22.3008 8.72612 22.3008 8.24351C22.3008 7.69569 22.0826 7.22612 21.6592 6.82177C21.3128 6.4696 20.8765 6.31308 20.3504 6.31308Z" fill="white" fill-opacity="0.5"/>
<path d="M30.7307 6.10434L26.907 9.97825C27.1508 10.0826 27.3561 10.1478 27.5229 10.1478C27.8822 10.1478 28.2287 10.0956 28.5623 9.99129C28.9344 9.8739 29.4348 9.58695 30.0507 9.14347L30.025 11.1C29.7427 11.2826 29.4861 11.4261 29.268 11.5435C28.7547 11.8043 28.203 11.9478 27.5999 11.9478C26.9455 11.9478 26.3296 11.7783 25.7651 11.4522C25.1748 11.113 24.7001 10.6435 24.3665 10.0565C24.0457 9.49564 23.8917 8.89564 23.8917 8.24347C23.8917 7.59129 24.0585 6.96521 24.3921 6.36521C24.7386 5.75216 25.2005 5.2826 25.7779 4.94347C26.3425 4.61738 26.9584 4.44781 27.6128 4.44781C28.4339 4.44781 29.1782 4.70868 29.8582 5.23042C30.102 5.42608 30.3971 5.71303 30.7307 6.10434ZM25.8677 8.90869L28.28 6.43042C27.9977 6.32608 27.7667 6.28695 27.5614 6.28695C26.9969 6.28695 26.5349 6.50868 26.1628 6.93912C25.8292 7.33042 25.6624 7.76086 25.6624 8.21738C25.6624 8.39999 25.7266 8.63477 25.8677 8.90869Z" fill="white" fill-opacity="0.5"/>
<path d="M30.551 14.2826L30.5382 8.34783C30.5382 7.5913 30.6922 6.92609 31.013 6.37826C31.3466 5.80435 31.7828 5.34783 32.3346 5.0087C32.8991 4.66957 33.515 4.5 34.1694 4.5C35.2472 4.5 36.1454 4.90435 36.8511 5.72609C37.467 6.43043 37.7878 7.25217 37.7878 8.20435C37.7878 9.3 37.39 10.213 36.5817 10.9435C35.8888 11.5696 35.0804 11.8957 34.1438 11.8957C33.6433 11.8957 33.2071 11.8043 32.835 11.6087C32.7195 11.5565 32.5655 11.4652 32.3602 11.3217V14.2826H30.551ZM34.0668 6.28696C33.5279 6.28696 33.0788 6.49565 32.7067 6.92609C32.3859 7.2913 32.2191 7.72174 32.2191 8.21739C32.2191 8.83043 32.4629 9.33913 32.9376 9.73043C33.2841 10.0174 33.6818 10.1478 34.1181 10.1478C34.6442 10.1478 35.0804 9.96522 35.4525 9.61304C35.8375 9.23478 36.0171 8.76522 36.0171 8.23043C36.0171 7.68261 35.799 7.2 35.3755 6.8087C35.0291 6.45652 34.5928 6.28696 34.0668 6.28696Z" fill="white" fill-opacity="0.5"/>
<path d="M41.3804 4.46088C41.9963 4.46088 42.5865 4.63044 43.1383 4.95653C43.7285 5.3087 44.1776 5.77827 44.5112 6.36522C44.832 6.92609 44.986 7.53914 44.986 8.19131C44.986 8.85653 44.8191 9.48262 44.4727 10.0826C44.1391 10.6696 43.6772 11.1391 43.0998 11.4783C42.5352 11.8174 41.9193 11.9739 41.2778 11.9739C40.6362 11.9739 40.0203 11.8044 39.4429 11.4652C38.8527 11.1261 38.3907 10.6696 38.07 10.0826C37.762 9.52175 37.5952 8.92175 37.5952 8.25653C37.5952 7.42175 37.8262 6.67827 38.2881 6.03914C38.6474 5.54348 39.0965 5.16522 39.6097 4.89131C40.1743 4.60435 40.7517 4.46088 41.3804 4.46088ZM41.2778 6.26088C40.726 6.26088 40.2769 6.45653 39.9177 6.83479C39.5584 7.20001 39.3787 7.66957 39.3787 8.2174C39.3787 8.79131 39.584 9.27392 40.0075 9.65218C40.3667 9.97827 40.7773 10.1348 41.2521 10.1348C41.8423 10.1348 42.3299 9.91305 42.7277 9.46957C43.0484 9.10435 43.2153 8.68696 43.2153 8.19131C43.2153 7.63044 42.9971 7.14783 42.5737 6.75653C42.2144 6.43044 41.7782 6.26088 41.2778 6.26088Z" fill="white" fill-opacity="0.5"/>
<path d="M44.6782 10.6044L45.7817 9.26088C46.218 9.87392 46.5901 10.1739 46.8852 10.1739C47.0392 10.1739 47.1803 10.1087 47.2829 9.99131C47.3728 9.88696 47.4241 9.76957 47.4241 9.63914C47.4241 9.52175 47.3856 9.40436 47.3086 9.30001C47.2316 9.18262 46.9622 9.03914 46.5002 8.88262C45.9613 8.68696 45.5507 8.37392 45.2813 7.95653C45.0632 7.6174 44.9477 7.22609 44.9477 6.75653C44.9477 6.36522 45.0375 6.01305 45.23 5.67392C45.6791 4.86522 46.3591 4.46088 47.2829 4.46088C47.9373 4.46088 48.4762 4.68262 48.9125 5.12609C49.0793 5.29566 49.2718 5.55653 49.4771 5.92175L48.2966 7.06957C48.1041 6.75653 47.9373 6.53479 47.7834 6.43044C47.6037 6.30001 47.4113 6.23479 47.2188 6.23479C47.0776 6.23479 46.975 6.28696 46.8852 6.37827C46.8082 6.46957 46.7697 6.56088 46.7697 6.67827C46.7697 6.76957 46.7954 6.86088 46.8595 6.96522C46.9493 7.08262 47.2444 7.25218 47.7705 7.46088C48.3094 7.68262 48.7072 7.99566 48.9638 8.42609C49.182 8.79131 49.2846 9.16957 49.2846 9.57392C49.2846 10.2652 49.0151 10.8652 48.4891 11.387C48.0528 11.8044 47.5267 12.0131 46.9237 12.0131C46.3463 12.0131 45.8202 11.8174 45.3454 11.4391C45.1658 11.2435 44.9348 10.9826 44.6782 10.6044Z" fill="white" fill-opacity="0.5"/>
<path d="M50.6058 1.72174C50.888 1.72174 51.1318 1.81305 51.35 1.99565C51.6322 2.23044 51.7606 2.53044 51.7606 2.9087C51.7606 3.27391 51.6322 3.57391 51.3756 3.8087C51.1575 4.00435 50.9009 4.09565 50.6186 4.09565C50.2593 4.09565 49.977 3.96522 49.7461 3.69131C49.5408 3.45652 49.4253 3.18261 49.4253 2.86957C49.4253 2.50435 49.5664 2.20435 49.8359 1.98261C50.054 1.81305 50.3106 1.72174 50.6058 1.72174ZM49.6178 11.7652V4.63044H51.4526V11.7522H49.6178V11.7652Z" fill="white" fill-opacity="0.5"/>
<path d="M51.9789 6.40432V4.6565H52.4665V3.28693L54.3013 2.80432V4.66954H55.9309V6.41737H54.2243V9.26084L54.2115 9.73041C54.2243 9.83476 54.2757 9.9391 54.3783 10.0304C54.4938 10.1348 54.6478 10.2 54.8274 10.2C54.9814 10.2 55.3278 10.1478 55.8795 10.0304V11.7391C55.4433 11.8435 55.0712 11.9087 54.7761 11.9087C53.8009 11.9087 53.1209 11.5565 52.7231 10.8652C52.5435 10.5391 52.4536 10.1348 52.4536 9.65215V6.40432H51.9789Z" fill="white" fill-opacity="0.5"/>
<path d="M58.0353 14.2826H56.2389L56.2133 8.34783C56.2133 7.5913 56.3672 6.92609 56.688 6.37826C57.0216 5.80435 57.4579 5.34783 58.0096 5.0087C58.5742 4.66957 59.1901 4.5 59.8445 4.5C60.9223 4.5 61.8205 4.90435 62.5262 5.72609C63.1421 6.43043 63.4629 7.25217 63.4629 8.20435C63.4629 9.3 63.0651 10.213 62.2567 10.9435C61.5638 11.5696 60.7555 11.8957 59.8188 11.8957C59.3184 11.8957 58.8821 11.8043 58.51 11.6087C58.3945 11.5565 58.2406 11.4652 58.0353 11.3217V14.2826ZM59.7547 6.28696C59.2157 6.28696 58.7667 6.49565 58.3946 6.92609C58.0738 7.2913 57.907 7.72174 57.907 8.21739C57.907 8.83043 58.1508 9.33913 58.6255 9.73043C58.972 10.0174 59.3697 10.1478 59.806 10.1478C60.3321 10.1478 60.7683 9.96522 61.1404 9.61304C61.5253 9.23478 61.705 8.76522 61.705 8.23043C61.705 7.68261 61.4869 7.2 61.0634 6.8087C60.7042 6.45652 60.2679 6.28696 59.7547 6.28696Z" fill="white" fill-opacity="0.5"/>
<path d="M63.7709 11.7653V1.08264H65.5672V5.08699C65.8367 4.82612 66.0676 4.64351 66.2473 4.55221C66.5039 4.42177 66.7862 4.3696 67.0685 4.3696C67.4919 4.3696 67.8897 4.50003 68.2361 4.77395C68.5825 5.03482 68.9033 5.58264 69.1728 6.40438L70.9948 11.7522H69.083L67.4791 6.91308C67.3636 6.57395 67.2481 6.36525 67.107 6.28699C66.9787 6.20873 66.8632 6.1696 66.7477 6.1696C66.4398 6.1696 66.1575 6.31308 65.888 6.60003C65.6699 6.83482 65.5672 7.17395 65.5672 7.64351V11.7522H63.7709V11.7653Z" fill="white" fill-opacity="0.5"/>
<path d="M74.0614 4.46088C74.6773 4.46088 75.2676 4.63044 75.8193 4.95653C76.4095 5.3087 76.8586 5.77827 77.1922 6.36522C77.513 6.92609 77.667 7.53914 77.667 8.19131C77.667 8.85653 77.5002 9.48262 77.1537 10.0826C76.8201 10.6696 76.3582 11.1391 75.7808 11.4783C75.2162 11.8174 74.6003 11.9739 73.9588 11.9739C73.3172 11.9739 72.7013 11.8044 72.1239 11.4652C71.5337 11.1261 71.0718 10.6696 70.751 10.0826C70.4431 9.52175 70.2762 8.92175 70.2762 8.25653C70.2762 7.42175 70.5072 6.67827 70.9691 6.03914C71.3284 5.54348 71.7775 5.16522 72.2907 4.89131C72.8553 4.60435 73.4455 4.46088 74.0614 4.46088ZM73.9588 6.26088C73.407 6.26088 72.958 6.45653 72.5987 6.83479C72.2394 7.20001 72.0598 7.66957 72.0598 8.2174C72.0598 8.79131 72.2651 9.27392 72.6885 9.65218C73.0478 9.97827 73.4584 10.1348 73.9331 10.1348C74.5234 10.1348 75.0109 9.91305 75.4087 9.46957C75.7295 9.10435 75.8963 8.68696 75.8963 8.19131C75.8963 7.63044 75.6782 7.14783 75.2547 6.75653C74.8955 6.43044 74.472 6.26088 73.9588 6.26088Z" fill="white" fill-opacity="0.5"/>
<path d="M77.5386 6.40432V4.6565H78.0262V3.28693L79.861 2.80432V4.66954H81.4906V6.41737H79.784V9.26084L79.7712 9.73041C79.784 9.83476 79.8353 9.9391 79.938 10.0304C80.0535 10.1348 80.2074 10.2 80.3871 10.2C80.5411 10.2 80.8875 10.1478 81.4392 10.0304V11.7391C81.003 11.8435 80.6309 11.9087 80.3358 11.9087C79.3606 11.9087 78.6805 11.5565 78.2828 10.8652C78.1031 10.5391 78.0133 10.1348 78.0133 9.65215V6.40432H77.5386Z" fill="white" fill-opacity="0.5"/>
<path d="M84.9036 4.46088C85.5195 4.46088 86.1097 4.63044 86.6615 4.95653C87.2517 5.3087 87.7008 5.77827 88.0344 6.36522C88.3552 6.92609 88.5091 7.53914 88.5091 8.19131C88.5091 8.85653 88.3423 9.48262 87.9959 10.0826C87.6623 10.6696 87.2004 11.1391 86.623 11.4783C86.0584 11.8174 85.4425 11.9739 84.8009 11.9739C84.1594 11.9739 83.5435 11.8044 82.9661 11.4652C82.3759 11.1261 81.9139 10.6696 81.5932 10.0826C81.2852 9.52175 81.1184 8.92175 81.1184 8.25653C81.1184 7.42175 81.3494 6.67827 81.8113 6.03914C82.1706 5.54348 82.6197 5.16522 83.1329 4.89131C83.6975 4.60435 84.2749 4.46088 84.9036 4.46088ZM84.7881 6.26088C84.2364 6.26088 83.7873 6.45653 83.428 6.83479C83.0687 7.20001 82.8891 7.66957 82.8891 8.2174C82.8891 8.79131 83.0944 9.27392 83.5178 9.65218C83.8771 9.97827 84.2877 10.1348 84.7624 10.1348C85.3527 10.1348 85.8403 9.91305 86.238 9.46957C86.5588 9.10435 86.7256 8.68696 86.7256 8.19131C86.7256 7.63044 86.5075 7.14783 86.0841 6.75653C85.7248 6.43044 85.3014 6.26088 84.7881 6.26088Z" fill="white" fill-opacity="0.5"/>
<path d="M88.2012 10.6044L89.3046 9.26088C89.7409 9.87392 90.113 10.1739 90.4081 10.1739C90.5621 10.1739 90.7032 10.1087 90.8059 9.99131C90.8957 9.88696 90.947 9.76957 90.947 9.63914C90.947 9.52175 90.9085 9.40436 90.8316 9.30001C90.7546 9.18262 90.4851 9.03914 90.0232 8.88262C89.4843 8.68696 89.0737 8.37392 88.8042 7.95653C88.5861 7.6174 88.4706 7.22609 88.4706 6.75653C88.4706 6.36522 88.5604 6.01305 88.7529 5.67392C89.202 4.86522 89.8821 4.46088 90.8059 4.46088C91.4603 4.46088 91.9992 4.68262 92.4354 5.12609C92.6023 5.29566 92.7947 5.55653 93 5.92175L91.8195 7.06957C91.6271 6.75653 91.4603 6.53479 91.3063 6.43044C91.1267 6.30001 90.9342 6.23479 90.7417 6.23479C90.6006 6.23479 90.4979 6.28696 90.4081 6.37827C90.3311 6.46957 90.2926 6.56088 90.2926 6.67827C90.2926 6.76957 90.3183 6.86088 90.3825 6.96522C90.4723 7.08262 90.7674 7.25218 91.2935 7.46088C91.8324 7.68262 92.2301 7.99566 92.4868 8.42609C92.7049 8.79131 92.8075 9.16957 92.8075 9.57392C92.8075 10.2652 92.5381 10.8652 92.012 11.387C91.5758 11.8044 91.0497 12.0131 90.4466 12.0131C89.8692 12.0131 89.3431 11.8174 88.8684 11.4391C88.6759 11.2435 88.4578 10.9826 88.2012 10.6044Z" fill="white" fill-opacity="0.5"/>
</svg>
