<svg xmlns="http://www.w3.org/2000/svg" width="51" height="50">
    <path fill="none" d="M.498-.006h49.989v49.938H.498V-.006z"/>
    <path fill="#FFF" fill-rule="evenodd" d="M46.404 40.56v.078c-.08.079-.08.157-.159.235l-7.921 7.825a.722.722 0 0 1-.554.234H10.047c-.475 0-.792-.313-.792-.782V35.63h1.584v11.737h26.139v-7.042c0-.469.317-.782.792-.782h7.129V3.549h-34.06v10.172H9.255V2.767c0-.47.317-.783.792-.783h35.644c.475 0 .792.313.792.783v37.558c0 .079 0 .157-.079.235zm-7.842.548v5.164l2.614-2.582 2.614-2.582h-5.228zM13.215 6.679h4.753v1.565h-4.753V6.679zm7.129 5.477h-7.129v-1.564h7.129v1.564zm.792 23.474h5.545v1.565h-5.545V35.63zm0 3.913h5.545v1.565h-5.545v-1.565zm0 3.912h5.545v1.565h-5.545v-1.565zm2.376-22.691V7.462c0-.47.317-.783.792-.783h16.634c.476 0 .792.313.792.783v13.302c0 .469-.316.782-.792.782H24.304c-.475 0-.792-.313-.792-.782zm7.129-.783h9.505v-7.042h-9.505v7.042zm0-8.607h9.505v-3.13h-9.505v3.13zm-5.545 8.607h3.961v-7.042h-3.961v7.042zm0-8.607h3.961v-3.13h-3.961v3.13zm15.842 17.997H24.304v-1.565h16.634v1.565zm-16.634-5.478h16.634v1.565H24.304v-1.565zm0 7.825h16.634v1.565H24.304v-1.565zm4.753 3.912h5.545v1.565h-5.545V35.63zm5.545 9.39h-5.545v-1.565h5.545v1.565zm-5.545-5.477h5.545v1.565h-5.545v-1.565zM13.215 35.63h5.545v1.565h-5.545V35.63zm5.545 9.39h-5.545v-1.565h5.545v1.565zm-5.545-5.477h5.545v1.565h-5.545v-1.565zm-3.96-18.779c0-.47.317-.783.792-.783h3.96v-4.695c0-.469.317-.782.792-.782h4.753c.475 0 .792.313.792.782v14.867h2.376v1.565H5.294c-.475 0-.792-.313-.792-.782v-6.26c0-.47.317-.783.792-.783h3.961v-3.129zm6.336 0v9.389h3.169V16.069h-3.169v4.695zm-4.752 3.912v5.477h3.168v-8.607h-3.168v3.13zm-4.753.782v4.695h3.169v-4.695H6.086z"/>
</svg>
