<svg height="75" viewBox="0 0 75 75" width="75" xmlns="http://www.w3.org/2000/svg"><g fill="#fff"><path d="m28.775 32.016c-.134 1.684-1 3.43-2.256 4.559a1.564 1.564 0 0 0 -.472 1.54l.637 2.554c.141.559.575.996 1.138 1.137l5.597 1.397c.771.19 1.49.562 2.137 1.106a1.562 1.562 0 0 0 2.203-.197 1.57 1.57 0 0 0 -.197-2.203 8.486 8.486 0 0 0 -3.384-1.744l-4.69-1.168-.197-.788a10.333 10.333 0 0 0 2.437-4.84 2.928 2.928 0 0 0 1.566-2.238l.337-2.712a2.91 2.91 0 0 0 -1.269-2.782l.082-1.66.284-.287c.806-.853 1.897-2.684.172-5.318-.819-1.25-2.503-2.747-5.888-2.747-.996 0-3.243 0-5.425 1.372-6.43.225-7.187 3.69-7.187 6.306 0 .516.094 1.481.181 2.287-.231.147-.44.329-.628.538a2.9 2.9 0 0 0 -.706 2.29l.337 2.72c.128 1.018.775 1.862 1.728 2.277a10.394 10.394 0 0 0 2.31 4.666l-.228.919-4.691 1.169a8.512 8.512 0 0 0 -6.453 8.268c0 .863.7 1.563 1.562 1.563h22.054a1.563 1.563 0 0 0 0-3.125l-20.257-.003a5.376 5.376 0 0 1 3.857-3.672l5.6-1.397c.559-.14.996-.575 1.137-1.137l.666-2.666a1.556 1.556 0 0 0 -.45-1.516c-1.216-1.146-2.02-2.818-2.154-4.475-.065-.812-.759-1.259-1.575-1.259l-.403-2.49c.45 0 .875-.194 1.172-.529.297-.34.435-.784.378-1.23-.119-.945-.31-2.648-.31-3.2 0-1.616 0-3.144 4.57-3.191.318-.003.63-.103.893-.294 1.488-1.066 3.2-1.066 4.022-1.066 2.4 0 3.054 1 3.282 1.334.634.975.375 1.25.2 1.438l-.678.678a1.56 1.56 0 0 0 -.457 1.028l-.168 3.403c-.02.425.03.719.325 1.031.29.31.593.37 1.018.375l-.203 2.538a1.56 1.56 0 0 0 -1.556 1.44zm16.537-7.016h9.375a1.563 1.563 0 0 0 0-3.125h-9.375a1.563 1.563 0 0 0 0 3.125z"/><path d="m67.188 0h-59.376c-4.309 0-7.812 3.503-7.812 7.812v40.625c0 4.31 3.503 7.813 7.812 7.813h23.12a1.563 1.563 0 0 0 0-3.125h-23.121a4.693 4.693 0 0 1 -4.687-4.688v-35.937h68.75v30.656a1.563 1.563 0 0 0 3.125 0v-35.344c.001-4.309-3.502-7.812-7.811-7.812zm4.687 9.375h-68.75v-1.563a4.693 4.693 0 0 1 4.687-4.687h59.375a4.693 4.693 0 0 1 4.688 4.687z"/><path d="m67.188 25a1.563 1.563 0 0 0 0-3.125h-6.25a1.563 1.563 0 0 0 0 3.125zm7.812 25c0-1.306-.972-2.219-2.362-2.219-.785 0-2.129.403-3.285 1.069-1.528-3.225-4.028-6.084-5.819-6.975-1.184-.59-5.218-1.25-8.847-1.25-3.628 0-7.662.66-8.85 1.25-1.784.89-4.284 3.75-5.815 6.975-1.16-.666-2.503-1.069-3.288-1.069-.593 0-1.103.153-1.512.463-.544.409-.847 1.034-.847 1.756 0 2.437 1.89 4.128 2.11 4.312.168.144.362.235.562.297a19.342 19.342 0 0 0 -1.11 6.328c0 2.335.216 6.316 1.563 8.35v2.588a3.09 3.09 0 0 0 3.125 3.125h3.125a3.09 3.09 0 0 0 3.125-3.125v-1.06c1.887.472 4.831 1.06 7.812 1.06 2.982 0 5.925-.588 7.813-1.06v1.06a3.09 3.09 0 0 0 3.125 3.125h3.125a3.09 3.09 0 0 0 3.125-3.125v-2.588c1.347-2.034 1.562-6.015 1.562-8.35 0-1.956-.362-4.256-1.109-6.328.2-.06.394-.15.562-.297.22-.184 2.11-1.875 2.11-4.312zm-27.772-5.325c.584-.269 3.919-.925 7.46-.925 3.54 0 6.875.656 7.45.919 1.184.593 3.934 3.71 5.028 7.106-2.938.412-9.882 1.35-12.478 1.35-2.597 0-9.544-.938-12.482-1.35 1.094-3.397 3.844-6.512 5.022-7.1zm-8.825 7.153c-.1-.1-.253-.262-.434-.528.206.097.403.206.587.316-.05.071-.103.137-.153.212zm5.347 20.047h-3.125v-1.563h3.125zm25 0h-3.125v-1.563h3.125zm.719-4.687h-5.407c-.165 0-.33.028-.493.078-.044.015-4.52 1.484-8.882 1.484s-8.837-1.469-8.88-1.481c-.054-.016-.107-.003-.16-.013-.11-.025-.216-.068-.335-.068h-5.412c-.41-.935-.84-3.088-.84-6.247 0-.497.037-1.025.093-1.56 2.1.06 4.597.77 4.597 1.557a1.563 1.563 0 0 0 3.125 0c0-3.82-5.156-4.522-7.11-4.654.176-.571.385-1.109.623-1.615l.009.003c.437.066 10.753 1.578 14.29 1.578 3.538 0 13.854-1.512 14.291-1.578.003 0 .003-.003.006-.003.238.506.447 1.044.622 1.615-1.953.132-7.106.838-7.106 4.654a1.563 1.563 0 0 0 3.125 0c0-.804 2.481-1.491 4.594-1.557.056.535.094 1.063.094 1.556 0 3.163-.435 5.316-.844 6.25zm1.5-15.363c-.05-.072-.1-.14-.153-.21.184-.109.384-.221.587-.318-.153.231-.31.403-.434.528zm-25.657-17.45h21.875a1.563 1.563 0 0 0 0-3.125h-21.875a1.563 1.563 0 0 0 0 3.125z"/><path d="m57.813 59.375h-6.25a1.563 1.563 0 0 0 0 3.125h6.25a1.563 1.563 0 0 0 0-3.125z"/></g></svg>