<svg xmlns="http://www.w3.org/2000/svg" width="130" height="130" viewBox="0 0 130 130">
    <g fill="none" fill-rule="evenodd">
        <circle cx="65" cy="65" r="65" fill="#D4002A"/>
        <g fill="#FFF" fill-rule="nonzero">
            <path d="M61.125 42h-30.25C27.085 42 24 45.044 24 48.786v43.428C24 95.956 27.084 99 30.875 99H48.75v-2.714H30.875c-2.274 0-4.125-1.827-4.125-4.072V48.786c0-2.245 1.85-4.072 4.125-4.072h30.25c2.274 0 4.125 1.827 4.125 4.072v1.357H68v-1.357C68 45.044 64.916 42 61.125 42zM54.833 24H38.167C35.869 24 34 25.795 34 28s1.87 4 4.167 4h16.666C57.131 32 59 30.205 59 28s-1.87-4-4.167-4zm0 5.333H38.167c-.766 0-1.39-.598-1.39-1.333s.624-1.333 1.39-1.333h16.666c.766 0 1.39.598 1.39 1.333s-.624 1.333-1.39 1.333z"/>
            <path d="M39 31h3v12h-3zM50 31h3v12h-3zM32 65h3v25h-3zM49 50h3v11h-3zM30 96c-2.757 0-5 2.243-5 5s2.243 5 5 5 5-2.243 5-5-2.243-5-5-5zm0 7.143A2.145 2.145 0 0 1 27.857 101c0-1.182.962-2.143 2.143-2.143 1.181 0 2.143.961 2.143 2.143A2.145 2.145 0 0 1 30 103.143zM40 50h3v40h-3z"/>
            <path d="M38.903 61.675l-2.728-6.817a1.362 1.362 0 0 0-1.804-.746l-9.545 4.09A1.361 1.361 0 0 0 24 59.455v8.182a1.364 1.364 0 0 0 1.919 1.244l12.272-5.454c.67-.297.983-1.07.712-1.752zm-12.176 3.863v-5.184l7.434-3.185 1.721 4.3-9.155 4.07z"/>
            <path d="M32 50h3v7h-3zM57 50h3v11h-3zM62 96c-2.757 0-5 2.243-5 5s2.243 5 5 5 5-2.243 5-5-2.243-5-5-5zm0 7.143A2.145 2.145 0 0 1 59.857 101c0-1.182.962-2.143 2.143-2.143 1.181 0 2.143.961 2.143 2.143A2.145 2.145 0 0 1 62 103.143z"/>
            <path d="M98.222 58H50.778C47.04 58 44 61.066 44 64.833v27.334C44 95.934 47.04 99 50.778 99h47.444c3.737 0 6.778-3.065 6.778-6.833V64.833c0-3.767-3.04-6.833-6.778-6.833zm4.067 34.167c0 2.26-1.825 4.1-4.067 4.1H50.778c-2.242 0-4.067-1.84-4.067-4.1V64.833c0-2.26 1.825-4.1 4.067-4.1h47.444c2.242 0 4.067 1.84 4.067 4.1v27.334z"/>
            <path d="M81.636 53H69.364c-.755 0-1.364.627-1.364 1.4V60h2.727v-4.2h9.546V60H83v-5.6c0-.773-.61-1.4-1.364-1.4z"/>
            <path d="M81.158 47H68.842C65.07 47 62 49.99 62 53.667V59h2.737v-5.333c0-2.206 1.842-4 4.105-4h12.316c2.263 0 4.105 1.794 4.105 4V59H88v-5.333C88 49.99 84.93 47 81.158 47zM80.751 73.886l-6.666-9.359c-.5-.703-1.67-.703-2.17 0l-6.666 9.36A1.334 1.334 0 1 0 66.334 76l13.333-.001c.5 0 .957-.28 1.185-.725a1.34 1.34 0 0 0-.1-1.389zm-11.826-.56L73 67.606l4.074 5.72h-8.15zM94.1 77.481c-4.258-1.406-8.656.375-9.812 3.967-.58 1.797-.278 3.745.85 5.487 1.065 1.646 2.758 2.918 4.765 3.583.99.327 1.986.482 2.948.482 3.177 0 5.979-1.69 6.868-4.448 1.157-3.594-1.363-7.663-5.619-9.07zm3.043 8.22c-.693 2.157-3.566 3.147-6.4 2.21-1.427-.474-2.614-1.354-3.344-2.48-.667-1.032-.86-2.144-.54-3.131.516-1.604 2.238-2.562 4.252-2.562.694 0 1.422.113 2.146.353 2.837.94 4.58 3.456 3.886 5.61zM51 96c-2.757 0-5 2.243-5 5s2.243 5 5 5 5-2.243 5-5-2.243-5-5-5zm0 7.143A2.145 2.145 0 0 1 48.857 101c0-1.182.962-2.143 2.143-2.143 1.181 0 2.143.961 2.143 2.143A2.145 2.145 0 0 1 51 103.143zM100 96c-2.757 0-5 2.243-5 5s2.243 5 5 5 5-2.243 5-5-2.243-5-5-5zm0 7.143A2.145 2.145 0 0 1 97.857 101c0-1.182.962-2.143 2.143-2.143 1.181 0 2.143.961 2.143 2.143a2.145 2.145 0 0 1-2.143 2.143zM57 87h3v11h-3zM57.667 58h-5.334c-.736 0-1.333.627-1.333 1.4v16.8h2.667V60.8h2.666V79H59V59.4c0-.773-.597-1.4-1.333-1.4z"/>
            <path d="M51 83h3v15h-3zM96 88h3v10h-3zM97.667 58h-5.334c-.737 0-1.333.606-1.333 1.353v18.941h2.667V60.706h2.666V81H99V59.353c0-.747-.596-1.353-1.333-1.353zM91 90h3v8h-3z"/>
            <path d="M62.339 80.794L46.357 71l-1.342 2.42 14.903 9.131-1.463 3.072-12.085-7.618-1.37 2.4L58.318 88.8a1.29 1.29 0 0 0 1.059.144c.355-.11.652-.37.819-.718l2.664-5.596c.313-.66.086-1.463-.521-1.836z"/>
        </g>
    </g>
</svg>
