<svg height="130" viewBox="0 0 130 130" width="130" xmlns="http://www.w3.org/2000/svg"><g fill="none" fill-rule="evenodd"><circle cx="65" cy="65" fill="#d4002a" r="65"/><g fill="#fff" fill-rule="nonzero" transform="translate(43 24)"><path d="m38.444 0h-32.888c-3.023 0-5.481 2.452-5.481 5.467v71.066c0 3.015 2.458 5.467 5.481 5.467h32.888c3.023 0 5.481-2.452 5.481-5.467v-71.066c0-3.015-2.458-5.467-5.481-5.467zm2.74 76.533a2.74 2.74 0 0 1 -2.74 2.734h-32.888a2.74 2.74 0 0 1 -2.74-2.734v-71.066a2.74 2.74 0 0 1 2.74-2.734h32.888a2.74 2.74 0 0 1 2.74 2.734z"/><path d="m1.445 68.333h41.109v2.733h-41.109zm0-57.4h12.333v2.733h-12.333zm15.074 62.867h10.963v2.733h-10.963zm12.333-62.867h13.703v2.733h-13.703zm-11.766 16.4 3.142-3.133-1.937-1.933-4.111 4.1a1.362 1.362 0 0 0 0 1.933l6.851 6.833 1.938-1.932zm9.434-8.597 1.938-1.938 5.467 5.467-1.938 1.938z"/><path d="m22 4.1a8.684 8.684 0 0 0 -4.83 1.46c-3.99 2.656-5.07 8.056-2.408 12.035l6.098 9.129a1.373 1.373 0 0 0 2.282 0l6.097-9.128a8.632 8.632 0 0 0 1.464-4.817c-.001-4.785-3.906-8.679-8.703-8.679zm4.958 11.979-4.958 7.421-4.96-7.424c-1.823-2.725-1.083-6.424 1.65-8.245.983-.653 2.127-.999 3.31-.999 3.286 0 5.96 2.668 5.96 5.944 0 1.178-.346 2.32-1.002 3.302z"/><ellipse cx="22" cy="12.3" rx="2.741" ry="2.733"/><path d="m41.586 12.7-27.808 27.734-11.364-11.334-1.938 1.933 12.333 12.3a1.369 1.369 0 0 0 1.938 0l28.777-28.7zm-32.32 34.167-6.852-6.833-1.938 1.932 5.883 5.867-5.883 5.867 1.938 1.933 6.852-6.833a1.363 1.363 0 0 0 0-1.933zm34.258-13.101-1.938-1.932-19.186 19.133a1.363 1.363 0 0 0 0 1.933l17.815 17.766 1.937-1.932-16.845-16.8 18.216-18.168zm-24.666 22.668a1.371 1.371 0 0 0 -1.938 0l-12.333 12.3 1.938 1.932 11.364-11.334 11.364 11.334 1.938-1.932zm-8.222-1.368a1.363 1.363 0 0 0 -1.402-.33l-4.11 1.367a1.368 1.368 0 0 0 -.537 2.263l2.741 2.734a1.374 1.374 0 0 0 1.284.363c.462-.11.835-.449.985-.898l1.37-4.1a1.365 1.365 0 0 0 -.331-1.398zm2.174-2.728 2.74-2.74 1.933 1.932-2.74 2.74zm5.482-5.468 2.74-2.74 1.933 1.933-2.74 2.74zm5.481-5.468 2.74-2.74 1.933 1.933-2.74 2.74zm10.158-8.202-2.74-2.733-1.938 1.933 1.772 1.767-1.772 1.767 1.938 1.932 2.74-2.733a1.363 1.363 0 0 0 0-1.933z"/><path d="m39.413 56.434-5.482-5.467a1.371 1.371 0 0 0 -1.937 0l-4.111 4.1 1.937 1.933 3.143-3.134 3.543 3.534-3.142 3.134 1.938 1.932 4.11-4.1a1.362 1.362 0 0 0 0-1.932z"/></g></g></svg>