<svg height="130" viewBox="0 0 130 130" width="130" xmlns="http://www.w3.org/2000/svg"><g fill="none" fill-rule="evenodd"><circle cx="65" cy="65" fill="#d4002a" r="65"/><g fill="#fff" fill-rule="nonzero"><path d="m49.473 40.402c-.7 0-1.266.574-1.266 1.282 0 1.554-1.25 2.819-2.785 2.819s-2.784-1.265-2.784-2.82c0-1.554 1.249-2.818 2.784-2.818.7 0 1.266-.574 1.266-1.282s-.567-1.281-1.266-1.281c-2.931 0-5.316 2.414-5.316 5.382 0 2.967 2.385 5.381 5.316 5.381 2.932 0 5.317-2.414 5.317-5.381 0-.708-.567-1.282-1.266-1.282zm0 15.035c-.7 0-1.266.574-1.266 1.282 0 1.554-1.25 2.82-2.785 2.82s-2.784-1.266-2.784-2.82c0-1.555 1.249-2.82 2.784-2.82.7 0 1.266-.573 1.266-1.28 0-.708-.567-1.282-1.266-1.282-2.931 0-5.316 2.414-5.316 5.382 0 2.967 2.385 5.382 5.316 5.382 2.932 0 5.317-2.415 5.317-5.382 0-.708-.567-1.282-1.266-1.282zm14.852 2.734h-9.451c-.7 0-1.266.574-1.266 1.282s.566 1.281 1.266 1.281h9.45c.7 0 1.267-.573 1.267-1.281s-.567-1.282-1.266-1.282zm0-5.467h-9.451c-.7 0-1.266.574-1.266 1.281 0 .708.566 1.282 1.266 1.282h9.45c.7 0 1.267-.574 1.267-1.282 0-.707-.567-1.281-1.266-1.281zm-2.7 20.503h-6.751c-.7 0-1.266.573-1.266 1.281s.566 1.281 1.266 1.281h6.75c.7 0 1.266-.573 1.266-1.281s-.566-1.281-1.265-1.281zm2.7-5.467h-9.451c-.7 0-1.266.573-1.266 1.28 0 .709.566 1.282 1.266 1.282h9.45c.7 0 1.267-.573 1.267-1.281s-.567-1.282-1.266-1.282zm12.152-24.604h-21.603c-.7 0-1.266.574-1.266 1.281 0 .708.566 1.282 1.266 1.282h21.602c.7 0 1.266-.574 1.266-1.282 0-.707-.566-1.281-1.265-1.281zm-5.401-5.468h-16.202c-.7 0-1.266.574-1.266 1.282s.566 1.281 1.266 1.281h16.202c.699 0 1.266-.573 1.266-1.281s-.567-1.282-1.266-1.282zm-21.603 32.805c-.7 0-1.266.574-1.266 1.281 0 1.555-1.25 2.82-2.785 2.82s-2.784-1.265-2.784-2.82c0-1.554 1.249-2.819 2.784-2.819.7 0 1.266-.573 1.266-1.281s-.567-1.282-1.266-1.282c-2.931 0-5.316 2.415-5.316 5.382 0 2.968 2.385 5.382 5.316 5.382 2.932 0 5.317-2.414 5.317-5.382 0-.707-.567-1.281-1.266-1.281z"/><path d="m81.872 24h-45.906c-2.186 0-3.966 1.801-3.966 4.015v57.408c0 2.214 1.78 4.015 3.966 4.015h22.954c.7 0 1.266-.574 1.266-1.282 0-.707-.567-1.281-1.266-1.281h-22.954a1.445 1.445 0 0 1 -1.434-1.452v-57.408c0-.8.643-1.452 1.434-1.452h45.906c.791 0 1.435.651 1.435 1.452v42.373c0 .707.567 1.281 1.266 1.281s1.266-.574 1.266-1.281v-42.373c0-2.214-1.78-4.015-3.967-4.015z"/><path d="m93.828 75.964a4.63 4.63 0 0 0 -3.283.934c-.741-1.259-2.005-2.152-3.468-2.3a4.63 4.63 0 0 0 -3.283.934c-.741-1.26-2.005-2.153-3.468-2.301a4.628 4.628 0 0 0 -2.584.49v-16.319a4.734 4.734 0 0 0 -1.528-3.484 4.626 4.626 0 0 0 -3.587-1.19c-2.337.237-4.167 2.376-4.167 4.87v16.36l-3.721 3.766a8.131 8.131 0 0 0 -2.135 7.598l2.825 12.154c1.144 4.925 5.434 8.364 10.432 8.364h11.417c5.91 0 10.717-4.866 10.717-10.849v-14.157c0-2.494-1.83-4.633-4.167-4.87zm1.635 19.027c0 4.569-3.672 8.286-8.185 8.286h-11.417c-3.817 0-7.094-2.627-7.968-6.388l-2.825-12.154a5.564 5.564 0 0 1 1.46-5.199l1.932-1.955v4.425c0 .707.566 1.281 1.266 1.281.699 0 1.265-.574 1.265-1.281v-24.409c0-1.193.83-2.212 1.888-2.319a2.08 2.08 0 0 1 1.637.54c.442.405.695.982.695 1.585v22.553c0 .707.567 1.281 1.266 1.281s1.266-.574 1.266-1.281v-2.05c0-.603.253-1.18.694-1.585a2.08 2.08 0 0 1 1.637-.54c1.059.107 1.888 1.126 1.888 2.32v3.221c0 .708.567 1.282 1.266 1.282s1.266-.574 1.266-1.282v-2.05c0-.602.253-1.18.695-1.585a2.08 2.08 0 0 1 1.636-.54c1.059.108 1.888 1.126 1.888 2.32v3.222c0 .707.567 1.281 1.266 1.281s1.266-.573 1.266-1.281v-2.05c0-.603.253-1.18.695-1.585a2.08 2.08 0 0 1 1.636-.54c1.059.107 1.888 1.126 1.888 2.32v14.156z"/></g></g></svg>