<svg width="25" height="25" fill="none" xmlns="http://www.w3.org/2000/svg"><path fill-rule="evenodd" clip-rule="evenodd" d="M4.169.553c.663 0 1.2.53 1.199 1.182l-.002 2.572c1.396.488 2.395 1.8 2.395 3.342 0 1.543-1.001 2.857-2.4 3.344l-.007 12.015a1.19 1.19 0 0 1-1.202 1.181c-.662 0-1.198-.53-1.198-1.182l.008-12.014C1.562 10.507.56 9.193.56 7.65c0-1.546 1.004-2.86 2.405-3.345l.002-2.57a1.192 1.192 0 0 1 1.2-1.181zM4.16 8.83c.663 0 1.2-.53 1.2-1.182a1.19 1.19 0 0 0-1.2-1.182c-.664 0-1.2.53-1.2 1.182a1.19 1.19 0 0 0 1.2 1.182zM20.969.553c.663 0 1.2.53 1.199 1.182l-.002 5.728c1.396.488 2.395 1.8 2.395 3.342 0 1.543-1.001 2.857-2.4 3.344l-.008 8.86a1.19 1.19 0 0 1-1.2 1.18c-.663 0-1.2-.53-1.2-1.182l.009-8.858c-1.4-.486-2.402-1.8-2.402-3.344 0-1.546 1.005-2.86 2.406-3.345l.002-5.726a1.192 1.192 0 0 1 1.2-1.181zm-.009 11.434c.664 0 1.2-.53 1.2-1.182a1.19 1.19 0 0 0-1.2-1.182c-.663 0-1.2.53-1.2 1.182a1.19 1.19 0 0 0 1.2 1.182zM13.768 23.006a1.19 1.19 0 0 1-1.2 1.183c-.662 0-1.2-.528-1.2-1.181l-.002-2.57c-1.401-.485-2.405-1.8-2.405-3.345 0-1.544 1.002-2.858 2.4-3.344l-.008-12.014c0-.653.537-1.182 1.2-1.182a1.19 1.19 0 0 1 1.2 1.18l.009 12.016c1.398.487 2.398 1.8 2.398 3.344 0 1.541-.998 2.854-2.394 3.342l.002 2.571zm-.008-5.913a1.19 1.19 0 0 0-1.2-1.182c-.663 0-1.2.53-1.2 1.182a1.19 1.19 0 0 0 1.2 1.181c.664 0 1.2-.529 1.2-1.181z" fill="#fff"/></svg>