<svg xmlns="http://www.w3.org/2000/svg" width="51" height="51">
    <path fill="none" fill-rule="evenodd" d="M.274.994h49.93v49.937H.274V.994z"/>
    <path fill="#FFF" fill-rule="evenodd" d="M49.017 14.329c-.541 1.279-1.609.72-2.04.62-.433-.098-4.5-2.348-4.5-2.348s-4.188 5.326-5.043 5.787c-.857.462-1.727-.598-1.727-.598l4.318-7.142-3.476-2.379-2.817 1.501-1.09-1.091s2.068-1.387 2.588-2.127c.526-.741.895-3.8.895-3.8l1.262 1.109.024 2.682 4.132 1.775 4.02-7.339s1.012.362 1.217 1.297c.207.935-2.179 7.684-2.179 7.684l3.74 2.253c.44.264 1.215.836.676 2.116zM32.468 7.111a24.278 24.278 0 0 0-4.036-.356c-13.321 0-24.156 10.718-24.156 23.892 0 8.56 5.012 15.753 11.442 20.3-5.938-.001-13.416-10.086-14.16-15.899a34.524 34.524 0 0 1-.258-4.401C1.3 15.85 13.469 3.811 28.432 3.811c1.828 0 4.343.37 6.068.714l-.504 1.655-1.528.931zm-18.55 35.484a17.662 17.662 0 0 1-.873-1.128A17.766 17.766 0 0 1 9.696 31.08c0-3.867 1.243-7.449 3.349-10.387.276-.387.567-.763.873-1.127a18.259 18.259 0 0 1 13.883-6.497l.063-.002h.043c2.814 0 5.481.637 7.861 1.768l-.799 1.271a16.548 16.548 0 0 0-1.869-.741c1.701 1.604 3.11 3.966 4.078 6.806 1.314-.48 2.496-1.061 3.513-1.719a16.753 16.753 0 0 0-1.849-1.823l1.045-1.068c.716.62 1.401 1.279 2.012 2.005.308.362.597.74.874 1.126a17.775 17.775 0 0 1 3.346 10.387c0 3.866-1.241 7.448-3.346 10.387-.277.386-.568.765-.874 1.129a18.258 18.258 0 0 1-13.992 6.497h-.043c-.02 0-.04-.003-.063-.003a18.25 18.25 0 0 1-13.883-6.494zm27.649-21.013c-1.152.76-2.488 1.425-3.968 1.968.621 2.25.976 4.744.989 7.376h6.031a16.312 16.312 0 0 0-3.052-9.344zm3 10.823h-6.008a28.045 28.045 0 0 1-.959 6.202c1.479.546 2.817 1.21 3.968 1.973a16.33 16.33 0 0 0 2.999-8.175zm-3.879 9.3c-1.016-.657-2.196-1.236-3.508-1.716-.966 2.842-2.382 5.201-4.081 6.805a16.77 16.77 0 0 0 7.589-5.089zM28.655 47.55c3.033-.464 5.647-3.568 7.134-8.016-2.144-.628-4.564-1.009-7.134-1.071v9.087zm0-10.566c2.709.066 5.269.477 7.551 1.161.466-1.766.767-3.7.858-5.74h-8.409v4.579zm0-6.055h8.438a27.564 27.564 0 0 0-.893-6.912c-2.282.683-4.836 1.093-7.545 1.157v5.755zm0-7.232c2.57-.061 4.988-.441 7.129-1.069-1.484-4.447-4.096-7.555-7.129-8.018v9.087zm-14.407 16.88c1.13-.746 2.44-1.401 3.888-1.939a28.11 28.11 0 0 1-.967-6.233H11.25a16.308 16.308 0 0 0 2.998 8.172zm-3.053-9.648h5.946c.012-2.645.371-5.15.995-7.407-1.448-.538-2.758-1.192-3.888-1.94a16.322 16.322 0 0 0-3.053 9.347zm3.93-10.478c.996.647 2.152 1.218 3.437 1.692.959-2.802 2.349-5.137 4.022-6.734a16.791 16.791 0 0 0-7.459 5.042zm12.036-5.853c-3.065.417-5.708 3.531-7.209 8.007 2.161.641 4.61 1.029 7.209 1.091v-9.098zm0 10.575c-2.741-.065-5.325-.484-7.624-1.181a27.55 27.55 0 0 0-.901 6.934h8.525v-5.753zm0 7.232h-8.495c.092 2.052.394 3.993.865 5.763 2.301-.698 4.888-1.118 7.63-1.184v-4.579zm0 15.155v-9.098c-2.601.065-5.05.451-7.213 1.093 1.502 4.479 4.148 7.589 7.213 8.005zm-8.601-7.543a17.474 17.474 0 0 0-3.43 1.688 16.763 16.763 0 0 0 7.454 5.045c-1.674-1.597-3.065-3.93-4.024-6.733z"/>
</svg>
