<svg xmlns="http://www.w3.org/2000/svg" width="71" height="71">
    <path fill="none" d="M0 0h71v71H0V0z" opacity=".2"/>
    <path fill="#387FBF" fill-rule="evenodd" d="M68.833 69H1.167C.467 69 0 68.538 0 67.845V17.017c0-.693.467-1.155 1.167-1.155h3.5v-1.155c0-.693.467-1.155 1.167-1.155.699 0 1.166.462 1.166 1.155v1.155h4.667v-1.155c0-.693.466-1.155 1.166-1.155S14 14.014 14 14.707v1.155h4.667V5.465c0-.693.467-1.155 1.167-1.155h10.5V3.155C30.334 2.462 30.8 2 31.5 2s1.167.462 1.167 1.155V4.31h4.667V3.155C37.334 2.462 37.8 2 38.5 2s1.167.462 1.167 1.155V4.31h10.5c.7 0 1.166.462 1.166 1.155v10.397H56v-1.155c0-.693.467-1.155 1.167-1.155s1.166.462 1.166 1.155v1.155H63v-1.155c0-.693.467-1.155 1.167-1.155s1.166.462 1.166 1.155v1.155h3.5c.7 0 1.167.462 1.167 1.155v50.828c0 .693-.467 1.155-1.167 1.155zM18.667 18.172H2.333v39.276h16.334V18.172zm0 41.587H2.333v6.931h16.334v-6.931zm17.5 6.931h7v-9.242h-7v9.242zm-9.334 0h7v-9.242h-7v9.242zM49 58.603V6.621H21V66.69h3.5V56.293c0-.693.467-1.155 1.167-1.155h18.666c.7 0 1.167.462 1.167 1.155V66.69H49v-8.087zm18.667-40.431H51.333v39.276h16.334V18.172zm0 41.587H51.333v6.931h16.334v-6.931zm-9.334-39.276h2.334c1.283 0 2.333 1.039 2.333 2.31v2.31c0 1.271-1.05 2.311-2.333 2.311h-2.334c-1.283 0-2.333-1.04-2.333-2.311v-2.31c0-1.271 1.05-2.31 2.333-2.31zm0 4.62h2.334v-2.31h-2.334v2.31zm0 4.621h2.334c1.283 0 2.333 1.04 2.333 2.31v2.311c0 1.27-1.05 2.31-2.333 2.31h-2.334c-1.283 0-2.333-1.04-2.333-2.31v-2.311c0-1.27 1.05-2.31 2.333-2.31zm0 4.621h2.334v-2.311h-2.334v2.311zm0 4.62h2.334c1.283 0 2.333 1.04 2.333 2.311v2.31c0 1.271-1.05 2.31-2.333 2.31h-2.334c-1.283 0-2.333-1.039-2.333-2.31v-2.31c0-1.271 1.05-2.311 2.333-2.311zm0 4.621h2.334v-2.31h-2.334v2.31zm0 4.621h2.334c1.283 0 2.333 1.039 2.333 2.31v2.311c0 1.27-1.05 2.31-2.333 2.31h-2.334c-1.283 0-2.333-1.04-2.333-2.31v-2.311c0-1.271 1.05-2.31 2.333-2.31zm0 4.621h2.334v-2.311h-2.334v2.311zM42 47.052h-2.333c-1.284 0-2.334-1.04-2.334-2.311v-2.31c0-1.271 1.05-2.31 2.334-2.31H42c1.283 0 2.333 1.039 2.333 2.31v2.31c0 1.271-1.05 2.311-2.333 2.311zm0-4.621h-2.333v2.31H42v-2.31zm0-4.621h-2.333c-1.284 0-2.334-1.039-2.334-2.31v-2.31c0-1.271 1.05-2.311 2.334-2.311H42c1.283 0 2.333 1.04 2.333 2.311v2.31c0 1.271-1.05 2.31-2.333 2.31zm0-4.62h-2.333v2.31H42v-2.31zm0-4.621h-2.333c-1.284 0-2.334-1.04-2.334-2.31v-2.311c0-1.271 1.05-2.31 2.334-2.31H42c1.283 0 2.333 1.039 2.333 2.31v2.311c0 1.27-1.05 2.31-2.333 2.31zm0-4.621h-2.333v2.311H42v-2.311zm0-4.621h-2.333c-1.284 0-2.334-1.039-2.334-2.31v-2.31c0-1.271 1.05-2.311 2.334-2.311H42c1.283 0 2.333 1.04 2.333 2.311v2.31c0 1.271-1.05 2.31-2.333 2.31zm0-4.62h-2.333v2.31H42v-2.31zM30.333 47.052H28c-1.283 0-2.333-1.04-2.333-2.311v-2.31c0-1.271 1.05-2.31 2.333-2.31h2.333c1.284 0 2.334 1.039 2.334 2.31v2.31c0 1.271-1.05 2.311-2.334 2.311zm0-4.621H28v2.31h2.333v-2.31zm0-4.621H28c-1.283 0-2.333-1.039-2.333-2.31v-2.31c0-1.271 1.05-2.311 2.333-2.311h2.333c1.284 0 2.334 1.04 2.334 2.311v2.31c0 1.271-1.05 2.31-2.334 2.31zm0-4.62H28v2.31h2.333v-2.31zm0-4.621H28c-1.283 0-2.333-1.04-2.333-2.31v-2.311c0-1.271 1.05-2.31 2.333-2.31h2.333c1.284 0 2.334 1.039 2.334 2.31v2.311c0 1.27-1.05 2.31-2.334 2.31zm0-4.621H28v2.311h2.333v-2.311zm0-4.621H28c-1.283 0-2.333-1.039-2.333-2.31v-2.31c0-1.271 1.05-2.311 2.333-2.311h2.333c1.284 0 2.334 1.04 2.334 2.311v2.31c0 1.271-1.05 2.31-2.334 2.31zm0-4.62H28v2.31h2.333v-2.31zm-21 5.776h2.334c1.283 0 2.333 1.039 2.333 2.31v2.31c0 1.271-1.05 2.311-2.333 2.311H9.333C8.05 27.414 7 26.374 7 25.103v-2.31c0-1.271 1.05-2.31 2.333-2.31zm0 4.62h2.334v-2.31H9.333v2.31zm0 4.621h2.334c1.283 0 2.333 1.04 2.333 2.31v2.311c0 1.27-1.05 2.31-2.333 2.31H9.333C8.05 36.655 7 35.615 7 34.345v-2.311c0-1.27 1.05-2.31 2.333-2.31zm0 4.621h2.334v-2.311H9.333v2.311zm0 4.62h2.334c1.283 0 2.333 1.04 2.333 2.311v2.31c0 1.271-1.05 2.311-2.333 2.311H9.333C8.05 45.897 7 44.857 7 43.586v-2.31c0-1.271 1.05-2.311 2.333-2.311zm0 4.621h2.334v-2.31H9.333v2.31zm0 4.621h2.334c1.283 0 2.333 1.039 2.333 2.31v2.311c0 1.27-1.05 2.31-2.333 2.31H9.333C8.05 55.138 7 54.098 7 52.828v-2.311c0-1.271 1.05-2.31 2.333-2.31zm0 4.621h2.334v-2.311H9.333v2.311z"/>
</svg>
