<svg fill="none" height="20" viewBox="0 0 20 20" width="20" xmlns="http://www.w3.org/2000/svg"><path clip-rule="evenodd" d="m10.7799 14.1787c-.0103.257-.0925.4471-.2467.5705-.1542.1233-.3238.185-.5088.185s-.34946-.0565-.49337-.1696c-.1439-.1131-.23127-.2878-.26211-.5242l-.04625-5.85896c.05139-.21586.1439-.37775.27753-.48567.13362-.10793.29294-.16189.47796-.16189.16444 0 .31864.04882.46254.14647s.2416.24926.293.45484zm-1.6569-8.24876c0-.23641.0848-.43941.2544-.60902.1696-.1696.37261-.2544.60902-.2544.24668 0 .45488.0848.62448.2544.1696.16961.2544.37261.2544.60902 0 .23642-.0848.43685-.2544.60131-.1696.16447-.3778.2467-.62448.2467-.23641 0-.43942-.08223-.60902-.2467-.1696-.16446-.2544-.36489-.2544-.60131zm-5.85173 12.05846 2.91269-.8405c.12837-.037.26587-.0256.38638.032 1.06129.508 2.22598.7752 3.42976.7752 4.3934 0 7.955-3.5616 7.955-7.955 0-4.39345-3.5616-7.95502-7.955-7.95502-4.39345 0-7.95502 3.56157-7.95502 7.95502 0 1.8463.63025 3.5946 1.76732 4.9999.10846.134.14709.3115.10415.4785zm-2.316192-7.9883c0-4.99544 4.049582-9.045022 9.045022-9.045022 4.9954 0 9.045 4.049582 9.045 9.045022 0 4.9954-4.0496 9.045-9.045 9.045-1.29591 0-2.55398-.2731-3.70969-.7934l-3.63338 1.0484c-.40519.1169-.78394-.2509-.67894-.6593l.81585-3.1733c-1.18471-1.5589-1.838862-3.4637-1.838862-5.4674z" fill="#fff" fill-rule="evenodd"/></svg>