<svg xmlns="http://www.w3.org/2000/svg" width="70" height="70">
    <path fill="none" d="M0 0h70v70H0V0z" opacity=".2"/>
    <path fill="#387FBF" fill-rule="evenodd" d="M28.273 53.582c0 .908-.732 1.644-1.632 1.644h-6.193a1.64 1.64 0 0 1-1.634-1.644 1.64 1.64 0 0 1 1.634-1.645h6.193c.9 0 1.632.736 1.632 1.645zm10.47-31.085h6.194c.903 0 1.634-.736 1.634-1.644 0-.908-.731-1.644-1.634-1.644h-6.194c-.9 0-1.632.736-1.632 1.644 0 .908.732 1.644 1.632 1.644zm0 6.965h6.194c.903 0 1.634-.736 1.634-1.644a1.64 1.64 0 0 0-1.634-1.645h-6.194c-.9 0-1.632.737-1.632 1.645s.732 1.644 1.632 1.644zm-7.093 3.604H20.448a1.64 1.64 0 0 0-1.634 1.644 1.64 1.64 0 0 0 1.634 1.645H31.65c.903 0 1.633-.737 1.633-1.645s-.73-1.644-1.633-1.644zm-.107 11.94H20.448a1.64 1.64 0 0 0-1.634 1.645 1.64 1.64 0 0 0 1.634 1.644h11.095a1.64 1.64 0 0 0 1.634-1.644 1.64 1.64 0 0 0-1.634-1.645zm29.46 2.537v10.728c0 6.469-5.229 11.733-11.656 11.733a11.568 11.568 0 0 1-7.894-3.106H10.644a1.64 1.64 0 0 1-1.635-1.644V1.641c0-.909.732-1.644 1.635-1.644h32.881c.424-.006.844.159 1.158.47l.004.003.002.003.001.002.004.003 11.203 11.277.002.003h.001l.004.003v.001c.228.233.377.524.439.833l.001.01c0 .001 0 .003.002.004v.001c.02.105.029.213.029.32v32.497c1.107.135 2.203.3 3.286.497a1.642 1.642 0 0 1 1.342 1.619zM45.172 11.272h5.625l-5.625-5.661v5.661zm-7.483 46.999V47.543c0-.796.565-1.477 1.342-1.619a57.692 57.692 0 0 1 10.316-.918c1.259 0 2.514.04 3.761.12V14.561h-9.569a1.64 1.64 0 0 1-1.633-1.644V3.285H12.277V63.61h26.689a11.75 11.75 0 0 1-1.277-5.339zm20.047-9.337a54.844 54.844 0 0 0-8.389-.64 54.85 54.85 0 0 0-8.391.64v9.337c0 4.655 3.764 8.445 8.391 8.445 4.625 0 8.389-3.79 8.389-8.445v-9.337zm-10.023 4.08v2.847h-2.829c-.902 0-1.632.736-1.632 1.644 0 .908.73 1.644 1.632 1.644h2.829v2.848c0 .908.731 1.644 1.634 1.644.901 0 1.631-.736 1.631-1.644v-2.848h2.83c.903 0 1.633-.736 1.633-1.644 0-.908-.73-1.644-1.633-1.644h-2.83v-2.847c0-.909-.73-1.644-1.631-1.644-.903 0-1.634.735-1.634 1.644zm-2.776-16.659a1.64 1.64 0 0 0 1.634-1.645c0-.908-.731-1.644-1.634-1.644h-6.194c-.9 0-1.632.736-1.632 1.644a1.64 1.64 0 0 0 1.632 1.645h6.194zM31.65 26.173H20.448a1.64 1.64 0 0 0-1.634 1.645 1.64 1.64 0 0 0 1.634 1.644H31.65c.903 0 1.633-.736 1.633-1.644 0-.908-.73-1.645-1.633-1.645zm0-6.964H20.448a1.64 1.64 0 0 0-1.634 1.644 1.64 1.64 0 0 0 1.634 1.644H31.65c.903 0 1.633-.736 1.633-1.644 0-.908-.73-1.644-1.633-1.644z"/>
</svg>
