<svg height="75" viewBox="0 0 75 75" width="75" xmlns="http://www.w3.org/2000/svg"><g fill="#fff"><path d="m37.474 0c-20.663 0-37.474 16.811-37.474 37.474 0 20.664 16.811 37.476 37.474 37.476 20.664 0 37.475-16.811 37.475-37.475s-16.811-37.475-37.475-37.475zm0 71.69c-18.867 0-34.214-15.348-34.214-34.216 0-18.867 15.348-34.215 34.215-34.215 18.868 0 34.216 15.348 34.216 34.215 0 18.868-15.348 34.216-34.216 34.216z"/><path d="m30.168 33.223c-4.467 0-8.096-3.586-8.096-8.02 0-4.433 3.63-8.019 8.096-8.019 4.467 0 8.096 3.586 8.096 8.02 0 4.433-3.63 8.019-8.096 8.019zm0-3.208c2.704 0 4.888-2.158 4.888-4.811s-2.184-4.812-4.888-4.812-4.888 2.159-4.888 4.812 2.184 4.811 4.888 4.811zm14.664 27.648c-4.467 0-8.096-3.586-8.096-8.02 0-4.433 3.63-8.019 8.096-8.019 4.467 0 8.096 3.586 8.096 8.02 0 4.433-3.63 8.019-8.096 8.019zm0-3.208c2.704 0 4.888-2.158 4.888-4.811 0-2.654-2.184-4.812-4.888-4.812s-4.888 2.158-4.888 4.812c0 2.653 2.184 4.811 4.888 4.811zm-18.869 1.745a1.604 1.604 0 1 1 -2.606-1.871l25.5-35.519a1.604 1.604 0 1 1 2.605 1.87z"/></g></svg>