<svg width="64" height="64" fill="none" xmlns="http://www.w3.org/2000/svg"><path d="M10.179 42h4.045c.944 0 1.848-.373 2.515-1.04v0a3.554 3.554 0 0 0 1.04-2.515V24.221c0-.944-.374-1.848-1.04-2.514v0a3.554 3.554 0 0 0-2.515-1.04H10.84M53.16 20.667H49.78c-.944 0-1.848.373-2.515 1.04v0a3.554 3.554 0 0 0-1.04 2.514v14.224c0 .944.373 1.848 1.04 2.515v0A3.554 3.554 0 0 0 49.78 42h4.045" stroke="#387FBF" stroke-width="2.5" stroke-linecap="round" stroke-linejoin="round"/><path d="M46.277 39.059h-2.293c-.763 0-1.517.162-2.21.48l-11.22 5.109M28.387 23.115c-1.344-.782-2.968-.976-4.467-.438l-6.141 2.211M46.65 22.496l-7.669-3.376a5.336 5.336 0 0 0-5.048.405l-6.96 4.51c-2.213 1.432-2.466 4.573-.514 6.344v0a4.018 4.018 0 0 0 4.394.664l4.15-1.936" stroke="#387FBF" stroke-width="2.5" stroke-linecap="round" stroke-linejoin="round"/><path clip-rule="evenodd" d="M32 56c13.255 0 24-10.745 24-24S45.255 8 32 8 8 18.745 8 32s10.745 24 24 24Z" stroke="#387FBF" stroke-width="2.5" stroke-linecap="round" stroke-linejoin="round"/><path d="m35.003 29.104 2.106 1.912a5.335 5.335 0 0 1 .022 7.885l-5.379 4.923a5.33 5.33 0 0 1-7.181.019l-3.696-3.352c-.875-.792-1.99-1.238-3.16-1.334" stroke="#387FBF" stroke-width="2.5" stroke-linecap="round" stroke-linejoin="round"/></svg>