<svg width="64" height="64" fill="none" xmlns="http://www.w3.org/2000/svg"><path d="M5.333 48H24" stroke="#387FBF" stroke-width="2.5" stroke-linecap="round" stroke-linejoin="round"/><path clip-rule="evenodd" d="m12.363 33.696-7.03-7.03 4.142-2.069a2.66 2.66 0 0 1 2.384 0L16 26.667l8.512-5.272-11.178-10.667 8-2.728 13.333 8 12.552-7.173c3.07-1.755 6.965-.091 7.821 3.338v0a5.336 5.336 0 0 1-2.432 5.87L30.2 31.48a5.33 5.33 0 0 1-1.866.688l-13.649 2.275a2.677 2.677 0 0 1-2.322-.747Z" stroke="#387FBF" stroke-width="2.5" stroke-linecap="round" stroke-linejoin="round"/><path d="M46.666 58.667c-6.626 0-12-5.371-12-11.998 0-6.49 5.52-12.008 12.011-12.002 6.624.005 11.99 5.376 11.99 12 0 6.626-5.371 12-12 12" stroke="#387FBF" stroke-width="2.5" stroke-linecap="round" stroke-linejoin="round"/><path d="m52 44-6.666 6.667-4-4" stroke="#387FBF" stroke-width="2.5" stroke-linecap="round" stroke-linejoin="round"/></svg>