<svg width="64" height="64" fill="none" xmlns="http://www.w3.org/2000/svg"><path d="M53.334 24 56 21.333M56 42.667 53.334 40M58.666 32h2.667M10.667 40 8 42.667M8 21.333 10.667 24M5.333 32H2.666M29.013 46.667h5.973" stroke="#387FBF" stroke-width="2.5" stroke-linecap="round" stroke-linejoin="round"/><path clip-rule="evenodd" d="M24 10.667h16A5.332 5.332 0 0 1 45.333 16v32A5.332 5.332 0 0 1 40 53.333H24A5.332 5.332 0 0 1 18.666 48V16A5.332 5.332 0 0 1 24 10.667Z" stroke="#387FBF" stroke-width="2.5" stroke-linecap="round" stroke-linejoin="round"/></svg>