<svg width="64" height="64" fill="none" xmlns="http://www.w3.org/2000/svg"><path clip-rule="evenodd" d="M33.883 34.667v-12c0-2.208-1.792-4-4-4s-4 1.792-4 4v20l-5.419-1.806a4.404 4.404 0 0 0-4.213 7.56l10.813 9.011a5.357 5.357 0 0 0 3.416 1.235h12.027a5.335 5.335 0 0 0 5.293-4.672l1.448-11.582a5.335 5.335 0 0 0-4.416-5.922l-10.95-1.824Z" stroke="#387FBF" stroke-width="2.5" stroke-linecap="round" stroke-linejoin="round"/><path d="M13.894 21.333h2.666M45.894 21.333h-2.667M41.2 10.027l-1.893 1.866M18.56 10.027l1.893 1.866M29.893 5.333V8" stroke="#387FBF" stroke-width="2.5" stroke-linecap="round" stroke-linejoin="round"/></svg>