<svg fill="none" height="20" viewBox="0 0 22 20" width="22" xmlns="http://www.w3.org/2000/svg"><path clip-rule="evenodd" d="m19.6403 4.17949h-1.2896v-1.3077c0-.4807-.3857-.87179-.8597-.87179h-15.13127c-.47406 0-.85973.39109-.85973.87179v12.94871c0 1.2018.96419 2.1795 2.14932 2.1795h14.70138c1.1851 0 2.1493-.9777 2.1493-2.1795v-10.76922c0-.48071-.3857-.87179-.8597-.87179zm-15.0403.82051c-.33137 0-.6.26863-.6.6v.3c0 .33137.26863.6.6.6h10.49c.3314 0 .6-.26863.6-.6v-.3c0-.33137-.2686-.6-.6-.6zm6.4 3.37h4.3416c.2374 0 .4299.244.4299.545s-.1925.545-.4299.545h-4.3416c-.2374 0-.4299-.244-.4299-.545s.1925-.545.4299-.545zm0 2.5h4.3416c.2374 0 .4299.244.4299.545s-.1925.545-.4299.545h-4.3416c-.2374 0-.4299-.244-.4299-.545s.1925-.545.4299-.545zm4.2715 2.5h-4.3416c-.2374 0-.4299.244-.4299.545s.1925.545.4299.545h4.3416c.2374 0 .4299-.244.4299-.545s-.1925-.545-.4299-.545zm-6.42001-5h-4.34163c-.23741 0-.42986.22533-.42986.50331v5.08339c0 .278.19245.5033.42986.5033h4.34163c.23742 0 .42987-.2253.42987-.5033v-5.08339c0-.27798-.19245-.50331-.42987-.50331zm-3.68075 4.8294h3.02002v-3.5794h-3.02002zm13.17996 3.7106c.7111 0 1.0595-.3684 1.0595-1.0895v-10.76922h-1.0595v10.11542c0 .1201.0964.2179.2149.2179.2374 0 .4299.1952.4299.4359 0 .2408-.2982.4359-.5355.4359-.5926 0-1.2002-.4888-1.2002-1.0897v-12.0767h-14.66996v12.7305c0 .7211.3484 1.0895 1.05948 1.0895z" fill="#fff" fill-rule="evenodd"/></svg>