<svg width="33" height="20" viewBox="0 0 33 20" fill="none" xmlns="http://www.w3.org/2000/svg">
<g opacity="0.5">
<path d="M29.4191 2.54079C25.3874 -1.21639 19.7099 -0.38034 16.9442 2.28897C18.181 3.5783 19.1256 5.05901 19.632 6.86205C19.3594 6.86205 19.1256 6.86205 18.8724 6.86205C18.3174 5.30076 17.5383 3.90063 16.3113 2.77247C15.1329 3.96107 14.3246 5.31083 13.8085 6.86205C13.6722 6.87213 13.5553 6.8822 13.4482 6.8822C13.3216 6.8822 13.2047 6.86206 13.0489 6.85198C13.565 5.06908 14.4804 3.56823 15.7269 2.28897C12.377 -0.742964 6.53393 -1.00486 2.78466 3.02429C-1.11068 7.19446 -0.886701 13.621 3.2521 17.4587C7.22536 21.1454 12.8249 20.4504 15.7075 17.7005C14.461 16.4212 13.5456 14.9204 13.0392 13.1576C13.7695 13.0871 13.7306 13.0972 14.0325 13.7318C14.3831 14.4671 14.7531 15.1923 15.1913 15.8773C15.503 16.3708 15.9217 16.7939 16.3015 17.2573C17.3922 16.2198 18.1615 15.0614 18.6387 13.7217C18.8335 13.1777 19.0769 12.9964 19.632 13.1777C19.1256 14.9304 18.1908 16.4111 16.9345 17.7307C20.1969 20.682 26.0886 21.0749 29.906 16.9853C33.7721 12.8051 33.5482 6.38863 29.4191 2.54079ZM4.38175 12.3518C4.53757 11.4855 4.68364 10.6394 4.82972 9.79326C4.81024 9.78319 4.78103 9.77312 4.76155 9.76304C4.44018 10.4984 4.07987 11.2236 3.80719 11.9891C3.61242 12.523 3.23263 12.4122 2.89178 12.3618C2.76519 12.3417 2.63859 11.9992 2.61911 11.7877C2.5412 11.1128 2.50225 10.4279 2.34644 9.7429C2.22958 10.3775 2.11271 11.0121 1.98612 11.6467C1.82056 12.4827 1.76213 12.523 0.846728 12.3216C1.10966 10.9113 1.36286 9.50115 1.64527 8.09094C1.66475 8.01036 1.82056 7.90963 1.91795 7.89956C2.35617 7.87942 2.78466 7.88949 3.26184 7.88949C3.33001 8.72554 3.38844 9.49107 3.44687 10.2566C3.48582 10.2667 3.51504 10.2667 3.55399 10.2768C3.83641 9.6321 4.14803 8.98743 4.40123 8.33269C4.53757 7.97007 4.73234 7.8492 5.09265 7.88949C5.46271 7.91971 5.83277 7.89956 6.25152 7.89956C5.97885 9.42056 5.70617 10.8811 5.44324 12.3719C5.08292 12.3518 4.77129 12.3518 4.38175 12.3518ZM7.87783 12.3618C7.71227 12.3115 7.52725 12.3216 7.34222 12.3216C7.26431 12.3216 7.1864 12.3417 7.09876 12.3518C6.61184 12.4223 6.19309 12.3115 5.93015 11.8481C5.72565 11.4754 5.83277 10.8811 6.16387 10.4984C6.53393 10.0552 7.04033 9.9645 7.5662 9.91414C7.74149 9.89399 7.91678 9.91414 8.09207 9.91414C8.10181 9.83355 8.12129 9.76304 8.13102 9.68246C7.61489 9.17882 6.92347 9.66231 6.3489 9.50115C6.42681 8.71546 6.42681 8.70539 7.14745 8.62481C8.88088 8.4435 9.48466 9.04787 9.06591 10.7401C8.988 11.0624 8.93931 11.3948 8.87114 11.7273C8.7348 12.3719 8.4816 12.5331 7.87783 12.3618ZM11.8024 11.2035C11.7537 11.6769 11.5589 12.0496 11.1207 12.2208C10.4488 12.4726 9.76707 12.382 9.05617 12.2309C9.10486 11.9589 9.13408 11.7373 9.17303 11.5258C9.59178 11.5258 9.98131 11.5359 10.3611 11.5157C10.4877 11.5056 10.6046 11.4049 10.7214 11.3445C10.6435 11.2135 10.5851 11.0624 10.4877 10.9617C10.3514 10.8408 10.1858 10.7603 10.0203 10.6998C9.63073 10.5387 9.41649 10.2768 9.42623 9.82348C9.4457 9.32991 9.64047 8.95721 10.0982 8.75576C10.5948 8.54422 11.3349 8.54422 11.9387 8.7759C11.8706 9.00758 11.8024 9.23925 11.7147 9.50115C11.4323 9.49107 11.1986 9.45078 10.9844 9.481C10.848 9.50115 10.7117 9.60188 10.5754 9.66231C10.663 9.78319 10.7409 9.92421 10.848 10.0249C10.9552 10.1257 11.1012 10.176 11.2278 10.2465C11.6174 10.4379 11.8413 10.73 11.8024 11.2035ZM12.8152 12.382C12.2309 12.4021 11.8413 12.0496 11.929 11.4654C12.114 10.2062 12.3672 8.96729 12.5912 7.70818C12.9418 7.70818 13.2534 7.70818 13.604 7.70818C13.5553 8.01036 13.5066 8.30248 13.4579 8.62481C13.604 8.65503 13.7403 8.69532 13.9254 8.73561C13.8767 8.97736 13.8377 9.21911 13.7793 9.481C13.6137 9.51122 13.4579 9.53137 13.2729 9.56158C13.195 9.9645 13.1171 10.3775 13.0392 10.7804C12.971 11.1632 12.9126 11.5359 13.4774 11.4452C13.5456 12.2108 13.4384 12.3618 12.8152 12.382ZM15.3861 11.4754C15.8146 11.4956 16.2528 11.4754 16.6813 11.4754C16.6131 12.2712 16.6034 12.2813 15.8535 12.3316C15.7854 12.3316 15.7269 12.3417 15.6588 12.3417C14.9479 12.3921 14.2662 12.3216 13.8961 11.5862C13.4969 10.8005 13.6235 10.0149 14.1006 9.30976C14.5486 8.64495 15.2108 8.49386 15.9509 8.64495C16.8176 8.82626 17.1585 9.62202 16.7982 10.6998C16.136 10.6998 15.4543 10.6998 14.7823 10.6998C14.7531 11.274 14.8894 11.4553 15.3861 11.4754ZM18.7458 9.76304C18.5219 9.82348 18.3174 10.2365 18.2102 10.5387C18.0739 10.9416 18.0155 11.3848 17.9668 11.8179C17.9181 12.2712 17.7331 12.4827 17.2851 12.3921C17.1585 12.3719 17.0319 12.3719 16.8469 12.3518C17.0611 11.1229 17.2753 9.93428 17.4993 8.71546C18.1128 8.53415 18.7166 9.04787 19.3301 8.68525C19.2035 9.09823 19.3886 9.60188 18.7458 9.76304ZM21.1707 12.3417C19.856 12.4021 19.0283 11.4754 19.1938 10.1257C19.3204 9.09823 19.7392 8.27226 20.6935 7.82905C21.4531 7.4765 22.2906 7.63767 22.8457 8.25211C22.5438 8.69532 22.2517 8.97736 21.6771 8.80612C21.1707 8.65503 20.7617 8.97736 20.5085 9.42057C20.2455 9.87384 20.1676 10.3876 20.4403 10.861C20.7519 11.4049 21.2681 11.3646 21.7647 11.2337C21.8037 11.2639 21.8524 11.274 21.8621 11.2941C22.2322 12.2007 22.1737 12.3014 21.1707 12.3417ZM23.1671 12.3417C22.8749 12.3014 22.5243 12.0194 22.3588 11.7474C22.1153 11.3243 22.3198 10.8711 22.612 10.4984C22.9723 10.0451 23.4884 9.9645 24.0143 9.91414C24.1896 9.89399 24.3649 9.91414 24.5402 9.91414C24.4623 9.49107 24.4623 9.49108 22.8262 9.52129C22.7775 8.79605 22.8165 8.71546 23.4884 8.64495C23.8877 8.60466 24.2967 8.59459 24.696 8.65503C25.3874 8.76583 25.7185 9.22918 25.6211 9.94435C25.5237 10.7401 25.3485 11.5258 25.2024 12.3618C24.4817 12.3719 23.8098 12.4324 23.1671 12.3417ZM27.4714 9.72275C27.189 9.83355 26.9845 10.3171 26.8676 10.6696C26.7021 11.1833 26.6534 11.7474 26.5463 12.3014C26.186 12.3014 25.8841 12.3014 25.5335 12.3014C25.7575 11.0624 25.9717 9.87384 26.2054 8.58452C26.5657 8.64495 26.8969 8.69532 27.2377 8.74568C27.228 8.7759 27.2182 8.80612 27.2085 8.82626C27.4617 8.74568 27.7149 8.67517 28.0752 8.56437C27.9486 9.08816 28.0265 9.50115 27.4714 9.72275ZM31.0551 11.7978C30.9578 12.3316 30.354 12.6036 29.8768 12.3216C29.7697 12.2611 29.6041 12.2007 29.4873 12.241C28.6692 12.5029 28.1434 12.2309 27.8804 11.3747C27.4812 10.0652 28.3966 8.57444 29.6041 8.61474C29.8963 8.62481 30.1787 8.76583 30.5098 8.86656C30.5293 8.74568 30.5585 8.60466 30.5877 8.45357C30.7727 7.52686 30.7727 7.52686 31.7855 7.67796C31.6589 8.42335 31.5323 9.17882 31.396 9.92421C31.2889 10.5487 31.1623 11.1732 31.0551 11.7978Z" fill="white"/>
<path d="M29.8768 9.55151C29.682 9.50114 29.4094 9.67238 29.2049 9.80333C29.0783 9.88391 29.0101 10.0652 28.9517 10.2163C28.7764 10.6696 28.8932 11.143 29.2049 11.284C29.5457 11.4351 29.8865 11.2236 30.1008 10.73C30.1689 10.5689 30.1982 10.3775 30.2663 10.0954C30.1495 9.93428 30.0521 9.60187 29.8768 9.55151Z" fill="white"/>
<path d="M6.904 11.1229C6.89426 11.2538 7.05981 11.4855 7.18641 11.5157C7.6149 11.6366 7.87783 11.3445 7.946 10.72C7.40065 10.5689 6.93321 10.7401 6.904 11.1229Z" fill="white"/>
<path d="M23.3424 11.1027C23.3229 11.2337 23.469 11.4754 23.5858 11.5157C23.9948 11.6467 24.2675 11.3747 24.3941 10.7401C23.878 10.5689 23.4008 10.72 23.3424 11.1027Z" fill="white"/>
<path d="M15.6296 9.3702C15.2011 9.31983 14.9187 9.50115 14.8018 9.97457C15.2108 9.97457 15.5906 9.97457 15.9899 9.97457C16.0386 9.65224 15.9704 9.41049 15.6296 9.3702Z" fill="white"/>
</g>
</svg>
