<svg width="57" height="56" fill="none" xmlns="http://www.w3.org/2000/svg"><path d="m41.339 50.176-3.502-3.502 3.502-3.501" stroke="#fff" stroke-width="3" stroke-linecap="round" stroke-linejoin="round"/><path d="M37.837 46.675h4.669a7.003 7.003 0 0 0 7.003-7.003M15.661 5.824l3.502 3.502-3.502 3.501" stroke="#fff" stroke-width="3" stroke-linecap="round" stroke-linejoin="round"/><path d="M19.163 9.326h-4.669a7.003 7.003 0 0 0-7.003 7.002" stroke="#fff" stroke-width="3" stroke-linecap="round" stroke-linejoin="round"/><path clip-rule="evenodd" d="M33.169 30.334v10.631a3.375 3.375 0 0 1-3.375 3.375H10.866a3.375 3.375 0 0 1-3.375-3.375V29.041a3.375 3.375 0 0 1 3.375-3.375H28.5a4.669 4.669 0 0 1 4.669 4.668Z" stroke="#fff" stroke-width="3" stroke-linecap="round" stroke-linejoin="round"/><circle cx="20.33" cy="35.003" stroke="#fff" stroke-width="3" stroke-linecap="round" stroke-linejoin="round" r="3.501"/><path d="M23.831 18.663v-3.628a3.375 3.375 0 0 1 3.375-3.375H44.84a4.669 4.669 0 0 1 4.669 4.668V26.96a3.375 3.375 0 0 1-3.375 3.375H40.17" stroke="#fff" stroke-width="3" stroke-linecap="round" stroke-linejoin="round"/><path d="M34.194 18.521a3.501 3.501 0 1 1 4.952 4.952" stroke="#fff" stroke-width="3" stroke-linecap="round" stroke-linejoin="round"/></svg>