<svg width="57" height="56" fill="none" xmlns="http://www.w3.org/2000/svg"><path d="M26.167 37.1H9.6a4.431 4.431 0 0 1-4.433-4.433V11.433A4.431 4.431 0 0 1 9.6 7h35.467a4.431 4.431 0 0 1 4.433 4.433v11.9" stroke="#fff" stroke-width="3" stroke-linecap="round" stroke-linejoin="round"/><path d="M31.25 18.599a5.544 5.544 0 0 1 0 7.838 5.544 5.544 0 0 1-7.837 0 5.544 5.544 0 0 1 0-7.838 5.54 5.54 0 0 1 7.838 0M42.5 49a9.334 9.334 0 1 1 9.333-9.333A9.332 9.332 0 0 1 42.5 49M14.5 30.333h-2.333M42.5 14h-2.333" stroke="#fff" stroke-width="3" stroke-linecap="round" stroke-linejoin="round"/><path d="m46.649 37.592-5.185 5.185-3.113-3.11" stroke="#fff" stroke-width="3" stroke-linecap="round" stroke-linejoin="round"/></svg>