<svg xmlns="http://www.w3.org/2000/svg" width="51" height="51">
    <path fill="none" d="M.145.994h49.974v49.937H.145V.994z"/>
    <path fill="#FFF" fill-rule="evenodd" d="M47.566 41.045h-.725v6.737c0 1.745-1.379 3.165-3.071 3.165H5.216c-1.694 0-3.071-1.42-3.071-3.165V23.507c0-1.275.735-2.376 1.79-2.877v-.625c0-1.331 1.052-2.414 2.344-2.414h1.768L9.086 6.75c.122-1.266 1.22-2.193 2.447-2.069l10.71 1.091c.38.038.658.387.619.779a.696.696 0 0 1-.755.638l-10.709-1.09c-.471-.049-.89.307-.937.792l-1.29 13.45h.883l.828-8.644a1.66 1.66 0 0 1 1.04-1.405 3.897 3.897 0 0 0 1.886-1.578 1.6 1.6 0 0 1 1.531-.763l5.301.539a.705.705 0 0 1 .618.779.695.695 0 0 1-.755.638l-5.299-.54a.242.242 0 0 0-.23.112 5.287 5.287 0 0 1-2.563 2.146.248.248 0 0 0-.153.212l-.817 8.504h3.38L26.964 1.978a2.22 2.22 0 0 1 1.431-.967 2.17 2.17 0 0 1 1.678.361l14.067 9.879c1.02.716 1.284 2.155.589 3.205l-2.073 3.135h.542c1.292 0 2.342 1.083 2.342 2.414v.918a3.19 3.19 0 0 1 1.301 2.584v6.736h.725c.857 0 1.553.718 1.553 1.601v7.601c0 .883-.696 1.6-1.553 1.6zM6.279 19.015c-.53 0-.961.444-.961.99v.336h2.466l.127-1.326H6.279zm37.308-5.36a.9.9 0 0 0-.224-1.226L29.295 2.548a.834.834 0 0 0-.642-.138.849.849 0 0 0-.548.371l-11.611 17.56h1.061l8.686-13.135a1.612 1.612 0 0 1 1.566-.717 3.763 3.763 0 0 0 2.387-.455 1.578 1.578 0 0 1 1.7.086l7.292 5.121c.511.359.777.972.699 1.599a4.09 4.09 0 0 0 .462 2.457 1.705 1.705 0 0 1-.074 1.766l-2.169 3.278h1.062l4.421-6.686zM28.41 14.874c3.008 0 5.479 2.418 5.681 5.467h2.341l2.698-4.08a.258.258 0 0 0 .014-.265 5.551 5.551 0 0 1-.629-3.34.26.26 0 0 0-.107-.237l-7.294-5.122a.235.235 0 0 0-.252-.016 5.122 5.122 0 0 1-3.247.618l-.031-.003a.246.246 0 0 0-.202.113l-8.155 12.332h3.502c.201-3.049 2.672-5.467 5.681-5.467zm-4.295 5.467h8.589c-.198-2.263-2.048-4.043-4.294-4.043-2.248 0-4.097 1.78-4.295 4.043zm20.042-.336c0-.545-.43-.99-.959-.99h-1.484l-.876 1.327h2.932c.131 0 .26.009.387.025v-.362zm1.302 3.502c0-.961-.757-1.741-1.689-1.741H5.216c-.932 0-1.689.78-1.689 1.741v1.975h41.932v-1.975zm0 3.4H3.527v17.474h3.726c.382 0 .691.32.691.713a.701.701 0 0 1-.691.712H3.527v1.976c0 .96.757 1.741 1.689 1.741H43.77c.932 0 1.689-.781 1.689-1.741v-1.976H11.676a.701.701 0 0 1-.69-.712c0-.393.309-.713.69-.713h33.783v-3.336h-6.57c-2.89 0-5.241-2.423-5.241-5.401 0-.557.083-1.096.235-1.602l.001-.002a5.59 5.59 0 0 1 .283-.735c.002-.007.005-.012.008-.018.851-1.801 2.644-3.044 4.714-3.044h6.57v-3.336zm2.278 4.937a.173.173 0 0 0-.171-.176h-8.677c-1.462 0-2.737.842-3.392 2.082-.029.057-.059.114-.085.172a4.087 4.087 0 0 0 0 3.445c.026.058.056.115.085.171.655 1.24 1.93 2.083 3.392 2.083h8.677c.095 0 .171-.08.171-.176v-7.601zm-8.686 6.689c-1.546 0-2.803-1.296-2.803-2.889 0-1.593 1.257-2.889 2.803-2.889s2.804 1.296 2.804 2.889c0 1.593-1.258 2.889-2.804 2.889zm0-4.354c-.784 0-1.421.657-1.421 1.465s.637 1.465 1.421 1.465 1.422-.657 1.422-1.465-.638-1.465-1.422-1.465z"/>
</svg>
