<svg xmlns="http://www.w3.org/2000/svg" width="51" height="50">
    <path fill="none" fill-rule="evenodd" d="M.498-.006h49.989v49.937H.498V-.006z"/>
    <path fill="#FFF" fill-rule="evenodd" d="M48.59 42.248H31.166v6.099h7.564a.798.798 0 0 1 0 1.594H12.291a.797.797 0 1 1 0-1.594h7.525v-6.099H2.391a1.899 1.899 0 0 1-1.898-1.896V5.368c0-1.047.851-1.897 1.898-1.897h7.318V.79c0-.44.357-.796.799-.796h24.506c.127-.022 4.62 3.907 4.364 3.567l9.212-.09c1.047 0 1.898.85 1.898 1.897v34.984a1.899 1.899 0 0 1-1.898 1.896zm-27.179 6.099h8.159v-6.099h-8.159v6.099zM33.053 1.579c-8.318.001-21.749.009-21.749.009V34.169h28.375c.016-3.146.086-18.07.096-26.211h-5.91l-.012-.003c-.005 0-.008.003-.013.003h-.012a.775.775 0 0 1-.775-.775V1.579zm1.562.322v4.433h5.158c-.025-.057-3.899-3.382-5.158-4.433zm14.278 3.467a.307.307 0 0 0-.303-.302h-7.318v29.103h2.078a.798.798 0 0 1 0 1.594H7.243a.798.798 0 0 1-.799-.797c0-.439.358-.797.799-.797h2.466V5.065H2.391a.307.307 0 0 0-.302.303v34.984c0 .163.139.302.302.302H48.59a.307.307 0 0 0 .303-.302V5.368zm-11.876 7.283c0 .44-.356.797-.798.797H14.762a.797.797 0 1 1 0-1.594h21.457c.442 0 .798.357.798.797zm-22.255 4.642h12.625a.798.798 0 0 1 0 1.595H14.762a.797.797 0 1 1 0-1.595zm0 6.377h12.625c.441 0 .799.357.799.797 0 .44-.358.797-.799.797H14.762a.797.797 0 1 1 0-1.594zm0 6.244h12.625a.797.797 0 1 1 0 1.594H14.762a.798.798 0 1 1 0-1.594zm15.817-12.621h5.539a.797.797 0 0 1 0 1.595h-5.539a.797.797 0 0 1 0-1.595zm0 6.377h5.575a.797.797 0 0 1 0 1.594h-5.575a.797.797 0 0 1 0-1.594zm0 6.244h5.575a.796.796 0 1 1 0 1.594h-5.575a.797.797 0 0 1 0-1.594z"/>
</svg>
