<svg xmlns="http://www.w3.org/2000/svg" width="71" height="71">
    <path fill="none" d="M0 0h71v71H0V0z" opacity=".2"/>
    <path fill="#387FBF" fill-rule="evenodd" d="M57.615 69.987H13.378c-1.313 0-2.382-1.088-2.382-2.427V2.44c0-1.338 1.069-2.427 2.382-2.427h44.237c1.313 0 2.381 1.089 2.381 2.427v65.12c0 1.339-1.068 2.427-2.381 2.427zm.077-67.547a.077.077 0 0 0-.077-.079H13.378a.078.078 0 0 0-.077.079v65.12c0 .045.035.08.077.08h44.237a.078.078 0 0 0 .077-.08V2.44zm-8.284 49.616c1.124.417 3.215 1.195 3.215 3.569 0 1.734-1.585 3.092-3.61 3.092-2.024 0-3.608-1.358-3.608-3.092 0-.649.515-1.174 1.152-1.174.636 0 1.152.525 1.152 1.174 0 .303.508.743 1.304.743.797 0 1.307-.44 1.307-.743 0-.455-.115-.773-1.702-1.363-1.123-.418-3.213-1.194-3.213-3.568 0-1.734 1.584-3.092 3.608-3.092 2.025 0 3.61 1.358 3.61 3.092 0 .648-.516 1.174-1.152 1.174a1.164 1.164 0 0 1-1.152-1.174c0-.304-.509-.744-1.306-.744-.796 0-1.305.44-1.305.744 0 .454.115.772 1.7 1.362zm-13.913-9.62a15.59 15.59 0 0 1-9.309-3.067 1.19 1.19 0 0 1-.259-1.639 1.14 1.14 0 0 1 1.609-.265 13.315 13.315 0 0 0 7.959 2.623c4.663 0 8.783-2.403 11.233-6.058l-3.546-6.368-3.831-1.023a1.174 1.174 0 0 1-.837-1.368l.986-4.969-1.394-2.148a1.192 1.192 0 0 1 .171-1.501l1.961-1.885.166-1.454a13.364 13.364 0 0 0-13.263 2l1.231.499 4.968-.707a1.154 1.154 0 0 1 1.301.999 1.171 1.171 0 0 1-.982 1.326l-.51.072-1.077 5.918a1.18 1.18 0 0 1-.347.645l-2.438 2.318.397.172 3.074-.903a1.137 1.137 0 0 1 1.009.189l3.955 3.013c.431.328.581.914.364 1.414l-2.439 5.632.546 1.183a1.18 1.18 0 0 1-.553 1.562 1.123 1.123 0 0 1-.489.112c-.432 0-.847-.25-1.042-.675l-2.214-4.796-1.844-.654a1.166 1.166 0 0 1-.745-.851l-.692-3.138-6.701-2.909a13.932 13.932 0 0 0 2.603 8.669 1.188 1.188 0 0 1-.249 1.64 1.14 1.14 0 0 1-1.61-.254 16.285 16.285 0 0 1-3.058-9.556c0-8.934 7.131-16.202 15.897-16.202 3.912 0 7.671 1.462 10.585 4.113a1.19 1.19 0 0 1 .093 1.658 1.139 1.139 0 0 1-1.627.094 13.594 13.594 0 0 0-1.949-1.477l-.121 1.043a1.18 1.18 0 0 1-.353.719l-1.562 1.501.87 1.342 6.849-1.114v.001c.469-.076.954.149 1.194.598a16.483 16.483 0 0 1 1.919 7.724c0 8.934-7.131 16.202-15.899 16.202zm-4.082-11.807l1.698.601c.292.104.531.324.664.61l.573 1.245 1.26-2.908-2.762-2.105-1.875.549.442 2.008zm-9.205-7.318l4.761 2.067 2.908-2.765.867-4.767-2.355.336a1.13 1.13 0 0 1-.585-.072l-2.512-1.018a13.925 13.925 0 0 0-3.084 6.219zm25.606-2.945l-6.176 1.003-.649 3.28 3.248.867c.301.08.556.28.71.557l3.08 5.532a14.035 14.035 0 0 0 1.064-5.371c0-2.03-.441-4.043-1.277-5.868zM20.751 47.602h1.843c2.329 0 4.224 1.932 4.224 4.306 0 2.373-1.895 4.304-4.224 4.304h-.691v1.33c0 .648-.516 1.175-1.152 1.175a1.164 1.164 0 0 1-1.152-1.175v-8.766c0-.648.515-1.174 1.152-1.174zm1.152 6.262h.691c1.059 0 1.92-.878 1.92-1.956 0-1.08-.862-1.958-1.92-1.958h-.691v3.914zm7.57-5.41a1.157 1.157 0 0 1 1.108-.852h1.229c.515 0 .967.348 1.107.852l2.458 8.766a1.178 1.178 0 0 1-.791 1.452c-.106.03-.211.045-.317.045-.502 0-.963-.337-1.106-.851l-.465-1.654h-3.002l-.463 1.652a1.15 1.15 0 0 1-1.424.808 1.179 1.179 0 0 1-.792-1.452l2.458-8.766zm2.565 5.41l-.842-3.006-.844 3.006h1.686zm7.979.398c-1.123-.418-3.215-1.194-3.215-3.568 0-1.734 1.586-3.092 3.61-3.092s3.61 1.358 3.61 3.092c0 .648-.516 1.174-1.152 1.174a1.163 1.163 0 0 1-1.152-1.174c0-.304-.509-.744-1.306-.744s-1.307.44-1.307.744c0 .454.116.772 1.702 1.362 1.122.417 3.215 1.195 3.215 3.569 0 1.734-1.586 3.092-3.61 3.092s-3.61-1.358-3.61-3.092c0-.649.517-1.174 1.152-1.174.637 0 1.151.525 1.151 1.174 0 .303.51.743 1.307.743.797 0 1.306-.44 1.306-.743 0-.455-.115-.773-1.701-1.363z"/>
</svg>
