<svg height="75" viewBox="0 0 55 75" width="55" xmlns="http://www.w3.org/2000/svg"><g fill="#fff"><path d="m52.5 0h-43.75a8.76 8.76 0 0 0 -8.75 8.75v57.5a8.76 8.76 0 0 0 8.75 8.75h43.75a2.5 2.5 0 0 0 2.5-2.5v-70a2.5 2.5 0 0 0 -2.5-2.5zm-9.05 3.659v12.804l-4.072-5.49a1.264 1.264 0 0 0 -1.939 0l-4.072 5.49v-12.803h10.083zm-33.825 67.681c-3.29-.004-5.954-2.707-5.958-6.043v-55.595c.004-3.336 2.669-6.04 5.958-6.043h21.45v15.711c0 .509.314.964.786 1.137.473.173 1 .028 1.322-.364l5.042-6.137 5.042 6.137a1.187 1.187 0 0 0 1.322.363c.472-.174.786-.628.786-1.136v-15.711h5.958v67.681z"/><path d="m27.042 21.037a15.675 15.675 0 0 0 -10.147 3.708c-.409.343-.804.709-1.183 1.096-4.596 4.707-5.975 11.795-3.493 17.954 2.481 6.159 8.333 10.173 14.823 10.168a15.675 15.675 0 0 0 10.147-3.708c.408-.343.804-.709 1.182-1.096 4.596-4.707 5.975-11.795 3.494-17.954-2.482-6.159-8.334-10.173-14.823-10.168zm10.368 25.442a16.08 16.08 0 0 0 -2.57-1.833c.463-1.926.732-3.896.802-5.88h4.902a14.07 14.07 0 0 1 -3.134 7.713zm-1.765 1.798c-.063.055-.132.1-.196.153-.266.215-.535.424-.813.619-.124.086-.256.163-.383.245-.225.146-.454.29-.688.422-.144.082-.293.157-.441.233-.172.088-.347.17-.522.253.282-.443.54-.901.772-1.373.26-.535.493-1.11.709-1.702.552.341 1.08.722 1.578 1.14zm-15.132 1.436a12.508 12.508 0 0 1 -.664-.408c-.135-.086-.273-.168-.404-.259-.266-.185-.522-.38-.776-.59-.076-.061-.157-.115-.23-.18l-.017-.013c.499-.418 1.026-.799 1.578-1.14.22.593.451 1.17.712 1.707.232.47.488.927.77 1.368a8.368 8.368 0 0 1 -.511-.253 6.124 6.124 0 0 1 -.458-.232zm-3.84-21.192a16.08 16.08 0 0 0 2.571 1.833 29.586 29.586 0 0 0 -.802 5.88h-4.903a14.07 14.07 0 0 1 3.135-7.713zm1.765-1.798c.065-.055.132-.101.198-.153.264-.215.534-.424.812-.619.123-.086.254-.163.38-.244.228-.147.456-.291.69-.423.146-.082.293-.157.441-.233.172-.088.347-.17.522-.253-.281.443-.54.901-.772 1.373-.259.535-.493 1.11-.709 1.702-.552-.341-1.08-.722-1.578-1.14zm15.13-1.438c.228.127.449.269.67.411.132.086.27.167.4.253.266.185.523.38.777.59.076.061.156.115.23.179l.016.014c-.499.418-1.026.799-1.578 1.14-.22-.593-.45-1.17-.712-1.708-.231-.47-.488-.926-.769-1.367.173.078.344.163.513.253.152.075.305.152.454.235zm-2.401 2.015c.261.55.493 1.117.693 1.695a13.242 13.242 0 0 1 -9.636 0c.2-.576.432-1.14.692-1.69 1.168-2.373 2.664-3.735 4.127-3.735 1.462 0 2.965 1.362 4.124 3.73zm-10.26 8.935a27.24 27.24 0 0 1 .617-4.813 15.507 15.507 0 0 0 11.025 0c.35 1.582.558 3.192.623 4.813h-12.266zm12.27 2.532a27.248 27.248 0 0 1 -.622 4.813 15.508 15.508 0 0 0 -11.025 0 27.24 27.24 0 0 1 -.617-4.813h12.265zm-14.734 0c.07 1.984.339 3.954.802 5.88a16.08 16.08 0 0 0 -2.57 1.833 14.07 14.07 0 0 1 -3.135-7.713zm4.475 8.935a16.66 16.66 0 0 1 -.693-1.695 13.242 13.242 0 0 1 9.636 0c-.2.576-.431 1.14-.691 1.69-1.162 2.373-2.665 3.735-4.127 3.735-1.463 0-2.96-1.362-4.125-3.73zm12.725-11.467a29.586 29.586 0 0 0 -.803-5.88 16.08 16.08 0 0 0 2.57-1.833 14.07 14.07 0 0 1 3.135 7.713z"/></g></svg>