<svg fill="none" height="20" viewBox="0 0 22 20" width="22" xmlns="http://www.w3.org/2000/svg"><path clip-rule="evenodd" d="m21.5 4.80992c-.2445-.3116-.9142-.48539-1.2985-.52l-.8383-.1v-.61215-.69241c0-.76167-.6288-1.38487-1.3973-1.38487h-16.06864c-.76849-.00004-1.39726.62316-1.39726 1.38487v.69246 2.76978 7.6168c0 .6254.062971 1.1571.64 1.3275-.0176.7004.87806 1.6733 1.59566 1.738l16.13844 1.8h.1398c.6986 0 1.6863-.5222 1.7561-1.18l1.05-11.83998c.0349-.34625-.0755-.72305-.32-1zm-19.94-.15h16.74v.65038.85048h-16.74zm16.05-2.1h-15.35c-.38422 0-.7.3116-.7.69246v.3462h16.74v-.3462c0-.38086-.3057-.69246-.69-.69246zm-16.05 11.03998v-6.37998h16.74v6.37998c0 .3809-.3057.69-.69.69h-15.32c-.41918 0-.73-.3091-.73-.69zm5.02248-4.65498c0-.32164-.2919-.545-.61771-.545h-2.34706c-.32581 0-.61771.22336-.61771.545s.2919.545.61771.545h2.34706c.32594 0 .61771-.22335.61771-.545zm4.38232-.545c.3258 0 .6177.22336.6177.545 0 .32165-.2918.545-.6177.545h-3.34709c-.32581 0-.61771-.22336-.61771-.545s.2919-.545.61771-.545zm2.4752 3.32998v-.97h3.0814v.97zm3.7115-2.02998c.2374 0 .4299.22533.4299.50328v2.0834c0 .278-.1925.5033-.4299.5033h-4.3416c-.2374 0-.4299-.2253-.4299-.5033v-2.0834c0-.27795.1925-.50328.4299-.50328zm2.561 7.44978 1.0479-11.11374c.035-.17313-.0349-.38086-.1397-.51933-.1048-.13848-.2795-.24234-.4541-.24234l-.8035-.06926v1.14253 7.61684c0 .7617-.6288 1.3849-1.3972 1.3849h-15.75426c.03492.3116.27947.5886.62878.6232l16.10358 1.8004c.3842.0346.7335-.2424.7685-.6232z" fill="#fff" fill-rule="evenodd"/></svg>