<svg fill="none" height="20" viewBox="0 0 16 20" width="16" xmlns="http://www.w3.org/2000/svg"><path clip-rule="evenodd" d="m13.5966 20c-.0319 0-.0627-.003-.0946-.007-4.34841-.6354-8.30833-3.2261-10.86537-7.1066-2.5580687-3.88047-3.298055-8.42239-2.029811-12.458991.083247-.267171.3443-.4432873.634131-.42627636l3.81808.21313436c.31655.018012.56937.260171.5889.564366l.26105 4.393827c.10072.96462-.86434 1.80416-1.39054 2.1864.22405 2.18141 2.17265 5.13634 4.11921 6.25404.58582-.2912 1.80065-.7645 2.70815-.2502l4.0082 2.1024c.2796.1461.3998.4713.2785.7545l-1.4573 3.4082c-.0977.2281-.3289.3722-.5786.3722zm-11.92502-18.77408c-.972253 3.59031-.24565 7.57888 2.02156 11.02008 2.26825 3.4412 5.71532 5.7827 9.51486 6.4812l1.0545-2.4666-3.5344-1.8552c-.3875-.2171-1.27132.1111-1.75231.4003-.18602.112-.41933.123-.61358.029-2.51182-1.2048-5.04521-5.04727-5.1151-7.75902-.00617-.21013.10481-.40825.28981-.52133.4964-.30319 1.16241-.91959 1.12438-1.28783l-.23125-3.8855z" fill="#fff" fill-rule="evenodd"/></svg>