<svg width="57" height="56" fill="none" xmlns="http://www.w3.org/2000/svg"><path d="M51.134 40.598H39M48.102 36.961l3.031 3.64-3.03 3.638" stroke="#fff" stroke-width="3" stroke-linecap="round" stroke-linejoin="round"/><path clip-rule="evenodd" d="M11.317 34.15 5.167 28l3.623-1.81a2.328 2.328 0 0 1 2.086 0L14.5 28l7.448-4.613-9.781-9.333 7-2.387 11.666 7 10.983-6.277c2.686-1.535 6.095-.08 6.844 2.921v0a4.669 4.669 0 0 1-2.128 5.136L26.925 32.212a4.665 4.665 0 0 1-1.633.602l-11.942 1.99a2.342 2.342 0 0 1-2.033-.653Z" stroke="#fff" stroke-width="3" stroke-linecap="round" stroke-linejoin="round"/></svg>