<svg fill="none" height="20" viewBox="0 0 22 20" width="22" xmlns="http://www.w3.org/2000/svg"><path clip-rule="evenodd" d="m4.29107 18.365 10.53453-.0633c.6973-.0039 1.2645-.5662 1.2635-1.2532l-.0027-5.878-.9249 2.18.0062 3.3653c.0003.3323-.2743.6049-.6114.6064h-10.00876c-.33759.0018-.61276-.2669-.61324-.599l.01216-14.3359c-.0003-.33228.27372-.60412.61136-.60632l10.06198.05888-.0005.00194c.3376.00219.6116.27404.6113.60631l-.0494 4.45236.9203-2.17.015-2.47528c.0012-.62938-.4748-1.1541-1.0914-1.24075-.0563-.00792-.1138-.0121-.1721-.0125l-.1271.4568.127-.45874-10.58939.00453c-.05833.0004-.11583.00459-.17214.0125-.61654.08665-1.09253.61137-1.09137 1.24076l.02362 14.86931c.00101.6868.56972 1.242 1.26745 1.2379zm14.47433-15.55729-4.397 10.35869-.6508.3816-.1776-.7333 4.397-10.35864zm-.5158-1.08806.8284.35166c.4067.17264.5965.64229.4238 1.04899l-3.4169 8.0498-.9801 2.3089c-.0671.1582-.1835.2906-.3318.3775l-1.5794.926-.4311-1.7794c-.0405-.1671-.0261-.3427.0411-.501l.195-.4593h-6.85425c-.18035 0-.32672-.1792-.32672-.4s.14637-.4.32672-.4h6.86175c.1078 0 .2035.064.263.1627l3.9315-9.26203c.1726-.4067.6423-.59645 1.049-.42382zm-12.10525 7.34198h6.86175c.1803 0 .3267.17919.3267.4 0 .2208-.1462.4-.3267.4h-6.86175c-.18035 0-.32672-.1792-.32672-.4 0-.22081.14637-.4.32672-.4zm-.00001-2.18116h6.86156c.1804 0 .3267.1792.3267.4s-.1461.4-.3267.4h-6.86156c-.18034 0-.32671-.1792-.32671-.4s.14637-.4.32671-.4zm6.87696-2.57692h-3.5942c-.18035 0-.32671.17919-.32671.4 0 .2208.14636.4.32671.4h3.5942c.1805 0 .3267-.1792.3267-.4 0-.22069-.1464-.4-.3267-.4zm-3.65167 10.37695h3.59417c.1804 0 .3267.1793.3267.4 0 .2208-.1461.4-.3267.4h-3.59417c-.18035 0-.32671-.1792-.32671-.4s.14636-.4.32671-.4z" fill="#fff" fill-rule="evenodd"/></svg>