<svg width="239" height="143" viewBox="0 0 239 143" fill="none" xmlns="http://www.w3.org/2000/svg">
<ellipse opacity="0.5" cx="119.5" cy="71.5" rx="119.5" ry="71.5" fill="url(#paint0_radial)"/>
<path d="M55.9988 37.8489C55.9988 35.3636 58.0135 33.3489 60.4988 33.3489H177.499C179.984 33.3489 181.999 35.3636 181.999 37.8489V112.349H55.9988V37.8489Z" fill="#E1E1E1" stroke="url(#paint1_linear)"/>
<path d="M58.9988 37.8489C58.9988 37.0205 59.6704 36.3489 60.4988 36.3489H177.499C178.327 36.3489 178.999 37.0204 178.999 37.8489V106.349H58.9988V37.8489Z" fill="url(#paint2_linear)" stroke="url(#paint3_linear)"/>
<rect opacity="0.1" x="55.4988" y="109.849" width="127" height="3" fill="url(#paint4_linear)"/>
<mask id="path-5-inside-1" fill="white">
<path fill-rule="evenodd" clip-rule="evenodd" d="M26.8216 111.849H124.499H211.176C211.906 111.849 212.499 112.441 212.499 113.172C212.499 113.799 212.068 114.337 211.452 114.455C207.467 115.221 192.784 117.849 179.091 117.849H124.499H58.9521C45.2395 117.849 30.534 115.22 26.5459 114.455C25.9299 114.337 25.4988 113.799 25.4988 113.172C25.4988 112.441 26.091 111.849 26.8216 111.849Z"/>
</mask>
<path fill-rule="evenodd" clip-rule="evenodd" d="M26.8216 111.849H124.499H211.176C211.906 111.849 212.499 112.441 212.499 113.172C212.499 113.799 212.068 114.337 211.452 114.455C207.467 115.221 192.784 117.849 179.091 117.849H124.499H58.9521C45.2395 117.849 30.534 115.22 26.5459 114.455C25.9299 114.337 25.4988 113.799 25.4988 113.172C25.4988 112.441 26.091 111.849 26.8216 111.849Z" fill="url(#paint5_linear)"/>
<path fill-rule="evenodd" clip-rule="evenodd" d="M26.8216 111.849H124.499H211.176C211.906 111.849 212.499 112.441 212.499 113.172C212.499 113.799 212.068 114.337 211.452 114.455C207.467 115.221 192.784 117.849 179.091 117.849H124.499H58.9521C45.2395 117.849 30.534 115.22 26.5459 114.455C25.9299 114.337 25.4988 113.799 25.4988 113.172C25.4988 112.441 26.091 111.849 26.8216 111.849Z" fill="url(#paint6_linear)" fill-opacity="0.05"/>
<path d="M211.452 114.455L211.64 115.438L211.452 114.455ZM26.5459 114.455L26.3576 115.437L26.3576 115.437L26.5459 114.455ZM124.499 110.849H26.8216V112.849H124.499V110.849ZM124.499 112.849H211.176V110.849H124.499V112.849ZM211.176 112.849C211.354 112.849 211.499 112.993 211.499 113.172H213.499C213.499 111.889 212.459 110.849 211.176 110.849V112.849ZM211.499 113.172C211.499 113.335 211.393 113.448 211.263 113.473L211.64 115.438C212.742 115.226 213.499 114.263 213.499 113.172H211.499ZM211.263 113.473C207.291 114.236 192.684 116.849 179.091 116.849V118.849C192.883 118.849 207.644 116.205 211.64 115.438L211.263 113.473ZM179.091 116.849H124.499V118.849H179.091V116.849ZM58.9521 118.849H124.499V116.849H58.9521V118.849ZM26.3576 115.437C30.3578 116.204 45.1403 118.849 58.9521 118.849V116.849C45.3387 116.849 30.7101 114.236 26.7343 113.473L26.3576 115.437ZM24.4988 113.172C24.4988 114.263 25.2553 115.226 26.3576 115.437L26.7343 113.473C26.6044 113.448 26.4988 113.335 26.4988 113.172H24.4988ZM26.8216 110.849C25.5387 110.849 24.4988 111.889 24.4988 113.172H26.4988C26.4988 112.993 26.6433 112.849 26.8216 112.849V110.849Z" fill="url(#paint7_linear)" mask="url(#path-5-inside-1)"/>
<mask id="mask0" mask-type="alpha" maskUnits="userSpaceOnUse" x="59" y="36" width="120" height="70">
<path d="M177.999 37.3489H59.9988V105.349H177.999V37.3489Z" fill="#387FBF" stroke="#A0A0A0"/>
</mask>
<g mask="url(#mask0)">
<rect width="50.2489" height="28.9347" rx="3" transform="matrix(0.928015 0.372542 -0.368258 0.929724 90.4011 53.0767)" fill="url(#paint8_linear)"/>
<path fill-rule="evenodd" clip-rule="evenodd" d="M139.817 72.914C138.279 72.2968 136.538 73.0451 135.928 74.5856L127.482 95.9085C126.872 97.4489 127.624 99.198 129.162 99.8153L141.408 104.731C142.945 105.349 144.687 104.6 145.297 103.06L148.073 96.0497C148.125 95.9192 148.03 95.7741 147.9 95.7218C147.466 95.5476 147.253 95.0538 147.426 94.6189L149.518 89.3365C149.69 88.9017 150.182 88.6904 150.616 88.8646C150.746 88.917 150.914 88.8776 150.966 88.7471L153.743 81.7369C154.353 80.1965 153.601 78.4474 152.063 77.8301L139.817 72.914Z" fill="url(#paint9_linear)"/>
<path d="M89.2964 55.8658C89.9065 54.3254 91.6476 53.577 93.1852 54.1943L94.0688 54.549L83.4134 81.4503L82.5298 81.0955C80.9922 80.4783 80.2403 78.7292 80.8505 77.1887L89.2964 55.8658Z" fill="white"/>
<path opacity="0.5" d="M135.928 74.5856C136.538 73.0451 135.786 71.296 134.249 70.6788L133.365 70.324L122.71 97.2253L123.593 97.58C125.131 98.1973 126.872 97.4489 127.482 95.9085L135.928 74.5856Z" fill="white"/>
<path opacity="0.5" fill-rule="evenodd" clip-rule="evenodd" d="M151.056 87.8186C150.031 87.4071 148.87 87.906 148.463 88.9329L146.384 94.1811C145.978 95.2081 146.479 96.3742 147.504 96.7857L147.744 96.8819L148.162 95.827L148.042 95.7788C147.529 95.5731 147.279 94.99 147.482 94.4766L149.461 89.4788C149.665 88.9654 150.245 88.7159 150.758 88.9216L150.878 88.9698L151.296 87.9148L151.056 87.8186Z" fill="white"/>
<path opacity="0.7" fill-rule="evenodd" clip-rule="evenodd" d="M89.6011 58.1626L89.7775 57.7171L91.3494 58.3481L91.1729 58.7936L89.6011 58.1626ZM88.8954 59.9443L89.4247 58.608L90.9965 59.239L90.4672 60.5753L88.8954 59.9443ZM88.1896 61.726L88.7189 60.3897L90.2908 61.0207L89.7615 62.357L88.1896 61.726ZM87.6604 63.0622L87.8368 62.6168L89.4086 63.2478L89.2322 63.6932L87.6604 63.0622ZM86.9546 64.8439L87.3075 63.9531L88.8794 64.5841L88.5265 65.4749L86.9546 64.8439ZM86.2489 66.6256L86.7782 65.2893L88.3501 65.9203L87.8208 67.2566L86.2489 66.6256ZM85.5432 68.4073L86.0725 67.071L87.6443 67.702L87.1151 69.0383L85.5432 68.4073ZM85.0139 69.7436L85.1903 69.2982L86.7622 69.9292L86.5858 70.3746L85.0139 69.7436ZM84.3082 71.5253L84.6611 70.6344L86.2329 71.2654L85.8801 72.1563L84.3082 71.5253ZM83.6025 73.307L84.1318 71.9707L85.7036 72.6017L85.1743 73.938L83.6025 73.307ZM82.8968 75.0887L83.426 73.7524L84.9979 74.3834L84.4686 75.7197L82.8968 75.0887ZM82.3675 76.4249L82.5439 75.9795L84.1158 76.6105L83.9393 77.0559L82.3675 76.4249ZM81.8382 77.7612L82.0146 77.3158L83.5865 77.9468L83.41 78.3922L81.8382 77.7612Z" fill="black"/>
<path opacity="0.7" fill-rule="evenodd" clip-rule="evenodd" d="M132.565 75.4101L132.742 74.9647L134.313 75.5957L134.137 76.0411L132.565 75.4101ZM131.859 77.1918L132.389 75.8555L133.961 76.4866L133.431 77.8228L131.859 77.1918ZM131.154 78.9735L131.683 77.6372L133.255 78.2682L132.726 79.6045L131.154 78.9735ZM130.624 80.3098L130.801 79.8644L132.373 80.4954L132.196 80.9408L130.624 80.3098ZM129.919 82.0915L130.272 81.2006L131.843 81.8316L131.491 82.7225L129.919 82.0915ZM129.213 83.8732L129.742 82.5369L131.314 83.1679L130.785 84.5042L129.213 83.8732ZM128.507 85.6549L129.037 84.3186L130.608 84.9496L130.079 86.2859L128.507 85.6549ZM127.978 86.9911L128.154 86.5457L129.726 87.1767L129.55 87.6221L127.978 86.9911ZM127.272 88.7728L127.625 87.882L129.197 88.513L128.844 89.4038L127.272 88.7728ZM126.567 90.5545L127.096 89.2183L128.668 89.8493L128.138 91.1855L126.567 90.5545ZM125.861 92.3362L126.39 91L127.962 91.631L127.433 92.9672L125.861 92.3362ZM125.332 93.6725L125.508 93.2271L127.08 93.8581L126.903 94.3035L125.332 93.6725ZM124.802 95.0088L124.979 94.5633L126.551 95.1943L126.374 95.6398L124.802 95.0088Z" fill="black"/>
<ellipse rx="3.10527" ry="3.12041" transform="matrix(0.928015 0.372542 -0.368258 0.929724 98.6333 62.1893)" fill="url(#paint10_linear)"/>
<path fill-rule="evenodd" clip-rule="evenodd" d="M118.492 71.0782L104.345 65.3992L105.181 63.2893L119.328 68.9683L118.492 71.0782Z" fill="#935D5D"/>
<path fill-rule="evenodd" clip-rule="evenodd" d="M137.616 78.7556L137.354 78.6504L138.19 76.5405L138.452 76.6457L137.616 78.7556ZM139.188 79.3866L138.14 78.9659L138.976 76.856L140.024 77.2767L139.188 79.3866ZM141.284 80.2279L139.712 79.5969L140.548 77.487L142.12 78.118L141.284 80.2279ZM142.856 80.8589L141.808 80.4383L142.644 78.3284L143.692 78.749L142.856 80.8589ZM143.904 81.2796L143.38 81.0693L144.216 78.9594L144.74 79.1697L143.904 81.2796ZM145.476 81.9106L144.428 81.4899L145.264 79.38L146.311 79.8007L145.476 81.9106ZM147.572 82.752L146 82.121L146.835 80.0111L148.407 80.6421L147.572 82.752ZM149.143 83.383L148.095 82.9623L148.931 80.8524L149.979 81.2731L149.143 83.383ZM149.929 83.6985L149.667 83.5933L150.503 81.4834L150.765 81.5886L149.929 83.6985Z" fill="#935D5D"/>
<path fill-rule="evenodd" clip-rule="evenodd" d="M126.351 74.2334L120.588 71.9197L121.424 69.8098L127.187 72.1235L126.351 74.2334Z" fill="#935D5D"/>
<path opacity="0.7" fill-rule="evenodd" clip-rule="evenodd" d="M100.79 71.3082L93.4549 68.3635L93.8728 67.3086L101.208 70.2533L100.79 71.3082Z" fill="black"/>
<path opacity="0.7" fill-rule="evenodd" clip-rule="evenodd" d="M96.9171 73.4216L92.2015 71.5286L92.6194 70.4736L97.335 72.3666L96.9171 73.4216Z" fill="black"/>
<path opacity="0.7" fill-rule="evenodd" clip-rule="evenodd" d="M98.9099 76.0555L91.5746 73.1109L91.9924 72.0559L99.3278 75.0006L98.9099 76.0555Z" fill="black"/>
<path opacity="0.7" fill-rule="evenodd" clip-rule="evenodd" d="M94.9337 79.9615L89.6942 77.8582L90.1121 76.8032L95.3516 78.9066L94.9337 79.9615Z" fill="black"/>
<path opacity="0.7" fill-rule="evenodd" clip-rule="evenodd" d="M96.9268 82.5957L89.0675 79.4407L89.4854 78.3857L97.3446 81.5408L96.9268 82.5957Z" fill="black"/>
<path opacity="0.7" fill-rule="evenodd" clip-rule="evenodd" d="M107.602 74.0427L103.934 72.5703L104.352 71.5154L108.019 72.9877L107.602 74.0427Z" fill="black"/>
<path opacity="0.7" fill-rule="evenodd" clip-rule="evenodd" d="M105.824 76.9971L102.681 75.7351L103.098 74.6802L106.242 75.9422L105.824 76.9971Z" fill="black"/>
<path opacity="0.7" fill-rule="evenodd" clip-rule="evenodd" d="M107.817 79.6313L102.054 77.3176L102.471 76.2627L108.235 78.5764L107.817 79.6313Z" fill="black"/>
<path opacity="0.7" fill-rule="evenodd" clip-rule="evenodd" d="M116.827 81.4141L112.636 79.7315L113.053 78.6765L117.245 80.3592L116.827 81.4141Z" fill="black"/>
<path opacity="0.7" fill-rule="evenodd" clip-rule="evenodd" d="M115.153 82.576L112.009 81.314L112.427 80.259L115.57 81.521L115.153 82.576Z" fill="black"/>
<path opacity="0.7" fill-rule="evenodd" clip-rule="evenodd" d="M104.365 83.7476L100.173 82.065L100.591 81.01L104.783 82.6927L104.365 83.7476Z" fill="black"/>
<path opacity="0.7" fill-rule="evenodd" clip-rule="evenodd" d="M103.738 85.3299L99.5465 83.6472L99.9644 82.5923L104.156 84.275L103.738 85.3299Z" fill="black"/>
<path opacity="0.7" fill-rule="evenodd" clip-rule="evenodd" d="M138.515 86.4523L134.847 84.98L135.265 83.925L138.933 85.3974L138.515 86.4523Z" fill="black"/>
<path opacity="0.7" fill-rule="evenodd" clip-rule="evenodd" d="M136.737 89.407L133.594 88.145L134.011 87.0901L137.155 88.3521L136.737 89.407Z" fill="black"/>
<path opacity="0.7" fill-rule="evenodd" clip-rule="evenodd" d="M138.73 92.041L132.967 89.7273L133.385 88.6724L139.148 90.986L138.73 92.041Z" fill="black"/>
<path opacity="0.7" fill-rule="evenodd" clip-rule="evenodd" d="M135.278 96.1573L131.087 94.4746L131.504 93.4197L135.696 95.1024L135.278 96.1573Z" fill="black"/>
<path opacity="0.7" fill-rule="evenodd" clip-rule="evenodd" d="M139.367 99.6328L130.46 96.0571L130.877 95.0022L139.785 98.5779L139.367 99.6328Z" fill="black"/>
<mask id="mask1" mask-type="alpha" maskUnits="userSpaceOnUse" x="80" y="53" width="75" height="53">
<path d="M91.9728 53.7073C91.1046 53.3589 90.1203 53.7848 89.7741 54.6588L80.3723 78.3951C80.0261 79.2691 80.4492 80.2601 81.3174 80.6087L124.805 98.0664C125.671 98.4138 126.651 97.9916 127.001 97.1235C126.661 97.9952 127.084 98.981 127.949 99.3284L142.62 105.218C143.488 105.566 144.472 105.14 144.818 104.266L154.22 80.5299C154.566 79.6559 154.143 78.6649 153.275 78.3164L138.604 72.427C137.736 72.0786 136.752 72.5045 136.406 73.3785C136.752 72.5046 136.329 71.5137 135.461 71.1651L91.9728 53.7073Z" fill="#FFCBCB"/>
</mask>
<g mask="url(#mask1)">
<g opacity="0.4" filter="url(#filter0_f)">
<path d="M106.889 41.0068C106.129 40.4593 105.072 40.6356 104.528 41.4008L89.7554 62.1814C89.2115 62.9465 89.3868 64.0106 90.1467 64.5582L128.219 91.9884C128.979 92.5359 130.037 92.3595 130.58 91.5944C130.037 92.3595 130.212 93.4236 130.972 93.9712L143.816 103.225C144.576 103.772 145.633 103.596 146.176 102.831L160.949 82.0502C161.493 81.285 161.318 80.2208 160.558 79.6733L147.714 70.4197C146.954 69.8723 145.897 70.0486 145.353 70.8138C145.897 70.0486 145.722 68.9844 144.961 68.4369L106.889 41.0068Z" fill="#805050"/>
</g>
</g>
<rect width="50.317" height="28.8958" rx="3" transform="matrix(0.811355 0.584553 -0.579395 0.815047 107.205 38.8799)" fill="url(#paint11_linear)"/>
<path fill-rule="evenodd" clip-rule="evenodd" d="M150.464 70.0466C149.12 69.0781 147.252 69.3877 146.292 70.7381L133.026 89.3992C132.066 90.7497 132.378 92.6295 133.722 93.598L144.45 101.327C145.794 102.296 147.662 101.986 148.622 100.636L152.982 94.5023C153.064 94.3877 153.006 94.2237 152.892 94.1415C152.512 93.8677 152.424 93.3363 152.695 92.9546L155.98 88.3337C156.251 87.9519 156.779 87.8644 157.159 88.1382C157.273 88.2204 157.446 88.2225 157.528 88.1079L161.888 81.9745C162.848 80.6241 162.536 78.7443 161.192 77.7757L150.464 70.0466Z" fill="url(#paint12_linear)"/>
<path d="M105.467 41.325C106.427 39.9746 108.295 39.665 109.639 40.6335L110.416 41.1933L93.6737 64.7447L92.8969 64.185C91.5526 63.2164 91.241 61.3366 92.201 59.9862L105.467 41.325Z" fill="white"/>
<path opacity="0.5" d="M146.292 70.7381C147.252 69.3877 146.94 67.5078 145.596 66.5393L144.819 65.9796L128.077 89.531L128.854 90.0907C130.198 91.0592 132.066 90.7497 133.026 89.3992L146.292 70.7381Z" fill="white"/>
<path opacity="0.5" fill-rule="evenodd" clip-rule="evenodd" d="M157.833 87.227C156.937 86.5813 155.692 86.7877 155.052 87.688L151.789 92.2782C151.149 93.1785 151.356 94.4318 152.252 95.0774L152.465 95.2303L153.121 94.3067L153.015 94.2303C152.567 93.9074 152.463 93.2808 152.783 92.8307L155.892 88.4575C156.212 88.0073 156.835 87.9041 157.283 88.227L157.389 88.3034L158.045 87.3798L157.833 87.227Z" fill="white"/>
<path opacity="0.7" fill-rule="evenodd" clip-rule="evenodd" d="M105.219 43.6251L105.496 43.2351L106.872 44.2266L106.595 44.6165L105.219 43.6251ZM104.11 45.1849L104.942 44.015L106.318 45.0065L105.486 46.1764L104.11 45.1849ZM103.001 46.7447L103.833 45.5749L105.209 46.5663L104.377 47.7362L103.001 46.7447ZM102.169 47.9146L102.447 47.5247L103.823 48.5161L103.546 48.9061L102.169 47.9146ZM101.061 49.4744L101.615 48.6945L102.991 49.686L102.437 50.4659L101.061 49.4744ZM99.9517 51.0343L100.783 49.8644L102.159 50.8558L101.328 52.0257L99.9517 51.0343ZM98.8429 52.5941L99.6745 51.4242L101.051 52.4157L100.219 53.5856L98.8429 52.5941ZM98.0113 53.764L98.2885 53.374L99.6646 54.3655L99.3874 54.7554L98.0113 53.764ZM96.9024 55.3238L97.4568 54.5439L98.833 55.5353L98.2786 56.3153L96.9024 55.3238ZM95.7936 56.8836L96.6252 55.7138L98.0013 56.7052L97.1697 57.8751L95.7936 56.8836ZM94.6847 58.4435L95.5164 57.2736L96.8925 58.265L96.0609 59.4349L94.6847 58.4435ZM93.8531 59.6133L94.1303 59.2234L95.5064 60.2148L95.2292 60.6048L93.8531 59.6133ZM93.0215 60.7832L93.2987 60.3933L94.6748 61.3847L94.3976 61.7747L93.0215 60.7832Z" fill="black"/>
<path opacity="0.7" fill-rule="evenodd" clip-rule="evenodd" d="M142.833 70.7247L143.11 70.3347L144.486 71.3262L144.209 71.7161L142.833 70.7247ZM141.724 72.2845L142.556 71.1146L143.932 72.1061L143.1 73.276L141.724 72.2845ZM140.615 73.8443L141.447 72.6745L142.823 73.6659L141.991 74.8358L140.615 73.8443ZM139.783 75.0142L140.061 74.6243L141.437 75.6157L141.16 76.0057L139.783 75.0142ZM138.675 76.5741L139.229 75.7941L140.605 76.7856L140.051 77.5655L138.675 76.5741ZM137.566 78.1339L138.397 76.964L139.774 77.9555L138.942 79.1253L137.566 78.1339ZM136.457 79.6937L137.289 78.5238L138.665 79.5153L137.833 80.6852L136.457 79.6937ZM135.625 80.8636L135.902 80.4736L137.279 81.4651L137.001 81.855L135.625 80.8636ZM134.516 82.4234L135.071 81.6435L136.447 82.635L135.893 83.4149L134.516 82.4234ZM133.408 83.9832L134.239 82.8134L135.615 83.8048L134.784 84.9747L133.408 83.9832ZM132.299 85.5431L133.13 84.3732L134.507 85.3647L133.675 86.5345L132.299 85.5431ZM131.467 86.713L131.744 86.323L133.12 87.3144L132.843 87.7044L131.467 86.713ZM130.635 87.8828L130.913 87.4929L132.289 88.4843L132.012 88.8743L130.635 87.8828Z" fill="black"/>
<ellipse rx="3.10948" ry="3.11621" transform="matrix(0.811355 0.584553 -0.579395 0.815047 113.031 49.7113)" fill="url(#paint13_linear)"/>
<path fill-rule="evenodd" clip-rule="evenodd" d="M130.199 63.1276L117.814 54.2046L119.127 52.3574L131.512 61.2805L130.199 63.1276Z" fill="#935D5D"/>
<path fill-rule="evenodd" clip-rule="evenodd" d="M146.942 75.1901L146.712 75.0249L148.025 73.1777L148.255 73.343L146.942 75.1901ZM148.318 76.1816L147.4 75.5206L148.713 73.6735L149.631 74.3344L148.318 76.1816ZM150.153 77.5035L148.776 76.5121L150.09 74.6649L151.466 75.6564L150.153 77.5035ZM151.529 78.495L150.611 77.834L151.924 75.9868L152.842 76.6478L151.529 78.495ZM152.446 79.1559L151.987 78.8255L153.301 76.9783L153.759 77.3088L152.446 79.1559ZM153.822 80.1474L152.905 79.4864L154.218 77.6393L155.135 78.3002L153.822 80.1474ZM155.657 81.4693L154.281 80.4779L155.594 78.6307L156.97 79.6222L155.657 81.4693ZM157.033 82.4608L156.116 81.7998L157.429 79.9526L158.346 80.6136L157.033 82.4608ZM157.721 82.9565L157.492 82.7913L158.805 80.9441L159.034 81.1093L157.721 82.9565Z" fill="#935D5D"/>
<path fill-rule="evenodd" clip-rule="evenodd" d="M137.079 68.0848L132.034 64.4495L133.347 62.6023L138.392 66.2376L137.079 68.0848Z" fill="#935D5D"/>
<path opacity="0.7" fill-rule="evenodd" clip-rule="evenodd" d="M112.957 59.085L106.535 54.4583L107.192 53.5347L113.614 58.1614L112.957 59.085Z" fill="black"/>
<path opacity="0.7" fill-rule="evenodd" clip-rule="evenodd" d="M108.694 60.2034L104.565 57.229L105.222 56.3054L109.35 59.2798L108.694 60.2034Z" fill="black"/>
<path opacity="0.7" fill-rule="evenodd" clip-rule="evenodd" d="M110.003 63.2413L103.581 58.6145L104.237 57.6909L110.659 62.3177L110.003 63.2413Z" fill="black"/>
<path opacity="0.7" fill-rule="evenodd" clip-rule="evenodd" d="M105.213 66.0753L100.626 62.7705L101.283 61.8469L105.87 65.1518L105.213 66.0753Z" fill="black"/>
<path opacity="0.7" fill-rule="evenodd" clip-rule="evenodd" d="M106.522 69.1133L99.6413 64.156L100.298 63.2324L107.178 68.1897L106.522 69.1133Z" fill="black"/>
<path opacity="0.7" fill-rule="evenodd" clip-rule="evenodd" d="M118.92 63.3815L115.709 61.0681L116.366 60.1445L119.577 62.4579L118.92 63.3815Z" fill="black"/>
<path opacity="0.7" fill-rule="evenodd" clip-rule="evenodd" d="M116.492 65.8218L113.74 63.8389L114.396 62.9153L117.148 64.8982L116.492 65.8218Z" fill="black"/>
<path opacity="0.7" fill-rule="evenodd" clip-rule="evenodd" d="M117.801 68.8594L112.755 65.2241L113.411 64.3005L118.457 67.9359L117.801 68.8594Z" fill="black"/>
<path opacity="0.7" fill-rule="evenodd" clip-rule="evenodd" d="M126.125 72.7618L122.455 70.1179L123.112 69.1943L126.781 71.8382L126.125 72.7618Z" fill="black"/>
<path opacity="0.7" fill-rule="evenodd" clip-rule="evenodd" d="M124.222 73.4863L121.47 71.5034L122.127 70.5798L124.879 72.5627L124.222 73.4863Z" fill="black"/>
<path opacity="0.7" fill-rule="evenodd" clip-rule="evenodd" d="M113.47 72.0242L109.8 69.3804L110.457 68.4568L114.126 71.1007L113.47 72.0242Z" fill="black"/>
<path opacity="0.7" fill-rule="evenodd" clip-rule="evenodd" d="M112.485 73.4095L108.815 70.7656L109.472 69.842L113.142 72.4859L112.485 73.4095Z" fill="black"/>
<path opacity="0.7" fill-rule="evenodd" clip-rule="evenodd" d="M145.984 82.8798L142.773 80.5664L143.43 79.6428L146.641 81.9562L145.984 82.8798Z" fill="black"/>
<path opacity="0.7" fill-rule="evenodd" clip-rule="evenodd" d="M143.556 85.3201L140.803 83.3372L141.46 82.4136L144.212 84.3965L143.556 85.3201Z" fill="black"/>
<path opacity="0.7" fill-rule="evenodd" clip-rule="evenodd" d="M144.864 88.358L139.819 84.7227L140.475 83.7991L145.521 87.4344L144.864 88.358Z" fill="black"/>
<path opacity="0.7" fill-rule="evenodd" clip-rule="evenodd" d="M140.534 91.5225L136.864 88.8787L137.521 87.9551L141.19 90.5989L140.534 91.5225Z" fill="black"/>
<path opacity="0.7" fill-rule="evenodd" clip-rule="evenodd" d="M143.677 95.8824L135.879 90.2642L136.536 89.3406L144.334 94.9588L143.677 95.8824Z" fill="black"/>
<g filter="url(#filter1_d)">
<rect x="72.4988" y="79.8489" width="94" height="19" rx="3" fill="#FF8A00"/>
</g>
<path d="M85.9208 89.3472C85.9208 90.1512 85.7302 90.7691 85.349 91.201C84.9678 91.6329 84.4214 91.8489 83.7098 91.8489C82.9982 91.8489 82.4518 91.6329 82.0706 91.201C81.6894 90.7691 81.4988 90.149 81.4988 89.3406C81.4988 88.5322 81.6894 87.9153 82.0706 87.4901C82.4539 87.0626 83.0024 86.8489 83.7161 86.8489C84.4298 86.8489 84.9752 87.0637 85.3521 87.4934C85.7312 87.9231 85.9208 88.541 85.9208 89.3472ZM82.5312 89.3472C82.5312 89.8899 82.6297 90.2985 82.8267 90.5731C83.0236 90.8478 83.318 90.9851 83.7098 90.9851C84.4955 90.9851 84.8883 90.4391 84.8883 89.3472C84.8883 88.2531 84.4976 87.706 83.7161 87.706C83.3243 87.706 83.0289 87.8444 82.8298 88.1213C82.6308 88.3959 82.5312 88.8046 82.5312 89.3472Z" fill="white"/>
<path d="M89.8644 90.3073H89.9088C90.2498 90.3073 90.5167 90.2143 90.7094 90.0283C90.9042 89.84 91.0016 89.5831 91.0016 89.2575C91.0016 88.9563 90.9116 88.7149 90.7316 88.5333C90.5516 88.3494 90.3059 88.2575 89.9946 88.2575H89.8644V90.3073ZM88.9781 91.8489V91.1014H88.9082C88.5143 91.1014 88.1691 91.0294 87.8726 90.8854C87.5761 90.7392 87.342 90.5211 87.1705 90.2309C87.0011 89.9408 86.9164 89.6185 86.9164 89.2642C86.9164 88.9209 86.9916 88.6119 87.1419 88.3372C87.2944 88.0604 87.5136 87.8444 87.7995 87.6894C88.0854 87.5322 88.4221 87.4535 88.8097 87.4535H88.9781V86.8555H89.8644V87.4535H90.0327C90.4182 87.4535 90.7539 87.5322 91.0398 87.6894C91.3257 87.8444 91.5449 88.0604 91.6973 88.3372C91.8498 88.6119 91.9261 88.9209 91.9261 89.2642C91.9261 89.6185 91.8403 89.9408 91.6688 90.2309C91.4993 90.5211 91.2664 90.7392 90.9699 90.8854C90.6734 91.0294 90.3282 91.1014 89.9343 91.1014H89.8644V91.8489H88.9781ZM88.9781 88.2575H88.8478C88.5365 88.2575 88.2908 88.3483 88.1108 88.5299C87.9308 88.7116 87.8408 88.9541 87.8408 89.2575C87.8408 89.5765 87.9361 89.8312 88.1267 90.0216C88.3173 90.2121 88.5863 90.3073 88.9336 90.3073H88.9781V88.2575Z" fill="white"/>
<path d="M97.3468 89.3472C97.3468 90.1512 97.1562 90.7691 96.775 91.201C96.3938 91.6329 95.8474 91.8489 95.1358 91.8489C94.4242 91.8489 93.8778 91.6329 93.4966 91.201C93.1154 90.7691 92.9248 90.149 92.9248 89.3406C92.9248 88.5322 93.1154 87.9153 93.4966 87.4901C93.88 87.0626 94.4285 86.8489 95.1422 86.8489C95.8559 86.8489 96.4012 87.0637 96.7782 87.4934C97.1573 87.9231 97.3468 88.541 97.3468 89.3472ZM93.9573 89.3472C93.9573 89.8899 94.0557 90.2985 94.2527 90.5731C94.4497 90.8478 94.744 90.9851 95.1358 90.9851C95.9215 90.9851 96.3144 90.4391 96.3144 89.3472C96.3144 88.2531 95.9237 87.706 95.1422 87.706C94.7504 87.706 94.455 87.8444 94.2559 88.1213C94.0568 88.3959 93.9573 88.8046 93.9573 89.3472Z" fill="white"/>
<path d="M99.6195 89.211H99.9435C100.246 89.211 100.473 89.149 100.623 89.025C100.774 88.8987 100.849 88.716 100.849 88.4768C100.849 88.2354 100.785 88.0571 100.658 87.9419C100.533 87.8267 100.336 87.7691 100.067 87.7691H99.6195V89.211ZM101.843 88.4402C101.843 88.9629 101.686 89.3627 101.373 89.6396C101.062 89.9164 100.618 90.0549 100.042 90.0549H99.6195V91.7824H98.6347V86.9253H100.118C100.682 86.9253 101.109 87.0526 101.402 87.3073C101.696 87.5598 101.843 87.9375 101.843 88.4402Z" fill="white"/>
<path d="M105.012 91.7824L103.893 87.9718H103.865C103.905 88.747 103.925 89.2642 103.925 89.5233V91.7824H103.045V86.9253H104.386L105.485 90.6396H105.504L106.67 86.9253H108.01V91.7824H107.092V89.4834C107.092 89.3749 107.093 89.2498 107.096 89.108C107.1 88.9663 107.115 88.5897 107.14 87.9784H107.111L105.914 91.7824H105.012Z" fill="white"/>
<path d="M109.508 86.9253H110.394V89.2708L110.382 89.8987L110.35 90.613H110.369L112.513 86.9253H113.692V91.7824H112.815V89.4502C112.815 89.1379 112.834 88.675 112.872 88.0615H112.847L110.693 91.7824H109.508V86.9253Z" fill="white"/>
<path d="M116.981 91.7824H115.996V87.7824H114.735V86.9253H118.242V87.7824H116.981V91.7824Z" fill="white"/>
<path d="M122.554 90.2642C122.554 91.2763 121.915 91.7824 120.635 91.7824H119.282V86.9253H120.267V88.7891H120.654C121.26 88.7891 121.728 88.9175 122.059 89.1745C122.389 89.4314 122.554 89.7946 122.554 90.2642ZM120.267 90.9386H120.597C120.93 90.9386 121.173 90.8832 121.328 90.7725C121.483 90.6595 121.56 90.4901 121.56 90.2642C121.56 90.0405 121.481 89.8799 121.325 89.7824C121.168 89.6828 120.899 89.6329 120.518 89.6329H120.267V90.9386Z" fill="white"/>
<path d="M125.778 86.9253H127.223C127.882 86.9253 128.36 87.0238 128.656 87.221C128.955 87.4159 129.104 87.7271 129.104 88.1545C129.104 88.4447 129.038 88.6828 128.907 88.8688C128.778 89.0549 128.605 89.1667 128.389 89.2044V89.2376C128.684 89.3062 128.895 89.4347 129.025 89.623C129.156 89.8112 129.221 90.0615 129.221 90.3738C129.221 90.8168 129.068 91.1623 128.761 91.4103C128.456 91.6584 128.041 91.7824 127.516 91.7824H125.778V86.9253ZM126.763 88.8489H127.334C127.601 88.8489 127.794 88.8057 127.913 88.7193C128.033 88.6329 128.094 88.4901 128.094 88.2907C128.094 88.1047 128.028 87.9718 127.897 87.8921C127.768 87.8101 127.562 87.7691 127.28 87.7691H126.763V88.8489ZM126.763 89.6662V90.9319H127.404C127.675 90.9319 127.876 90.8777 128.005 90.7691C128.134 90.6606 128.199 90.4945 128.199 90.2708C128.199 89.8677 127.923 89.6662 127.373 89.6662H126.763Z" fill="white"/>
<path d="M134.69 89.3472C134.69 90.1512 134.499 90.7691 134.118 91.201C133.737 91.6329 133.19 91.8489 132.479 91.8489C131.767 91.8489 131.221 91.6329 130.84 91.201C130.458 90.7691 130.268 90.149 130.268 89.3406C130.268 88.5322 130.458 87.9153 130.84 87.4901C131.223 87.0626 131.772 86.8489 132.485 86.8489C133.199 86.8489 133.744 87.0637 134.121 87.4934C134.5 87.9231 134.69 88.541 134.69 89.3472ZM131.3 89.3472C131.3 89.8899 131.399 90.2985 131.596 90.5731C131.793 90.8478 132.087 90.9851 132.479 90.9851C133.265 90.9851 133.657 90.4391 133.657 89.3472C133.657 88.2531 133.267 87.706 132.485 87.706C132.093 87.706 131.798 87.8444 131.599 88.1213C131.4 88.3959 131.3 88.8046 131.3 89.3472Z" fill="white"/>
<path d="M139.186 88.0615C139.186 88.3738 139.08 88.6318 138.869 88.8356C138.657 89.0394 138.37 89.1689 138.008 89.2243V89.2442C138.433 89.2885 138.759 89.4114 138.986 89.613C139.215 89.8145 139.329 90.077 139.329 90.4004C139.329 90.8478 139.156 91.201 138.808 91.4602C138.463 91.7193 137.984 91.8489 137.372 91.8489C136.69 91.8489 136.143 91.7614 135.73 91.5864V90.7226C135.929 90.8223 136.162 90.9009 136.429 90.9585C136.698 91.0139 136.949 91.0416 137.182 91.0416C137.963 91.0416 138.354 90.8035 138.354 90.3273C138.354 90.1124 138.228 89.9474 137.976 89.8323C137.726 89.7171 137.355 89.6595 136.864 89.6595H136.429V88.8555H136.82C137.311 88.8555 137.669 88.8068 137.893 88.7093C138.118 88.6119 138.23 88.4502 138.23 88.2243C138.23 88.0582 138.159 87.9264 138.017 87.8289C137.877 87.7293 137.667 87.6794 137.385 87.6794C136.949 87.6794 136.527 87.8112 136.121 88.0748L135.692 87.3871C135.957 87.2033 136.237 87.0693 136.534 86.9851C136.83 86.8987 137.159 86.8555 137.522 86.8555C138.028 86.8555 138.431 86.9663 138.732 87.1877C139.035 87.4092 139.186 87.7005 139.186 88.0615Z" fill="white"/>
<path d="M140.522 86.9253H141.967C142.626 86.9253 143.103 87.0238 143.4 87.221C143.698 87.4159 143.848 87.7271 143.848 88.1545C143.848 88.4447 143.782 88.6828 143.651 88.8688C143.522 89.0549 143.349 89.1667 143.133 89.2044V89.2376C143.427 89.3062 143.639 89.4347 143.768 89.623C143.9 89.8112 143.965 90.0615 143.965 90.3738C143.965 90.8168 143.812 91.1623 143.505 91.4103C143.2 91.6584 142.785 91.7824 142.259 91.7824H140.522V86.9253ZM141.507 88.8489H142.078C142.345 88.8489 142.538 88.8057 142.656 88.7193C142.777 88.6329 142.838 88.4901 142.838 88.2907C142.838 88.1047 142.772 87.9718 142.641 87.8921C142.511 87.8101 142.306 87.7691 142.024 87.7691H141.507V88.8489ZM141.507 89.6662V90.9319H142.148C142.419 90.9319 142.619 90.8777 142.749 90.7691C142.878 90.6606 142.942 90.4945 142.942 90.2708C142.942 89.8677 142.667 89.6662 142.116 89.6662H141.507Z" fill="white"/>
<path d="M146.203 89.211H146.527C146.83 89.211 147.056 89.149 147.207 89.025C147.357 88.8987 147.432 88.716 147.432 88.4768C147.432 88.2354 147.369 88.0571 147.242 87.9419C147.117 87.8267 146.92 87.7691 146.651 87.7691H146.203V89.211ZM148.427 88.4402C148.427 88.9629 148.27 89.3627 147.957 89.6396C147.645 89.9164 147.202 90.0549 146.625 90.0549H146.203V91.7824H145.218V86.9253H146.702C147.265 86.9253 147.693 87.0526 147.985 87.3073C148.279 87.5598 148.427 87.9375 148.427 88.4402Z" fill="white"/>
<path d="M152.472 91.7824L152.135 90.6263H150.442L150.105 91.7824H149.044L150.683 86.9054H151.887L153.533 91.7824H152.472ZM151.9 89.7625C151.589 88.7149 151.413 88.1224 151.373 87.9851C151.335 87.8478 151.307 87.7392 151.29 87.6595C151.22 87.943 151.02 88.644 150.69 89.7625H151.9Z" fill="white"/>
<path d="M156.238 91.7824H155.253V87.7824H153.992V86.9253H157.499V87.7824H156.238V91.7824Z" fill="white"/>
<g filter="url(#filter2_d)">
<path d="M161.864 94.931L171.473 97.3623L167.659 99.3418L166.742 103.527L161.864 94.931Z" fill="url(#paint14_linear)"/>
<path d="M161.864 94.931L171.473 97.3623L167.659 99.3418L166.742 103.527L161.864 94.931Z" stroke="white"/>
</g>
</g>
<path opacity="0.5" d="M179.499 107.349L58.4988 107.349" stroke="white"/>
<path opacity="0.5" d="M56.9988 40.8489V37.8489C56.9988 35.9159 58.5658 34.3489 60.4988 34.3489L177.499 34.3489C179.432 34.3489 180.999 35.9159 180.999 37.8489L180.999 40.5896" stroke="url(#paint15_linear)"/>
<path d="M112.499 109.849H126.499" stroke="#C0C0C0" stroke-width="2"/>
<defs>
<filter id="filter0_f" x="79.4392" y="30.6885" width="91.8259" height="82.8546" filterUnits="userSpaceOnUse" color-interpolation-filters="sRGB">
<feFlood flood-opacity="0" result="BackgroundImageFix"/>
<feBlend mode="normal" in="SourceGraphic" in2="BackgroundImageFix" result="shape"/>
<feGaussianBlur stdDeviation="5" result="effect1_foregroundBlur"/>
</filter>
<filter id="filter1_d" x="68.4988" y="77.8489" width="102" height="27" filterUnits="userSpaceOnUse" color-interpolation-filters="sRGB">
<feFlood flood-opacity="0" result="BackgroundImageFix"/>
<feColorMatrix in="SourceAlpha" type="matrix" values="0 0 0 0 0 0 0 0 0 0 0 0 0 0 0 0 0 0 127 0"/>
<feOffset dy="2"/>
<feGaussianBlur stdDeviation="2"/>
<feColorMatrix type="matrix" values="0 0 0 0 0.908297 0 0 0 0 0.575262 0 0 0 0 0.182453 0 0 0 0.36 0"/>
<feBlend mode="normal" in2="BackgroundImageFix" result="effect1_dropShadow"/>
<feBlend mode="normal" in="SourceGraphic" in2="effect1_dropShadow" result="shape"/>
</filter>
<filter id="filter2_d" x="157.85" y="93.1594" width="18.0179" height="16.7509" filterUnits="userSpaceOnUse" color-interpolation-filters="sRGB">
<feFlood flood-opacity="0" result="BackgroundImageFix"/>
<feColorMatrix in="SourceAlpha" type="matrix" values="0 0 0 0 0 0 0 0 0 0 0 0 0 0 0 0 0 0 127 0"/>
<feOffset dy="2"/>
<feGaussianBlur stdDeviation="1.5"/>
<feColorMatrix type="matrix" values="0 0 0 0 0 0 0 0 0 0 0 0 0 0 0 0 0 0 0.25 0"/>
<feBlend mode="normal" in2="BackgroundImageFix" result="effect1_dropShadow"/>
<feBlend mode="normal" in="SourceGraphic" in2="effect1_dropShadow" result="shape"/>
</filter>
<radialGradient id="paint0_radial" cx="0" cy="0" r="1" gradientUnits="userSpaceOnUse" gradientTransform="translate(119.5 71.5) rotate(90) scale(71.5 119.5)">
<stop stop-color="white"/>
<stop offset="1" stop-color="white" stop-opacity="0"/>
</radialGradient>
<linearGradient id="paint1_linear" x1="83.28" y1="17.931" x2="189.281" y2="44.909" gradientUnits="userSpaceOnUse">
<stop stop-color="#B9B9B9"/>
<stop offset="0.425414" stop-color="#A0A0A0"/>
<stop offset="1" stop-color="#B9B9B9"/>
</linearGradient>
<linearGradient id="paint2_linear" x1="58.4988" y1="35.3077" x2="186.928" y2="53.0397" gradientUnits="userSpaceOnUse">
<stop stop-color="#DEF3FF"/>
<stop offset="1" stop-color="#E6FAFF"/>
</linearGradient>
<linearGradient id="paint3_linear" x1="84.9675" y1="23.0115" x2="184.966" y2="50.4642" gradientUnits="userSpaceOnUse">
<stop stop-color="#B9B9B9"/>
<stop offset="0.425414" stop-color="#A0A0A0"/>
<stop offset="1" stop-color="#C6C6C6"/>
</linearGradient>
<linearGradient id="paint4_linear" x1="118.999" y1="109.849" x2="118.999" y2="112.849" gradientUnits="userSpaceOnUse">
<stop stop-color="white" stop-opacity="0"/>
<stop offset="1" stop-color="white"/>
</linearGradient>
<linearGradient id="paint5_linear" x1="118.999" y1="112.435" x2="118.999" y2="117.849" gradientUnits="userSpaceOnUse">
<stop offset="0.199766" stop-color="#EBEBEB"/>
<stop offset="0.200391" stop-color="#E1E1E1"/>
<stop offset="0.500926" stop-color="#E1E1E1"/>
<stop offset="1" stop-color="#B6B6B6"/>
</linearGradient>
<linearGradient id="paint6_linear" x1="25.4988" y1="113.788" x2="212.499" y2="114.061" gradientUnits="userSpaceOnUse">
<stop/>
<stop offset="1" stop-color="white" stop-opacity="0"/>
</linearGradient>
<linearGradient id="paint7_linear" x1="118.999" y1="112.435" x2="118.999" y2="117.849" gradientUnits="userSpaceOnUse">
<stop stop-color="#B9B9B9"/>
<stop offset="1" stop-color="#A0A0A0"/>
</linearGradient>
<linearGradient id="paint8_linear" x1="11.2919" y1="-1.70204" x2="32.6074" y2="30.2575" gradientUnits="userSpaceOnUse">
<stop stop-color="#F8BFBF"/>
<stop offset="0.55685" stop-color="#F5C1C1"/>
<stop offset="1" stop-color="#F6D7D7"/>
</linearGradient>
<linearGradient id="paint9_linear" x1="141.663" y1="71.821" x2="155.986" y2="89.8123" gradientUnits="userSpaceOnUse">
<stop stop-color="#F5C1C1"/>
<stop offset="1" stop-color="#F6D7D7"/>
</linearGradient>
<linearGradient id="paint10_linear" x1="0.282297" y1="0.283673" x2="6.23936" y2="6.21184" gradientUnits="userSpaceOnUse">
<stop stop-color="#BEA25A"/>
<stop offset="1" stop-color="#E1C681"/>
</linearGradient>
<linearGradient id="paint11_linear" x1="11.3072" y1="-1.69975" x2="32.5719" y2="30.2699" gradientUnits="userSpaceOnUse">
<stop stop-color="#F8BFBF"/>
<stop offset="0.55685" stop-color="#F5C1C1"/>
<stop offset="1" stop-color="#F6D7D7"/>
</linearGradient>
<linearGradient id="paint12_linear" x1="152.519" y1="69.4326" x2="162.118" y2="90.3663" gradientUnits="userSpaceOnUse">
<stop stop-color="#F5C1C1"/>
<stop offset="1" stop-color="#F6D7D7"/>
</linearGradient>
<linearGradient id="paint13_linear" x1="0.28268" y1="0.283292" x2="6.23179" y2="6.21956" gradientUnits="userSpaceOnUse">
<stop stop-color="#BEA25A"/>
<stop offset="1" stop-color="#E1C681"/>
</linearGradient>
<linearGradient id="paint14_linear" x1="161.864" y1="94.931" x2="169.086" y2="100.473" gradientUnits="userSpaceOnUse">
<stop stop-color="#292A2B"/>
<stop offset="1" stop-color="#275761"/>
</linearGradient>
<linearGradient id="paint15_linear" x1="117.822" y1="40.8489" x2="117.822" y2="33.8489" gradientUnits="userSpaceOnUse">
<stop stop-color="white" stop-opacity="0"/>
<stop offset="1" stop-color="white"/>
</linearGradient>
</defs>
</svg>
