<svg xmlns="http://www.w3.org/2000/svg" width="72" height="71">
    <path fill="none" d="M1 0h71v71H1V0z" opacity=".2"/>
    <path fill="#387FBF" fill-rule="evenodd" d="M71.878 29.369l-2.246 7.592v23.165A2.873 2.873 0 0 1 66.765 63H4.706a2.874 2.874 0 0 1-2.868-2.874V36.412a2.88 2.88 0 0 1-1.72-3.497l6.761-22.857A2.886 2.886 0 0 1 9.628 8c.275 0 .55.04.815.119l59.5 17.678c.735.218 1.34.71 1.706 1.384.365.675.447 1.452.229 2.188zM3.93 60.126c0 .428.348.777.776.777H48.7v-1.251a1.048 1.048 0 1 1 2.093 0v1.251h15.972a.777.777 0 0 0 .775-.777V44.035l-2.423 8.192a2.885 2.885 0 0 1-2.749 2.057c-.275 0-.55-.04-.815-.119l-10.76-3.197v4.164c0 .579-.469 1.049-1.047 1.049-.577 0-1.046-.47-1.046-1.049v-4.52c0-.088.012-.174.033-.256l-10.332-3.069h-20.53a.35.35 0 0 1-.348-.35v-2.225a.35.35 0 0 1 .348-.35h10.686l-7.929-2.355h-2.757a.35.35 0 0 1-.348-.35v-.573l-2.174-.646-1.291 1.294.518 4.741-.793.982-1.671-3.772-1.316 1.319.137 1.403a.077.077 0 0 1-.024.063l-.491.496a.114.114 0 0 1-.023.015.08.08 0 0 1-.105-.04l-.556-1.221a.798.798 0 0 1-.784-.786l-1.221-.557a.068.068 0 0 1-.026-.018.08.08 0 0 1 .005-.112l.491-.493a.08.08 0 0 1 .064-.024l1.402.138 1.315-1.318-3.764-1.675.98-.795 4.73.52.677-.679-9.673-2.874v23.081zm65.88-31.944a.772.772 0 0 0-.461-.375l-15.314-4.549-.438 1.48a1.046 1.046 0 1 1-2.006-.596l.438-1.48-42.18-12.533a.78.78 0 0 0-.964.525l-6.76 22.857a.778.778 0 0 0 .523.966l42.18 12.532.355-1.199a1.044 1.044 0 0 1 1.3-.707c.554.164.87.748.706 1.303l-.355 1.199 15.314 4.55a.78.78 0 0 0 .963-.525l6.761-22.857a.77.77 0 0 0-.062-.591zm-18.776 5.223a1.047 1.047 0 1 1-2.006-.596l1.282-4.333a1.046 1.046 0 1 1 2.006.596l-1.282 4.333zm-1.282 4.334l-1.281 4.333a1.048 1.048 0 0 1-1.301.708 1.049 1.049 0 0 1-.705-1.304l1.281-4.333a1.046 1.046 0 1 1 2.006.596zm-3.226-9.95a.313.313 0 0 1-.099-.015L20.629 20.11a.345.345 0 0 1-.207-.169.345.345 0 0 1-.028-.265l.631-2.134a.349.349 0 0 1 .433-.236l25.799 7.664a.352.352 0 0 1 .235.435l-.631 2.134a.35.35 0 0 1-.335.25zm-.532 2.679l-.63 2.134a.354.354 0 0 1-.168.208.34.34 0 0 1-.266.027l-25.798-7.664a.347.347 0 0 1-.235-.435l.631-2.133a.347.347 0 0 1 .433-.236l25.798 7.664a.35.35 0 0 1 .235.435zM17.051 18.761l-.848 4.692-1.039.716-.532-4.093-1.636.89-.266 1.384a.077.077 0 0 1-.042.054l-.611.335c-.008.005-.017.007-.026.009a.08.08 0 0 1-.089-.068l-.188-1.33a.792.792 0 0 1-.46-.382.798.798 0 0 1-.068-.595l-1.013-.881a.07.07 0 0 1-.019-.026.08.08 0 0 1 .036-.106l.61-.331a.078.078 0 0 1 .068-.005l1.306.531 1.635-.889-3.135-2.678 1.165-.483 4.388 1.845 1.797-.977a.8.8 0 0 1 1.085.322.803.803 0 0 1-.321 1.088l-1.797.978zM44.497 35.53l-.631 2.134a.352.352 0 0 1-.334.25.335.335 0 0 1-.099-.015L7.365 27.184a.35.35 0 0 1-.235-.434l.631-2.134a.349.349 0 0 1 .433-.236l36.068 10.716c.185.055.29.249.235.434zM43 40.593l-.631 2.134a.35.35 0 0 1-.433.235L5.868 32.246a.348.348 0 0 1-.235-.434l.631-2.134a.35.35 0 0 1 .433-.236l36.068 10.716a.35.35 0 0 1 .235.435zm2.128 9.399v2.225a.35.35 0 0 1-.349.35H7.161a.35.35 0 0 1-.349-.35v-2.225a.35.35 0 0 1 .349-.35h37.618a.35.35 0 0 1 .349.35zM7.161 54.923h37.618c.193 0 .349.156.349.349v2.226a.349.349 0 0 1-.349.349H7.161a.349.349 0 0 1-.349-.349v-2.226c0-.193.156-.349.349-.349z"/>
</svg>
