<svg width="230" height="130" viewBox="0 0 230 130" fill="none" xmlns="http://www.w3.org/2000/svg">
<g clip-path="url(#clip0)">
<ellipse cx="163.797" cy="93.989" rx="6.02868" ry="6.01094" fill="#1D1D1D"/>
<ellipse cx="147.893" cy="93.989" rx="6.0287" ry="6.01094" fill="#1D1D1D"/>
<rect x="0.00244141" y="79.4495" width="147.692" height="17.1616" fill="#1D1D1D"/>
<path d="M190.725 95.3851V98.5487H178.788H157.689L149.638 86.6464L135.757 34.0544H162.344C168.981 34.0544 175.187 37.3476 178.907 42.8446L186.211 53.6376C192.453 62.8594 194.567 74.2654 192.047 85.1116L191.763 86.3307C191.074 89.2994 190.725 92.3373 190.725 95.3851Z" fill="#4681E7"/>
<path fill-rule="evenodd" clip-rule="evenodd" d="M189.167 58.7291C183.415 57.7562 181.34 63.3624 179.975 67.0524C179.666 67.8882 179.393 68.6256 179.122 69.1661C176.751 65.8286 167.863 58.8428 160.933 58.7767C159.623 58.7642 157.528 59.0729 156.417 59.9033L141.026 56.6447L134.766 32.927H166.064C169.755 32.927 173.204 34.7554 175.269 37.8058L187.497 55.4714C188.112 56.3806 188.671 57.4885 189.167 58.7291Z" fill="#DFDFDF"/>
<path fill-rule="evenodd" clip-rule="evenodd" d="M176.16 38.792C176.193 38.8401 176.227 38.8886 176.26 38.9373L186.555 54.15C186.065 53.6643 185.534 53.4345 184.062 53.4345C172.504 52.8026 166.28 52.8587 155.468 53.4345C154.635 53.4345 154.137 54.0602 153.582 55.4442L142.741 39.7017C142.953 38.5274 143.655 37.7012 144.641 37.3801C145.613 37.0637 171.04 36.8051 173.467 37.5968C174.986 38.0925 175.492 38.2081 175.862 38.497C175.965 38.5778 176.058 38.6721 176.16 38.792Z" fill="#EE6C45"/>
<path d="M169.435 74.467C168.248 74.467 167.332 73.4383 167.346 72.2515C167.352 71.7417 167.341 71.2409 167.313 70.7488C167.242 69.5055 168.18 68.3774 169.425 68.3774H173.134C174.14 68.3774 174.997 69.1242 175.061 70.1279C175.114 70.9495 175.131 71.7822 175.112 72.626C175.089 73.6674 174.214 74.467 173.172 74.467H169.435Z" fill="#313037"/>
<path d="M185.628 74.467C184.441 74.467 183.524 73.4383 183.539 72.2515C183.545 71.7417 183.534 71.2409 183.506 70.7488C183.435 69.5055 184.373 68.3774 185.618 68.3774H188.772C189.777 68.3774 190.635 69.1242 190.699 70.1279C190.751 70.9495 190.768 71.7822 190.75 72.626C190.727 73.6674 189.852 74.467 188.81 74.467H185.628Z" fill="#313037"/>
<path d="M148.659 40.4313C148.228 39.795 148.645 38.9328 149.412 38.8877C156.745 38.4565 165.617 38.6223 172.517 39.0673C172.73 39.0811 172.933 39.1616 173.091 39.3057C173.566 39.7407 173.994 40.2339 174.363 40.7791L181.255 50.9618C181.72 51.6499 181.193 52.5753 180.363 52.5318C173.32 52.1628 164.65 52.0915 157.506 52.6061C157.148 52.6319 156.803 52.4656 156.602 52.168L148.659 40.4313Z" fill="#313037"/>
<path opacity="0.1" fill-rule="evenodd" clip-rule="evenodd" d="M180.085 52.5172C173.093 52.1608 164.556 52.098 157.506 52.6059C157.148 52.6317 156.803 52.4654 156.602 52.1677L148.991 40.9223C156.243 40.5206 164.915 40.6884 171.688 41.1252C171.901 41.1389 172.103 41.2194 172.261 41.3636C172.736 41.7985 173.164 42.2917 173.533 42.837L180.085 52.5172Z" fill="white"/>
<path fill-rule="evenodd" clip-rule="evenodd" d="M158.244 97.8273V97.1646H163.241L177.677 89.1375L186.283 97.1646H190.725L190.725 98.5486H158.799L158.244 97.8273Z" fill="#FFCD1E"/>
<path d="M158.704 95.6146C158.756 96.7291 158.799 97.7871 158.799 98.5487H146.862L136.035 87.4768H16.1041L4.99944 98.5487H-5.55L-8.32617 95.7808V47.0628C-8.32617 44.4055 -7.26855 41.8575 -5.3868 39.9813L-2.36956 36.973C-0.495053 35.104 2.04401 34.0544 4.69107 34.0544H135.194C138.845 34.0544 142.258 35.8657 144.304 38.889L156.608 57.0695C161.362 64.0931 162.92 72.8005 160.898 81.0369L159.66 86.0819C158.893 89.203 158.551 92.4045 158.704 95.6146Z" fill="#A9A9A9"/>
<rect x="176.567" y="78.896" width="7.77327" height="3.87519" fill="#699EFA"/>
<rect x="174.346" y="78.896" width="2.22094" height="3.87519" fill="#2355AC"/>
<path opacity="0.2" fill-rule="evenodd" clip-rule="evenodd" d="M174.11 68.3943C174.581 68.4771 174.955 68.8565 175 69.3456C175.124 70.683 175.152 72.0508 175.083 73.4483C175.057 73.9702 174.658 74.3827 174.153 74.4555C173.017 74.3213 172.125 73.0144 172.125 71.4221C172.125 69.8497 172.994 68.5557 174.11 68.3943Z" fill="#C4C4C4"/>
<path opacity="0.3" fill-rule="evenodd" clip-rule="evenodd" d="M189.707 68.3882C190.197 68.4557 190.591 68.8427 190.638 69.3459C190.761 70.6833 190.789 72.0511 190.72 73.4486C190.694 73.9847 190.273 74.4053 189.749 74.461C188.589 74.3596 187.671 73.038 187.671 71.4225C187.671 69.8266 188.567 68.5175 189.707 68.3882Z" fill="#C4C4C4"/>
<path opacity="0.2" fill-rule="evenodd" clip-rule="evenodd" d="M184.93 74.3422C185.478 73.9691 185.877 72.8031 185.877 71.4225C185.877 70.0388 185.476 68.8707 184.926 68.5002C184.044 68.8247 183.449 69.7496 183.506 70.749C183.534 71.2411 183.545 71.7419 183.539 72.2518C183.527 73.1924 184.101 74.0337 184.93 74.3422Z" fill="#C4C4C4"/>
<path opacity="0.2" fill-rule="evenodd" clip-rule="evenodd" d="M168.738 74.3422C169.285 73.9691 169.685 72.8031 169.685 71.4225C169.685 70.0388 169.283 68.8707 168.734 68.5002C167.851 68.8247 167.256 69.7496 167.313 70.749C167.341 71.2411 167.353 71.7419 167.346 72.2518C167.335 73.1924 167.908 74.0337 168.738 74.3422Z" fill="#C4C4C4"/>
<ellipse cx="128.797" cy="93.989" rx="6.02868" ry="6.01094" fill="#4D4D4D"/>
<ellipse cx="128.797" cy="93.989" rx="4.04442" ry="4.03251" fill="#6C6C6C"/>
<ellipse cx="128.797" cy="93.989" rx="0.79381" ry="0.79147" fill="#3B3B3B"/>
<ellipse cx="112.735" cy="93.989" rx="6.0287" ry="6.01094" fill="#4D4D4D"/>
<ellipse cx="112.735" cy="93.989" rx="4.04441" ry="4.03251" fill="#6C6C6C"/>
<ellipse cx="112.734" cy="93.989" rx="0.793808" ry="0.79147" fill="#3B3B3B"/>
<path opacity="0.2" fill-rule="evenodd" clip-rule="evenodd" d="M11.7633 40.144H129.325C138.552 40.144 147.232 44.3869 152.9 51.5909L144.334 38.9332C142.269 35.8828 138.82 34.0544 135.129 34.0544H2.85743C1.38485 34.0544 -0.0274067 34.6377 -1.06867 35.6759L-6.69993 41.2906C-7.7412 42.3288 -8.32617 43.7369 -8.32617 45.2051V48.448L-8.32617 48.448C-2.99267 43.1302 4.23169 40.144 11.7633 40.144Z" fill="white"/>
<path fill-rule="evenodd" clip-rule="evenodd" d="M130.482 94.3967L134.369 90.5215V86.9231H107.163V90.5215L111.049 94.3967H111.051C111.402 94.7391 111.882 94.9503 112.411 94.9503H129.118C129.648 94.9503 130.128 94.7391 130.478 94.3967H130.482Z" fill="#323232"/>
<path fill-rule="evenodd" clip-rule="evenodd" d="M8.05322 34.0544L13.8832 39.8672H124.097L129.927 34.0544H8.05322Z" fill="#C4C4C4"/>
<path d="M158.799 98.5486V93.3297C158.799 91.6472 158.992 89.9707 159.372 88.3317L161.891 77.4934C163.283 71.5032 162.115 65.2056 158.665 60.1086L157.147 57.865L158.028 59.1669L133.258 81.6639H-8.32617V95.7807L-5.55 98.5486H4.99944L16.1041 87.4767H136.035L146.862 98.5486H158.799Z" fill="#2B67CF"/>
<path d="M91.4336 98.5488L102.538 87.4768H47.2529L58.08 98.5488H91.4336Z" fill="#3169CA"/>
<path d="M143.621 37.9919C143.874 38.291 144.112 38.605 144.334 38.9331L154.454 53.8872L126.596 81.664H0.83519L-8.32617 72.5296V60.6272L8.88608 77.7888L103.605 77.8903L143.621 37.9919Z" fill="#CA512D"/>
<rect x="133.259" y="42.9119" width="8.32851" height="11.072" rx="3" fill="#313037"/>
<path d="M142.698 48.2308C142.698 47.1278 143.592 46.2336 144.695 46.2336C145.356 46.2336 145.974 46.5607 146.346 47.1071L147.961 49.4811C149.263 51.3941 147.893 53.984 145.579 53.984C143.988 53.984 142.698 52.6939 142.698 51.1024V48.2308Z" fill="#313037"/>
<rect x="107.163" y="30.7327" width="35.535" height="2.21439" rx="1.1072" fill="#C4C4C4"/>
<path opacity="0.3" fill-rule="evenodd" clip-rule="evenodd" d="M160.952 52.4068C164.22 52.2601 167.682 52.2149 171.082 52.2478L175.483 42.4339L174.363 40.7791C173.994 40.2339 173.566 39.7407 173.091 39.3057C172.933 39.1616 172.731 39.0811 172.517 39.0673C166.272 38.6646 158.412 38.4905 151.54 38.7808L160.952 52.4068Z" fill="url(#paint0_linear)"/>
</g>
<path d="M117.405 52.0034C117.405 82.8199 78.5085 109.553 78.5085 109.553C78.5085 109.553 39.6118 82.8199 39.6118 52.0034C39.6118 30.4361 57.0264 12.9524 78.5085 12.9524C99.9905 12.9524 117.405 30.4361 117.405 52.0034Z" fill="#FF8A00"/>
<path fill-rule="evenodd" clip-rule="evenodd" d="M74.2607 106.367C78.2519 103.525 112.288 78.4532 112.288 49.808C112.288 34.0012 102.815 20.4158 89.2571 14.4624C105.511 19.1447 117.405 34.1795 117.405 52.0033C117.405 82.8198 78.5084 109.553 78.5084 109.553C78.5084 109.553 76.8679 108.425 74.2607 106.367Z" fill="#FF7A00"/>
<circle cx="76.7579" cy="50.0984" r="19.2754" fill="#FF7A00"/>
<circle cx="78.5085" cy="51.8491" r="17.5249" fill="white"/>
<path d="M101.938 31.2454L82.6794 48.3042" stroke="black"/>
<path d="M60.8276 42.7971L73.483 49.3883" stroke="black"/>
<circle cx="78.5085" cy="51.8491" r="3.21429" fill="#383838"/>
<g opacity="0.4">
<line x1="78.606" y1="28.314" x2="78.606" y2="25.8863" stroke="white"/>
<line x1="78.606" y1="77.1594" x2="78.606" y2="74.7318" stroke="white"/>
<line x1="101.717" y1="51.6299" x2="104.145" y2="51.6299" stroke="white"/>
<line x1="52.8718" y1="51.6299" x2="55.2995" y2="51.6299" stroke="white"/>
<line x1="58.4575" y1="39.8341" x2="56.3551" y2="38.6203" stroke="white"/>
<line x1="100.759" y1="64.257" x2="98.6566" y2="63.0432" stroke="white"/>
<line x1="90.2057" y1="31.4771" x2="91.4195" y2="29.3747" stroke="white"/>
<line x1="65.7831" y1="73.7783" x2="66.9969" y2="71.6759" stroke="white"/>
<line x1="66.9884" y1="31.3745" x2="65.7746" y2="29.2721" stroke="white"/>
<line x1="91.411" y1="73.6758" x2="90.1972" y2="71.5734" stroke="white"/>
<line x1="98.6616" y1="40.0106" x2="100.764" y2="38.7968" stroke="white"/>
<line x1="56.3601" y1="64.4334" x2="58.4625" y2="63.2196" stroke="white"/>
</g>
<defs>
<linearGradient id="paint0_linear" x1="182.307" y1="37.5949" x2="167.928" y2="54.3899" gradientUnits="userSpaceOnUse">
<stop offset="0.210581" stop-color="white"/>
<stop offset="1" stop-color="white" stop-opacity="0"/>
</linearGradient>
<clipPath id="clip0">
<rect width="126" height="82" fill="white" transform="translate(70 18)"/>
</clipPath>
</defs>
</svg>
