<svg width="32" height="21" fill="none" xmlns="http://www.w3.org/2000/svg"><g opacity=".5" fill="#fff"><path d="M23.722 8.33c-.24-.077-.553.192-.69.604-.144.412-.056.808.187.882.242.078.554-.193.691-.604.141-.411.055-.807-.188-.883zM21.44 6.745c-.11-.073-.287-.107-.53-.107h-.743l-.268 1.302h.876c.228 0 .408-.053.542-.159.13-.105.218-.268.265-.488.008-.04.012-.077.02-.111 0-.032.006-.063.006-.094 0-.157-.055-.271-.167-.343zM20.494 14.64l-.174.619h.683l.175-.62h-.684zM21.174 12.244l-.233.816s.398-.154.742-.197c.077-.285.175-.62.175-.62h-.684zM20.833 13.443l-.235.854s.443-.219.744-.238c.09-.328.177-.616.177-.616h-.686zM14.457 8.251a.472.472 0 0 0-.365-.14.658.658 0 0 0-.511.22c-.134.147-.229.368-.289.664a2.69 2.69 0 0 0-.02.135 1.049 1.049 0 0 0-.006.127c0 .168.044.297.13.389.086.091.207.137.367.137.209 0 .378-.073.511-.218.133-.144.227-.362.286-.652a1.386 1.386 0 0 0 .026-.27c0-.167-.042-.299-.13-.392z"/><path d="M30.486.699L22.938.697H22.918c-1.037.033-2.329.866-2.564 1.893l-.67 2.972h-.623l.67-2.972C19.969 1.563 21.26.73 22.297.698l.018-.001h-3.017L13.93.694l-.04.002c-1.04.021-2.349.86-2.584 1.895l-.67 2.971H9.91l.67-2.971c.235-1.035 1.544-1.874 2.584-1.895L6.238.694c-1.046 0-2.386.848-2.626 1.897L.042 18.41c-.022.096-.035.191-.042.283v.293c.07.755.647 1.306 1.475 1.318h6.97c-1.03-.016-1.67-.86-1.435-1.897l.829-3.672h.727l-.83 3.672c-.235 1.038.406 1.88 1.434 1.897h8.43c-1.03-.016-1.67-.86-1.434-1.897l.277-1.23h.622l-.277 1.23c-.235 1.038.405 1.88 1.434 1.897h7.93c1.014-.05 1.998-.874 2.23-1.89l3.57-15.82c.237-1.047-.42-1.897-1.466-1.896zM6.661 9.988c-.377.279-.865.419-1.461.419-.562 0-.974-.143-1.236-.43-.182-.203-.273-.463-.273-.775 0-.13.015-.27.046-.418l.636-3.07h.96l-.628 3.034a.989.989 0 0 0-.026.234c0 .155.038.282.116.382.113.148.298.221.555.221.296 0 .539-.071.727-.218a.999.999 0 0 0 .367-.618l.63-3.035h.954l-.635 3.07c-.107.522-.352.92-.732 1.204zm3.836-1.537l-.372 1.867h-.698l.338-1.692c.034-.175.025-.306-.03-.39-.052-.084-.153-.125-.299-.125-.18 0-.33.056-.453.167a.828.828 0 0 0-.245.465l-.31 1.574H7.73l.547-2.74h.678l-.077.394.096-.112c.22-.236.488-.353.802-.353.286 0 .492.084.62.25.128.168.162.398.101.695zm12.367-.58c.585-.273.889-.112 1.221.148l.317-.219.753-.067-.567 2.584-.867-.022-.128-.148c-2.195.937-1.528-1.907-.73-2.277zm1.552 4.133l-.156.538h-.634c-.242.014-.365-.077-.378-.278l-.029-.698h.863l.037.318c-.006.082.043.12.145.12h.152zm-5.013-6.127h1.97c.378 0 .67.087.873.256.201.17.301.415.301.735v.01c0 .06-.004.13-.01.203-.01.073-.02.147-.039.224a1.739 1.739 0 0 1-.599 1.02 1.699 1.699 0 0 1-1.108.387h-1.056l-.327 1.605h-.914l.909-4.44zm-3.35 1.7h.678l-.077.395.095-.113c.22-.235.489-.352.802-.352.284 0 .49.083.62.25.125.167.161.398.1.694l-.372 1.867H17.2l.338-1.692c.034-.175.026-.306-.028-.39-.055-.084-.154-.125-.3-.125a.656.656 0 0 0-.453.167.822.822 0 0 0-.244.465l-.312 1.574h-.697l.547-2.74zm-.217 4.35l-.14.515h-1.3c-.15.225-.335.331-.557.318h-.678l.148-.538h.131c.121 0 .202-.04.24-.12l.34-.512h.913l-.19.337h1.093zm-4.25-1.61h-.75l.588-2.74h.752l-.59 2.74zm.691-3.073h-.758l.141-.666h.759l-.142.666zm.277 1.914c.008-.07.017-.136.03-.2.09-.445.279-.798.572-1.059a1.527 1.527 0 0 1 1.056-.393c.339 0 .606.095.802.284.196.19.295.448.295.774a1.918 1.918 0 0 1-.044.395c-.087.437-.276.787-.569 1.043a1.535 1.535 0 0 1-1.053.386c-.339 0-.605-.093-.801-.279-.198-.189-.297-.442-.298-.764 0-.057.003-.12.01-.187zm2.204 6.957h-1.467c-.28 0-.374-.16-.287-.48l.278-1.017h-.599l.152-.561h.6l.146-.538h-.573l.151-.559h2.397l-.153.559h-.963l-.147.54h.938l-.153.559h-.939l-.218.796c-.053.133.018.193.213.18h.764l-.14.521zm3.865-1.6c-.074.268-.269.407-.584.42h-.417l-.002.58c-.008.09.077.138.25.138h.39l-.129.46h-.938c-.261.01-.392-.114-.388-.38l.058-1.555h.783l-.016.338h.208c.106 0 .158-.035.158-.1l.062-.22h.65l-.085.32zm-.498-.48h-1.719l-.402 1.478c-.024.078.008.12.096.12h.339l-.125.459h-.86c-.33 0-.467-.098-.413-.3l1.138-4.206h.802l-.036.328s.453-.34.862-.34h1.518l-.58 2.103c-.048.241-.254.36-.62.359zm3.675 1.822l-.075.259h-.887l.075-.26H19.16l.17-.598h.175l.856-3.015h-.176l.18-.639h.917l-.04.236s.467-.236.806-.236h1.133l-.18.639h-.177l-.857 3.015h.179l-.168.599H21.8zm3.797-2.558h-.888l-.153.538h.888l-.167.577h-.988l-.223.338h.48l.114.68c.013.068.072.1.174.1h.15l-.158.559h-.533c-.274.014-.416-.077-.429-.279l-.129-.618-.44.66a.474.474 0 0 1-.48.26h-.813l.16-.56h.252a.344.344 0 0 0 .27-.14l.69-.998h-.89l.166-.577h.963l.155-.537h-.966l.166-.579h2.792l-.163.576zm1.046-2.454c-.287.617-.563.975-.725 1.142-.163.166-.483.55-1.257.521l.068-.47c.65-.2 1.001-1.103 1.203-1.504l-.24-2.95.501-.007h.421l.045 1.85.793-1.85h.801l-1.61 3.268z"/><path d="M16.668 13.078l-.114.419h1.223c.1.014.157-.026.164-.12l.083-.299h-1.356zM16.917 12.18l-.162.568s.225-.162.601-.169c.377-.005.806 0 .806 0l.109-.398h-1.354z"/></g></svg>