<svg fill="none" height="20" viewBox="0 0 22 20" width="22" xmlns="http://www.w3.org/2000/svg"><path clip-rule="evenodd" d="m21.9335 2.6241v6.1209c0 1.4492-1.162 2.6253-2.6113 2.6253h-7.0524c-.1378 0-.2514-.0008-.3464-.0028-.0995-.0021-.2115-.0029-.2552.002-.0455.0302-.157.1324-.2645.2314-.0239.022-.0495.0452-.0766.0697l-.0002.0002-.0661.0599-1.99524 1.8187c-.15915.1451-.39462.1827-.59172.0958s-.33547-.2821-.33547-.4975v-5.76536h-5.69668c-.84967 0-1.55408.69626-1.55408 1.5458v6.12096c0 .8496.70447 1.5175 1.55408 1.5175h7.87761c.1356 0 .2625.0623.3627.1538l1.6256 1.4987v-5.1685c0-.3003.2434-.5438.5438-.5438.3003 0 .5438.2435.5438.5438v6.4011c0 .2154-.1233.4077-.3205.4946-.0705.0311-.1413.0434-.2154.0434-.1332 0-.2646-.0547-.3667-.148l-2.3841-2.1875h-7.66681c-1.4493 0-2.64169-1.1559-2.64169-2.6052v-6.12086c0-1.44924 1.19239-2.63341 2.64169-2.63341h5.69668v-3.67063c0-1.44931 1.20151-2.6133578 2.65083-2.6133578h8.3331c1.4492 0 2.6112 1.1640478 2.6112 2.6133578zm-5.986 3.459c.3529-.29631.8338-.69998.8338-1.36245 0-.89637-.7293-1.62356-1.6257-1.6235-.8964 0-1.6256.72924-1.6256 1.62556 0 .30036.2434.5438.5438.5438.3003 0 .5438-.24344.5438-.5438 0-.29662.2414-.53795.5381-.53795.2966 0 .538.24133.538.53795 0 .14652-.1777.30664-.4487.5342l-.0139.01163c-.3429.28778-.7612.63888-.7565 1.21997.0024.29879.2454.53123.5436.53123h.0046c.3003 0 .5418-.23981.5394-.54012-.0007-.07298.2256-.26265.3626-.37751l.0195-.01632zm-1.446 1.98245c0-.30037.2314-.54381.5318-.54381s.5438.24344.5438.54381c0 .30036-.2435.54592-.5438.54592s-.5318-.24139-.5318-.54176zm-10.42948 3.24425c-.30036 0-.5438.2435-.5438.5438 0 .3004.24344.5438.5438.5438h.04532c.30036 0 .54381-.2434.54381-.5438 0-.3003-.24345-.5438-.54381-.5438zm1.34617.5438c0-.3003.24344-.5438.5438-.5438h.04526c.30036 0 .54381.2435.54381.5438 0 .3004-.24345.5438-.54381.5438h-.04526c-.30036 0-.5438-.2434-.5438-.5438zm13.90401-10.75524c.8496 0 1.5237.67613 1.5237 1.52574v6.12096c0 .84955-.6741 1.53764-1.5237 1.53764h-7.0524c-.1288 0-.2346-.0007-.3235-.0025-.6512-.0134-.7789.0601-1.2782.5201-.0202.0187-.044.0383-.069.0588-.0263.0216-.0538.0443-.0798.068l-1.09332.9881v-5.07159-4.21951c0-.84961.71362-1.52574 1.56322-1.52574z" fill="#fff" fill-rule="evenodd"/></svg>