<svg fill="none" height="20" viewBox="0 0 22 20" width="22" xmlns="http://www.w3.org/2000/svg"><path clip-rule="evenodd" d="m1.69976 4.27351v9.12089c0 1.4493 1.16205 2.6253 2.6113 2.6253h12.05234c.1379 0 .2515-.0008.3464-.0028.0996-.0021.2116-.0028.2553.002.0455.0302.157.1324.2645.2314.0239.022.0497.0453.0768.0699l.066.06 1.9953 1.8186c.1592.1452.3947.1827.5918.0959.1971-.087.3354-.2822.3354-.4976v-13.52359c0-1.44931-1.2015-2.61335-2.6508-2.61335h-13.33311c-1.44918 0-2.61123 1.16404-2.61123 2.61335zm17.53514 12.36999-1.1478-1.0462-.1393-.1266c-.2301-.212-.286-.2616-.3964-.3349l-.2142-.1422-.2555-.0283c-.1046-.0116-.2132-.0119-.3941-.0082-.0828.0018-.187.0026-.3242.0026h-12.05235c-.8594 0-1.55129-.697-1.55129-1.5653v-9.12089c0-.86451.68809-1.55335 1.55124-1.55335h13.3331c.8757 0 1.5908.70122 1.5908 1.55335zm-14.03514-10.42334c0-.32164.2919-.545.6177-.545h10.34704c.3258 0 .6177.22336.6177.545 0 .32163-.2919.545-.6177.545h-10.34704c-.32594 0-.6177-.22335-.6177-.545zm.6177 1.955c-.3258 0-.6177.22336-.6177.545 0 .32165.29176.545.6177.545h10.34704c.3258 0 .6177-.22337.6177-.545 0-.32164-.2919-.545-.6177-.545zm-.6177 3.04504c0-.3217.2919-.545.6177-.545h10.34704c.3258 0 .6177.2233.6177.545 0 .3216-.2919.545-.6177.545h-10.34704c-.32594 0-.6177-.2234-.6177-.545z" fill="#fff" fill-rule="evenodd"/></svg>